<?xml version="1.0" standalone="no"?>
<!DOCTYPE svg PUBLIC "-//W3C//DTD SVG 1.1//EN" "http://www.w3.org/Graphics/SVG/1.1/DTD/svg11.dtd" >
<svg xmlns="http://www.w3.org/2000/svg">
<metadata></metadata>
<defs>
<font id="nachlieli_clmbold" horiz-adv-x="0" >
<font-face units-per-em="2048" ascent="1638" descent="-410" />
<missing-glyph horiz-adv-x="563" />
<glyph horiz-adv-x="2048" />
<glyph horiz-adv-x="2048" />
<glyph unicode="&#xd;" horiz-adv-x="2048" />
<glyph unicode=" "  horiz-adv-x="563" />
<glyph unicode="&#x09;" horiz-adv-x="563" />
<glyph unicode="&#xa0;" horiz-adv-x="563" />
<glyph unicode="!" horiz-adv-x="625" d="M210 0v274h282v-274h-282zM210 970v394h282v-394l-79 -581h-126z" />
<glyph unicode="&#x22;" horiz-adv-x="890" d="M94 1125v245h259v-245l-79 -242h-105zM537 1125v245h260v-245l-79 -242h-105z" />
<glyph unicode="#" horiz-adv-x="1044" d="M6 323v186h182l56 288h-186v186h224l64 327h197l-64 -327h194l64 327h197l-64 -327h169v-186h-205l-58 -288h188v-186h-224l-75 -383h-197l75 383h-194l-75 -383h-199l75 383h-144zM385 509h194l56 288h-193z" />
<glyph unicode="$" horiz-adv-x="1044" d="M41 372v17h246q9 -198 170 -227v400q-384 88 -384 400q0 158 101.5 255.5t282.5 114.5v102h127v-102q178 -10 281 -115t106 -281h-240q3 86 -36 141t-111 65v-377q219 -61 312.5 -152.5t93.5 -246.5q0 -106 -42.5 -192t-118.5 -136q-97 -61 -245 -77v-198h-127v198 q-85 8 -143 28t-111 58q-162 116 -162 325zM304 970q0 -62 37 -102t116 -66v340q-153 -31 -153 -172zM584 162q158 39 158 182q0 138 -158 186v-368z" />
<glyph unicode="%" horiz-adv-x="1670" d="M41 975q0 141 101.5 241.5t244.5 100.5q145 0 245.5 -100.5t100.5 -245.5q0 -138 -102.5 -238t-243.5 -100q-143 0 -244.5 100.5t-101.5 241.5zM227 975q0 -65 47 -111.5t113 -46.5q65 0 112.5 46t47.5 110q0 66 -47 112t-113 46t-113 -46t-47 -110zM395 -38l744 1370 h142l-742 -1370h-144zM930 319q0 141 101.5 241.5t244.5 100.5q145 0 245 -100.5t100 -246.5q0 -138 -102 -238t-243 -100q-143 0 -244.5 100.5t-101.5 242.5zM1116 318q0 -65 47 -111.5t113 -46.5q65 0 112 46t47 110q0 66 -46.5 112.5t-112.5 46.5t-113 -46t-47 -111z" />
<glyph unicode="&#x26;" horiz-adv-x="1356" d="M103 363q0 133 65 218.5t230 171.5q-19 26 -22 29l-53 64q-79 92 -79 199q0 133 102 223t253 90t243 -80t92 -211q0 -101 -47.5 -172.5t-172.5 -157.5l218 -271q31 60 43.5 108t12.5 108v19h213v-21v-9q-3 -109 -37.5 -213.5t-90.5 -168.5l231 -289h-303l-86 105 q-113 -85 -191 -116.5t-175 -31.5q-200 0 -323 111.5t-123 294.5zM353 395q0 -85 61.5 -152.5t137.5 -67.5q93 0 226 103l-256 321l-88 -54q-81 -54 -81 -150zM492 1063q0 -35 16 -62.5t88 -117.5q112 61 112 162q0 52 -28 80.5t-79 28.5q-48 0 -78.5 -25.5t-30.5 -65.5z " />
<glyph unicode="'" horiz-adv-x="522" d="M124 881v87q156 28 150 167h-150v235h254v-205q0 -80 -20 -130.5t-65 -89.5q-68 -58 -169 -64z" />
<glyph unicode="(" horiz-adv-x="625" d="M75 498q0 216 72.5 422.5t233.5 449.5h188q-149 -286 -206 -476t-57 -396q0 -207 57 -395t206 -479h-188q-162 243 -234 450t-72 424z" />
<glyph unicode=")" horiz-adv-x="625" d="M41 -376q149 286 206 476t57 396q0 207 -57 395t-206 479h188q162 -243 234 -450t72 -424q0 -216 -72.5 -422.5t-233.5 -449.5h-188z" />
<glyph unicode="*" horiz-adv-x="730" d="M43 1090l42 129l204 -67v218h136v-218l204 67l42 -131l-205 -66l126 -176l-109 -81l-126 176l-126 -176l-109 81l126 176z" />
<glyph unicode="+" horiz-adv-x="1097" d="M94 323v224h342v342h223v-342h342v-224h-342v-342h-223v342h-342z" />
<glyph unicode="," horiz-adv-x="522" d="M120 0v274h282v-257q0 -110 -22.5 -170t-78.5 -104q-75 -58 -181 -70v105q84 17 123 69t39 147v6h-162z" />
<glyph unicode="-" horiz-adv-x="625" d="M49 389v254h511v-254h-511z" />
<glyph unicode="." horiz-adv-x="522" d="M120 0v274h282v-274h-282z" />
<glyph unicode="/" horiz-adv-x="522" d="M4 -26l387 1368h126l-387 -1368h-126z" />
<glyph unicode="0" horiz-adv-x="1044" d="M54 658q0 380 113 531q61 83 150 127t196 44q117 0 211 -50.5t153 -146.5q94 -151 94 -513q0 -371 -112 -522q-126 -171 -346 -171q-117 0 -211.5 51t-153.5 146q-94 153 -94 504zM318 659q0 -285 41 -373q49 -104 154 -104q116 0 162 122q14 40 23.5 140.5t9.5 211.5 q0 297 -41 385q-49 107 -154 107q-115 0 -162 -126q-14 -41 -23.5 -143.5t-9.5 -219.5z" />
<glyph unicode="1" horiz-adv-x="1044" d="M128 919v175q345 0 407 238h175v-1332h-263v919h-319z" />
<glyph unicode="2" horiz-adv-x="1044" d="M56 0q10 184 75 293.5t234 225.5q153 109 221 170.5t93.5 113.5t25.5 129q0 100 -50.5 157t-137.5 57q-90 0 -140 -62t-50 -173v-43h-252q-2 21 -2 47q0 211 115.5 328t322.5 117q210 0 333.5 -114.5t123.5 -307.5q0 -135 -63 -229.5t-236 -221.5 q-147 -108 -196.5 -153.5t-74.5 -98.5h564v-235h-906z" />
<glyph unicode="3" horiz-adv-x="1044" d="M54 391h256q12 -209 199 -209q86 0 141.5 57t55.5 144q0 73 -39 127t-105 72q-57 14 -154 14v176h22q233 0 233 201q0 83 -43 129t-122 46q-58 0 -101 -25t-61 -69q-17 -45 -20 -141h-245v23q0 178 77 274q56 73 148.5 111.5t207.5 38.5q193 0 307.5 -98t114.5 -264 q0 -92 -41 -159.5t-133 -124.5q113 -55 165.5 -134.5t52.5 -196.5q0 -194 -126.5 -310t-339.5 -116q-205 0 -327 117t-123 317z" />
<glyph unicode="4" horiz-adv-x="1044" d="M45 295v222l487 815h310v-819h139v-218h-139v-295h-263v295h-534zM231 513h348v569z" />
<glyph unicode="5" horiz-adv-x="1044" d="M51 348h259q5 -81 51.5 -123.5t132.5 -42.5q99 0 156.5 67.5t57.5 184.5q0 121 -57 189t-157 68q-126 0 -169 -101h-237l119 742h712v-235h-551l-43 -278q58 43 111.5 62t119.5 19q184 0 299.5 -128t115.5 -332q0 -215 -133.5 -349t-347.5 -134q-194 0 -315 108t-124 283 z" />
<glyph unicode="6" horiz-adv-x="1044" d="M60 633q0 181 26 302t85 219q61 100 159 153t222 53q108 0 196 -40t141 -112q26 -38 40 -76.5t24 -101.5h-245q-26 64 -63 91t-100 27q-79 0 -133 -51t-72 -141q-8 -42 -10 -66.5t-7 -130.5q62 64 122.5 91t142.5 27q172 0 279.5 -120t107.5 -312q0 -217 -123.5 -352.5 t-321.5 -135.5q-119 0 -217.5 52t-156.5 145q-51 80 -73.5 193.5t-22.5 285.5zM319 423q0 -106 56.5 -173.5t146.5 -67.5q87 0 145 69.5t58 176.5q0 110 -55 176.5t-146 66.5t-148 -69t-57 -179z" />
<glyph unicode="7" horiz-adv-x="1044" d="M54 1097v235h938v-207q-237 -286 -348 -547.5t-129 -577.5h-265q27 213 66.5 359.5t108.5 292.5q40 88 136.5 234.5t156.5 210.5h-664z" />
<glyph unicode="8" horiz-adv-x="1044" d="M41 383q0 119 51.5 199.5t166.5 142.5q-90 48 -131.5 113t-41.5 160q0 157 121.5 259.5t307.5 102.5q185 0 305.5 -101.5t120.5 -258.5q0 -64 -22.5 -122t-63.5 -96q-29 -26 -87 -57q115 -62 166.5 -142.5t51.5 -199.5q0 -189 -131 -307.5t-340 -118.5q-210 0 -342 118.5 t-132 307.5zM304 398q0 -99 56.5 -157.5t152.5 -58.5t153 58.5t57 154.5q0 104 -56.5 164.5t-153.5 60.5q-95 0 -152 -60.5t-57 -161.5zM318 975q0 -77 56 -126.5t143 -49.5q86 0 141.5 49t55.5 125q0 77 -55 126t-142 49q-88 0 -143.5 -48.5t-55.5 -124.5z" />
<glyph unicode="9" horiz-adv-x="1044" d="M53 891q0 209 124.5 339t324.5 130q245 0 375 -218q93 -155 93 -447q0 -161 -29.5 -303t-81.5 -230q-121 -207 -380 -207q-172 0 -288 100.5t-120 254.5h254q4 -59 48.5 -94.5t113.5 -35.5q219 0 219 380q-58 -66 -82 -83q-67 -49 -173 -49q-177 0 -287.5 128.5 t-110.5 334.5zM303 894q0 -114 52.5 -181t142.5 -67t146.5 67.5t56.5 177.5q0 117 -55.5 186t-151.5 69q-87 0 -139 -68.5t-52 -183.5z" />
<glyph unicode=":" horiz-adv-x="625" d="M212 0v274h282v-274h-282zM212 703v274h282v-274h-282z" />
<glyph unicode=";" horiz-adv-x="625" d="M212 0v274h282v-257q0 -110 -22.5 -170t-78.5 -104q-75 -58 -181 -70v105q84 17 123 69t39 147v6h-162zM212 703v274h282v-274h-282z" />
<glyph unicode="&#x3c;" horiz-adv-x="1097" d="M75 323v228l919 340v-205l-718 -250l718 -246v-209z" />
<glyph unicode="=" horiz-adv-x="1097" d="M94 98v223h909v-223h-909zM94 549v223h909v-223h-909z" />
<glyph unicode="&#x3e;" horiz-adv-x="1097" d="M75 -19v205l718 250l-718 246v209l919 -342v-228z" />
<glyph unicode="?" horiz-adv-x="1148" d="M120 904q1 115 21.5 190t67.5 137q122 167 368 167q207 0 337.5 -120t130.5 -312q0 -119 -47.5 -195.5t-178.5 -169.5q-61 -42 -84.5 -67.5t-32.5 -58t-9 -97.5h-233q-4 119 35 197t151 175q84 68 109 107t25 103q0 92 -56.5 154t-141.5 62q-93 0 -152.5 -77t-53.5 -191 v-4h-256zM442 0v274h281v-274h-281z" />
<glyph unicode="@" horiz-adv-x="1831" d="M51 496q0 164 72 334.5t196 298.5q263 271 651 271q357 0 601 -235q107 -104 157.5 -225.5t50.5 -272.5q0 -228 -154 -404q-141 -158 -315 -158q-96 0 -168 49q-29 20 -42.5 38.5t-24.5 53.5q-55 -66 -130 -103.5t-152 -37.5q-128 0 -218 94t-90 228q0 94 37 194.5 t102 180.5q64 79 155.5 125t186.5 46q79 0 129.5 -32t84.5 -103l30 116h169l-146 -526q-15 -56 -15 -79q0 -42 25 -67t67 -25q49 0 104 36.5t102 99.5q96 133 96 302q0 222 -184 387q-197 173 -468 173q-328 0 -533 -237q-92 -106 -143 -242t-51 -276q0 -287 222 -461 q195 -152 458 -152q218 0 389 77l53 -137q-189 -86 -446 -86q-179 0 -318.5 43t-256.5 135q-135 106 -209 257.5t-74 319.5zM667 458q0 -85 48.5 -143t118.5 -58q40 0 86 24.5t80 64.5q52 60 85 145t33 157q0 89 -42.5 140.5t-115.5 51.5q-110 0 -201.5 -119t-91.5 -263z " />
<glyph unicode="A" horiz-adv-x="1356" d="M49 0l486 1370h312l474 -1370h-289l-91 276h-513l-92 -276h-287zM507 511h357l-178 536z" />
<glyph unicode="B" horiz-adv-x="1356" d="M154 0v1370h611q110 0 186 -23.5t137 -76.5q58 -51 91 -120.5t33 -140.5q0 -87 -43.5 -152.5t-144.5 -129.5q227 -133 227 -332q0 -82 -36.5 -162.5t-98.5 -132.5t-144.5 -76t-201.5 -24h-616zM436 235h336q103 0 156 45t53 131q0 87 -53.5 133t-155.5 46h-336v-355z M436 825h306q97 0 148 39.5t51 114.5q0 76 -51 116t-148 40h-306v-310z" />
<glyph unicode="C" horiz-adv-x="1356" d="M83 673q0 332 168.5 525.5t458.5 193.5q153 0 276.5 -56t202.5 -160q43 -57 64 -119t28 -151h-268q-22 96 -62 146q-80 100 -231 100q-167 0 -261 -128t-94 -355q0 -224 91 -349.5t254 -125.5q132 0 211 71.5t92 202.5h274q-13 -235 -171 -373t-413 -138q-286 0 -453 193 t-167 523z" />
<glyph unicode="D" horiz-adv-x="1356" d="M145 0v1370h535q158 0 260.5 -37.5t171.5 -120.5q82 -97 125 -232.5t43 -293.5q0 -159 -43 -294.5t-125 -231.5q-69 -83 -172 -121.5t-260 -38.5h-535zM427 235h253q318 0 318 449q0 451 -318 451h-253v-900z" />
<glyph unicode="E" horiz-adv-x="1253" d="M148 0v1370h991v-235h-709v-310h656v-235h-656v-355h742v-235h-1024z" />
<glyph unicode="F" horiz-adv-x="1148" d="M139 0v1370h962v-235h-680v-310h599v-235h-599v-590h-282z" />
<glyph unicode="G" horiz-adv-x="1461" d="M79 675q0 320 183.5 518.5t479.5 198.5q248 0 408 -124t186 -336h-265q-18 52 -36.5 81.5t-48.5 55.5q-95 83 -242 83q-179 0 -281 -126.5t-102 -347.5q0 -211 110 -346t281 -135q82 0 155.5 35t124.5 97q56 67 67 173h-312v235h549v-741h-169l-34 181 q-79 -115 -177 -167.5t-236 -52.5q-183 0 -329.5 92.5t-229 256.5t-82.5 369z" />
<glyph unicode="H" horiz-adv-x="1356" d="M128 0v1370h282v-513h541v513h283v-1370h-281v622h-543v-622h-282z" />
<glyph unicode="I" horiz-adv-x="522" d="M118 0v1370h282v-1370h-282z" />
<glyph unicode="J" horiz-adv-x="1044" d="M45 372v135h282v-131q0 -95 36 -137t116 -42q73 0 112.5 41.5t39.5 118.5v1013h282v-1013q0 -192 -115 -296t-325 -104q-192 0 -313 109q-61 57 -88 128t-27 178z" />
<glyph unicode="K" horiz-adv-x="1356" d="M139 0v1370h282v-602l535 602h333l-547 -590l605 -780h-336l-449 605l-141 -147v-458h-282z" />
<glyph unicode="L" horiz-adv-x="1148" d="M150 0v1370h282v-1135h656v-235h-938z" />
<glyph unicode="M" horiz-adv-x="1565" d="M124 0v1370h421l248 -1090l240 1090h425v-1370h-282v1067l-242 -1067h-282l-246 1067v-1067h-282z" />
<glyph unicode="N" horiz-adv-x="1356" d="M128 0v1370h289l543 -932v932h282v-1370h-282l-550 947v-947h-282z" />
<glyph unicode="O" horiz-adv-x="1461" d="M75 675q0 153 50 290.5t142 236.5q175 190 466 190q294 0 469 -190q92 -100 142 -238.5t50 -298.5q0 -145 -51.5 -284t-140.5 -234q-175 -190 -467 -190q-293 0 -468 190q-91 97 -141.5 235.5t-50.5 292.5zM357 675q0 -215 104 -346.5t274 -131.5q169 0 273 130t104 340 q0 223 -102 354t-275 131q-170 0 -274 -131t-104 -346z" />
<glyph unicode="P" horiz-adv-x="1253" d="M143 0v1370h605q214 0 327.5 -109.5t113.5 -315.5q0 -209 -112 -332.5t-301 -123.5h-351v-489h-282zM425 723h263q112 0 166 50.5t54 154.5q0 106 -54 156.5t-166 50.5h-263v-412z" />
<glyph unicode="Q" horiz-adv-x="1461" d="M81 675q0 153 50.5 291t140.5 236q175 190 468 190t468 -190q90 -98 141 -236t51 -288q0 -138 -41 -268.5t-110 -215.5l151 -143l-143 -152l-162 152q-155 -94 -355 -94q-293 0 -468 190q-90 98 -140.5 236.5t-50.5 291.5zM363 675q0 -215 103 -346.5t272 -131.5 q99 0 166 36l-145 137l143 152l154 -146q62 126 62 297q0 218 -103 348.5t-275 130.5q-170 0 -273.5 -131t-103.5 -346z" />
<glyph unicode="R" horiz-adv-x="1356" d="M150 0v1370h735q174 0 265 -94q103 -106 103 -276q0 -249 -231 -339q30 -13 48 -21t38 -21.5t30.5 -21.5t23 -27.5t18 -33.5t12.5 -45t9 -56t5 -72.5t4 -89t2 -110.5q0 -44 13.5 -69t46.5 -43v-51h-302q-27 50 -35.5 94.5t-8.5 140.5q0 54 2 90q2 24 2 55 q0 86 -41.5 124.5t-133.5 38.5h-323v-543h-282zM432 778h340q60 0 93 8t56 28q50 44 50 146q0 98 -50 139q-25 21 -56.5 28.5t-92.5 7.5h-340v-357z" />
<glyph unicode="S" horiz-adv-x="1253" d="M60 410h274q7 -111 86 -169.5t223 -58.5q129 0 202.5 49t73.5 135q0 83 -58.5 128t-199.5 72l-191 37q-208 40 -296.5 124.5t-88.5 243.5q0 200 135.5 310.5t382.5 110.5q300 0 442 -156q51 -56 73 -122t22 -161h-263q-7 104 -80.5 159t-206.5 55q-109 0 -173 -46 t-64 -123q0 -75 54.5 -112.5t205.5 -66.5l214 -41q190 -37 276 -126.5t86 -251.5q0 -209 -148 -326t-413 -117q-262 0 -408.5 116.5t-159.5 336.5z" />
<glyph unicode="T" horiz-adv-x="1148" d="M26 1135v235h1098v-235h-401v-1135h-281v1135h-416z" />
<glyph unicode="U" horiz-adv-x="1356" d="M143 442v928h282v-928q0 -124 64 -184.5t197 -60.5t197 60.5t64 184.5v928h282v-928q0 -225 -134 -346q-154 -139 -409 -139q-256 0 -410 139q-133 120 -133 346z" />
<glyph unicode="V" horiz-adv-x="1253" d="M45 1370h284l304 -1032l299 1032h284l-470 -1370h-239z" />
<glyph unicode="W" horiz-adv-x="1773" d="M24 1370h299l212 -1026l213 1026h278l222 -1028l204 1028h299l-379 -1370h-254l-229 1069l-224 -1069h-254z" />
<glyph unicode="X" horiz-adv-x="1253" d="M41 0l432 690l-417 680h335l240 -451l252 451h327l-423 -671l440 -699h-335l-263 475l-261 -475h-327z" />
<glyph unicode="Y" horiz-adv-x="1253" d="M51 1370h314l279 -605l262 605h315l-434 -863v-507h-282v507z" />
<glyph unicode="Z" horiz-adv-x="1148" d="M56 0v235l701 900h-701v235h1030v-235l-699 -900h699v-235h-1030z" />
<glyph unicode="[" horiz-adv-x="625" d="M124 -376v1746h455v-192h-211v-1362h211v-192h-455z" />
<glyph unicode="\" horiz-adv-x="522" d="M-23 1342h126l440 -1368h-126z" />
<glyph unicode="]" horiz-adv-x="625" d="M34 -184h210v1362h-210v192h455v-1746h-455v192z" />
<glyph unicode="^" horiz-adv-x="1097" d="M115 507l310 799h234l322 -799h-213l-227 564l-216 -564h-210z" />
<glyph unicode="_" horiz-adv-x="1044" d="M-41 -225h1127v-130h-1127v130z" />
<glyph unicode="`" horiz-adv-x="522" d="M126 881v205q0 80 19.5 131t64.5 89q68 58 170 64v-87q-157 -28 -151 -167h151v-235h-254z" />
<glyph unicode="a" horiz-adv-x="1044" d="M53 261q0 270 298 320l106 18q97 16 117.5 21t47.5 19q45 24 45 79q0 101 -152 101q-97 0 -136.5 -30t-49.5 -109h-254q25 352 434 352q415 0 415 -312v-564q0 -40 13 -66t48 -58v-32h-286q-18 23 -24 42.5t-6 58.5q-138 -144 -308 -144q-68 0 -131 25.5t-106 70.5 q-71 77 -71 208zM316 291q0 -56 38 -89t104 -33q100 0 154.5 62.5t54.5 176.5v71q-36 -18 -111 -32l-90 -17q-82 -17 -116 -48.5t-34 -90.5z" />
<glyph unicode="b" horiz-adv-x="1148" d="M111 0v1370h263v-487q94 149 280 149q93 0 178.5 -44.5t138.5 -119.5q51 -74 80 -173t29 -201q0 -151 -55.5 -274t-153.5 -193t-217 -70q-187 0 -280 146v-103h-263zM374 498q0 -145 61 -233t161 -88q97 0 159 88.5t62 226.5q0 141 -62 230.5t-159 89.5q-99 0 -160.5 -88 t-61.5 -226z" />
<glyph unicode="c" horiz-adv-x="1044" d="M64 487q0 259 126 402t353 143q191 0 307.5 -105.5t130.5 -291.5h-252q-23 100 -65.5 142t-122.5 42q-117 0 -163 -86q-51 -96 -51 -246q0 -148 57 -233t157 -85q76 0 119.5 41.5t68.5 140.5h252q-18 -181 -137.5 -287.5t-304.5 -106.5q-225 0 -350 139.5t-125 390.5z " />
<glyph unicode="d" horiz-adv-x="1148" d="M54 492q0 230 123 385t304 155q183 0 280 -149v487h263v-1370h-263v103q-96 -146 -280 -146q-93 0 -179 43.5t-139 117.5q-51 74 -80 173t-29 201zM318 492q0 -140 61 -227.5t160 -87.5t160.5 87t61.5 225q0 145 -61 234t-161 89q-99 0 -160 -89t-61 -231z" />
<glyph unicode="e" horiz-adv-x="1044" d="M41 481q0 255 126 403t344 148q154 0 269.5 -78.5t166.5 -216.5q39 -115 39 -267q0 -33 -1 -45h-681q5 -127 38 -179q60 -88 173 -88q72 0 124.5 33.5t76.5 94.5h259q-44 -149 -172 -239t-298 -90q-215 0 -339.5 140t-124.5 384zM308 599h404q-8 95 -41 147 q-60 84 -164 84q-173 0 -199 -231z" />
<glyph unicode="f" horiz-adv-x="625" d="M26 819v175h143v122q0 128 64 191t195 63q78 0 151 -6v-197q-29 5 -75 5q-72 0 -72 -78v-100h156v-175h-156v-819h-263v819h-143z" />
<glyph unicode="g" horiz-adv-x="1148" d="M64 483q0 235 120.5 392t300.5 157q87 0 155 -41.5t127 -131.5v156h249v-1049q0 -179 -126 -277.5t-356 -98.5t-350 98q-51 42 -74.5 86.5t-24.5 103.5h272q32 -118 186 -118q99 0 161.5 57.5t62.5 148.5v137q-73 -83 -136 -114.5t-152 -31.5q-187 0 -301 144.5 t-114 381.5zM327 487q0 -138 58.5 -224t151.5 -86q103 0 168 86t65 224q0 141 -65 233t-164 92q-96 0 -155 -90.5t-59 -234.5z" />
<glyph unicode="h" horiz-adv-x="1148" d="M126 0v1370h263v-502q108 164 297 164q135 0 227 -78q103 -85 103 -274v-680h-263v620q0 49 -6 74.5t-24 51.5q-45 62 -131 62q-89 0 -146 -56t-57 -143v-609h-263z" />
<glyph unicode="i" horiz-adv-x="522" d="M126 0v1015h263v-1015h-263zM126 1135v235h263v-235h-263z" />
<glyph unicode="j" horiz-adv-x="522" d="M8 -190q22 -7 46 -7q42 0 60 18t18 61v1133h263v-1192q0 -123 -54.5 -178t-177.5 -55q-67 0 -155 10v210zM132 1135v235h263v-235h-263z" />
<glyph unicode="k" horiz-adv-x="1044" d="M111 0v1370h263v-750l332 395h299l-346 -384l371 -631h-309l-242 447l-105 -114v-333h-263z" />
<glyph unicode="l" horiz-adv-x="522" d="M126 0v1370h263v-1370h-263z" />
<glyph unicode="m" horiz-adv-x="1670" d="M113 0v1015h261v-126q65 78 128 110.5t150 32.5q95 0 167 -39.5t109 -111.5q59 79 130 115t167 36q152 0 237.5 -83t85.5 -231v-718h-263v676q0 61 -38.5 96.5t-104.5 35.5q-85 0 -132.5 -53t-47.5 -146v-609h-263v676q0 61 -38.5 96.5t-104.5 35.5q-85 0 -132.5 -53 t-47.5 -146v-609h-263z" />
<glyph unicode="n" horiz-adv-x="1148" d="M118 0v1015h263v-147q56 85 129.5 124.5t175.5 39.5q162 0 251 -92t89 -260v-680h-263v626q0 182 -169 182q-96 0 -154.5 -54.5t-58.5 -144.5v-609h-263z" />
<glyph unicode="o" horiz-adv-x="1148" d="M66 494q0 250 134 394t366 144q238 0 370.5 -143.5t132.5 -401.5q0 -244 -135.5 -387t-366.5 -143q-234 0 -367.5 143t-133.5 394zM329 494q0 -146 65.5 -235.5t172.5 -89.5q106 0 172.5 89.5t66.5 231.5q0 149 -65 239t-174 90q-107 0 -172.5 -89.5t-65.5 -235.5z" />
<glyph unicode="p" horiz-adv-x="1148" d="M109 -410v1425h263v-151q95 168 282 168q91 0 178 -44t138 -116q51 -70 79.5 -171t28.5 -209q0 -231 -120.5 -384t-303.5 -153q-189 0 -282 165v-530h-263zM372 492q0 -142 61.5 -229.5t160.5 -87.5q97 0 159 88t62 226q0 146 -60.5 234.5t-160.5 88.5 q-99 0 -160.5 -88.5t-61.5 -231.5z" />
<glyph unicode="q" horiz-adv-x="1148" d="M53 492q0 233 120.5 386.5t303.5 153.5q188 0 282 -168v151h263v-1425h-263v530q-92 -165 -284 -165q-90 0 -176 44t-137 116q-51 69 -80 169.5t-29 207.5zM316 492q0 -142 61 -229.5t160 -87.5t160.5 87t61.5 225q0 147 -61 236t-161 89q-99 0 -160 -88.5t-61 -231.5z " />
<glyph unicode="r" horiz-adv-x="730" d="M118 0v1015h263v-200q42 102 117 159.5t165 57.5q17 0 32 -2v-267q-42 7 -82 7q-232 0 -232 -231v-539h-263z" />
<glyph unicode="s" horiz-adv-x="1044" d="M54 295h258q8 -40 19 -60t32 -36q53 -36 156 -36q91 0 143 26.5t52 73.5q0 31 -19.5 49t-68.5 34l-314 97q-72 24 -105 41t-60 44q-57 62 -57 165q0 157 112 248t305 91q204 0 321.5 -91.5t120.5 -252.5h-254q-3 137 -190 137q-69 0 -110.5 -26t-41.5 -68q0 -30 18.5 -46 t73.5 -33l333 -96q199 -58 199 -255q0 -75 -32 -142t-88 -112q-113 -90 -323 -90q-231 0 -352.5 85.5t-127.5 252.5z" />
<glyph unicode="t" horiz-adv-x="625" d="M26 819v175h130v272h263v-272h147v-175h-147v-552q0 -68 17 -89.5t69 -21.5q22 0 61 6v-185q-63 -20 -153 -20q-257 0 -257 238v624h-130z" />
<glyph unicode="u" horiz-adv-x="1148" d="M109 308v707h263v-652q0 -183 169 -183q96 0 154 55t58 145v635h263v-1015h-263v120q-56 -85 -128.5 -124t-175.5 -39q-162 0 -251 91.5t-89 259.5z" />
<glyph unicode="v" horiz-adv-x="1044" d="M26 1015h278l220 -743l205 743h278l-349 -1015h-277z" />
<glyph unicode="w" horiz-adv-x="1461" d="M9 1015h273l161 -711l154 711h264l152 -711l154 711h272l-287 -1015h-273l-152 716l-161 -716h-271z" />
<glyph unicode="x" horiz-adv-x="1044" d="M30 0l338 511l-330 504h315l166 -307l163 307h316l-331 -504l338 -511h-315l-171 316l-173 -316h-316z" />
<glyph unicode="y" horiz-adv-x="1044" d="M17 1015h289l224 -739l210 739h271l-417 -1201q-32 -90 -63 -131t-86 -63q-73 -31 -189 -31q-48 0 -94 7v197q42 -11 69 -11q69 0 116.5 48.5t47.5 120.5v6v2z" />
<glyph unicode="z" horiz-adv-x="939" d="M39 0v212l502 590h-468v213h789v-213l-497 -590h514v-212h-840z" />
<glyph unicode="{" horiz-adv-x="730" d="M70 419v173h7h23q64 2 93 29.5t29 88.5v397q0 115 65 189t166 74h143v-186h-70q-44 0 -64 -25.5t-20 -81.5v-367q0 -103 -38.5 -146t-144.5 -59q106 -17 144.5 -60.5t38.5 -145.5v-367q0 -69 18 -95.5t66 -26.5h70v-186h-143q-101 0 -166 74t-65 189v395q0 55 -13 82.5 t-46 43.5q-24 9 -86 9z" />
<glyph unicode="|" horiz-adv-x="526" d="M188 -376v1746h150v-1746h-150z" />
<glyph unicode="}" horiz-adv-x="730" d="M135 -190h70q44 0 64 25.5t20 81.5v367q0 103 38.5 146t144.5 59q-106 17 -144.5 60.5t-38.5 145.5v367q0 69 -18 95.5t-66 26.5h-70v186h143q101 0 166 -74t65 -189v-395q0 -56 12.5 -83t45.5 -43q24 -9 87 -9l7 -2v-173h-7h-23q-64 -2 -93 -29.5t-29 -88.5v-397 q0 -115 -65 -189t-166 -74h-143v186z" />
<glyph unicode="~" horiz-adv-x="1097" d="M113 318q13 272 238 272q90 0 156 -47l107 -79q37 -27 61.5 -37t53.5 -10q67 0 90 51q8 20 10 73h146q-16 -274 -238 -274q-85 0 -156 49l-108 79q-60 45 -114 45q-67 0 -90 -51q-8 -20 -10 -71h-146z" />
<glyph unicode="&#xa3;" horiz-adv-x="1044" d="M58 150q118 80 162.5 141t44.5 143q0 63 -40 160h-167v103h113q-64 111 -82 161t-18 112q0 79 37 153.5t102 127.5q121 92 309 92q146 0 252 -53t157 -153q41 -79 53 -228h-248l-2 21q-8 64 -22 96t-44 58q-57 51 -145 51q-80 0 -132 -48t-52 -123q0 -28 8.5 -51.5 t42.5 -93.5q43 -88 56 -122h262v-103h-230q29 -62 29 -111q0 -82 -49 -154.5t-169 -166.5q89 42 129.5 55.5t80.5 13.5q39 0 120 -21q68 -18 119 -18q90 0 197 54l77 -205q-78 -46 -140 -65t-132 -19q-63 0 -186 30q-117 30 -185 30q-52 0 -96.5 -12.5t-107.5 -43.5z" />
<glyph unicode="&#x591;" d="M-235 -485q0 75 44 136.5t114 85.5v150h154v-150q70 -24 114 -85.5t44 -136.5h-139q0 40 -28 68t-68 28t-68 -28t-28 -68h-139z" />
<glyph unicode="&#x592;" d="M-199 1240h154v154h-154v-154zM-77 1451h154v154h-154v-154zM45 1240h154v154h-154v-154z" />
<glyph unicode="&#x593;" d="M-162 1146v105l139 55l-139 52v108l143 50l-143 55v107l324 -117v-95l-139 -55l139 -53v-97z" />
<glyph unicode="&#x594;" d="M-77 1240v154h154v-154h-154zM-77 1451v154h154v-154h-154z" />
<glyph unicode="&#x595;" d="M-194 1240v365h155v-365h-155zM39 1240v154h155v-154h-155zM39 1451v154h155v-154h-155z" />
<glyph unicode="&#x596;" d="M-165 -113h165q0 -115 44 -219t121 -181h-176q-75 75 -114.5 178.5t-39.5 221.5z" />
<glyph unicode="&#x597;" d="M-195 1402l195 195l195 -195l-195 -198z" />
<glyph unicode="&#x598;" d="M-312 1240h128v165q0 22 17.5 39.5t42.5 17.5q48 0 60 -60q18 -93 61 -137t127 -44q93 0 140.5 49.5t47.5 142.5v146h-132v-165q0 -22 -17 -39t-39 -17q-46 0 -58 60q-16 92 -61.5 136t-128.5 44q-93 0 -140.5 -49t-47.5 -142v-147z" />
<glyph unicode="&#x599;" d="M-165 1640h176q75 -75 114.5 -178.5t39.5 -221.5h-165q0 115 -44 219t-121 181z" />
<glyph unicode="&#x59a;" d="M-178 -284l246 246l110 -110l-135 -136l135 -135l-110 -111z" />
<glyph unicode="&#x59b;" d="M-222 -113h156v-154h-156v154zM-111 -513q79 77 123 181t44 219h166q0 -247 -156 -400h-177z" />
<glyph unicode="&#x59c;" d="M-165 1240q0 118 39.5 221.5t114.5 178.5h176q-77 -77 -121 -181t-44 -219h-165z" />
<glyph unicode="&#x59d;" d="M-165 1240q0 118 39.5 221.5t114.5 178.5h176q-77 -77 -121 -181t-44 -219h-165z" />
<glyph unicode="&#x59e;" d="M-297 1240q0 118 39.5 221.5t114.5 178.5h177q-78 -78 -122 -181.5t-44 -218.5h-165zM-34 1240q0 118 39.5 221.5t114.5 178.5h177q-77 -77 -121 -181t-44 -219h-166z" />
<glyph unicode="&#x59f;" d="M-489 1426q0 74 52.5 126.5t126.5 52.5q75 0 126.5 -52.5t51.5 -126.5v-11l104 -47l-57 -120l-103 47q-54 -47 -122 -47q-74 0 -126.5 51.5t-52.5 126.5zM-378 1426q0 -29 20 -49t48 -20q29 0 49.5 20.5t20.5 48.5t-20.5 48t-49.5 20q-28 0 -48 -20t-20 -48zM28 1368 l104 47v11q0 74 51.5 126.5t126.5 52.5q74 0 126.5 -52.5t52.5 -126.5q0 -75 -52.5 -126.5t-126.5 -51.5q-68 0 -122 47l-103 -47zM240 1426q0 -28 20.5 -48.5t49.5 -20.5q28 0 48 20t20 49q0 28 -20 48t-48 20q-29 0 -49.5 -20t-20.5 -48z" />
<glyph unicode="&#x5a0;" d="M-229 1368l103 47q-2 4 -2 11q0 74 53 126.5t126 52.5q75 0 126.5 -52.5t51.5 -126.5q0 -75 -51.5 -126.5t-126.5 -51.5q-67 0 -121 47l-103 -47zM-17 1426q0 -29 20 -49t48 -20q29 0 49 20.5t20 48.5t-20 48t-49 20t-48.5 -20t-19.5 -48z" />
<glyph unicode="&#x5a1;" d="M-222 1240v353h154v-131h45q45 0 75.5 31.5t30.5 75.5v24h139v-47q0 -92 -64.5 -157.5t-157.5 -65.5h-68v-83h-154z" />
<glyph unicode="&#x5a3;" d="M-235 -333h316v220h154v-376h-470v156z" />
<glyph unicode="&#x5a4;" d="M-178 -284l246 246l110 -110l-135 -136l135 -135l-110 -111z" />
<glyph unicode="&#x5a5;" d="M-165 -513q77 77 121 181t44 219h165q0 -118 -39.5 -221.5t-114.5 -178.5h-176z" />
<glyph unicode="&#x5a6;" d="M-297 -513q77 77 121 181t44 219h166q0 -118 -39.5 -221.5t-114.5 -178.5h-177zM-34 -513q78 78 122 181.5t44 218.5h165q0 -118 -39.5 -221.5t-114.5 -178.5h-177z" />
<glyph unicode="&#x5a7;" d="M-205 -113h410v-127h-182l182 -138v-107h-410v130h182l-182 137v105z" />
<glyph unicode="&#x5a8;" d="M-165 1640h176q75 -75 114.5 -178.5t39.5 -221.5h-165q0 115 -44 219t-121 181z" />
<glyph unicode="&#x5a9;" d="M-229 1426q0 74 51.5 126.5t126.5 52.5q73 0 126 -52.5t53 -126.5q0 -7 -2 -11l103 -47l-56 -120l-103 47q-54 -47 -121 -47q-75 0 -126.5 51.5t-51.5 126.5zM-120 1426q0 -28 20 -48.5t49 -20.5q28 0 48 20t20 49q0 28 -19.5 48t-48.5 20t-49 -20t-20 -48z" />
<glyph unicode="&#x5aa;" d="M-235 -113q0 -75 44 -136t114 -85v-151h154v151q70 24 114 85t44 136h-139q0 -40 -28 -68t-68 -28t-68 28t-28 68h-139z" />
<glyph unicode="&#x5ab;" d="M-178 1409l246 244l110 -110l-135 -134l135 -135l-110 -111z" />
<glyph unicode="&#x5ac;" d="M-235 1240v156h316v220h154v-376h-470z" />
<glyph unicode="&#x5ad;" d="M-165 -113h165q0 -115 44 -219t121 -181h-176q-75 75 -114.5 178.5t-39.5 221.5z" />
<glyph unicode="&#x5ae;" d="M-312 1240h128v165q0 22 17.5 39.5t42.5 17.5q48 0 60 -60q18 -93 61 -137t127 -44q93 0 140.5 49.5t47.5 142.5v146h-132v-165q0 -22 -17 -39t-39 -17q-46 0 -58 60q-16 92 -61.5 136t-128.5 44q-93 0 -140.5 -49t-47.5 -142v-147z" />
<glyph unicode="&#x5af;" d="M-224 1426q0 91 66 156.5t158 65.5t158 -65.5t66 -156.5q0 -93 -66 -158.5t-158 -65.5t-158 65.5t-66 158.5zM-85 1426q0 -35 25 -60.5t60 -25.5t60 25.5t25 60.5t-25 60t-60 25t-60 -25t-25 -60z" />
<glyph unicode="&#x5b0;" d="M-77 -113h154v-154h-154v154zM-77 -323h154v-154h-154v154z" />
<glyph unicode="&#x5b1;" d="M-327 -113h156v-154h-156v154zM-205 -323h156v-154h-156v154zM-83 -113h154v-154h-154v154zM171 -113h156v-154h-156v154zM171 -323h156v-154h-156v154z" />
<glyph unicode="&#x5b2;" d="M-321 -113h375v-154h-375v154zM165 -113h156v-154h-156v154zM165 -323h156v-154h-156v154z" />
<glyph unicode="&#x5b3;" d="M-321 -113h375v-154h-108v-199h-156v199h-111v154zM165 -113h156v-154h-156v154zM165 -323h156v-154h-156v154z" />
<glyph unicode="&#x5b4;" d="M-77 -113h154v-154h-154v154z" />
<glyph unicode="&#x5b5;" d="M-199 -113h154v-154h-154v154zM45 -113h154v-154h-154v154z" />
<glyph unicode="&#x5b6;" d="M-199 -113h154v-154h-154v154zM-77 -323h154v-154h-154v154zM45 -113h154v-154h-154v154z" />
<glyph unicode="&#x5b7;" d="M-244 -113h488v-154h-488v154z" />
<glyph unicode="&#x5b8;" d="M-244 -113h488v-154h-167v-199h-154v199h-167v154z" />
<glyph unicode="&#x5b9;" d="M-77 1240v154h154v-154h-154z" />
<glyph unicode="&#x5bb;" d="M-321 -113h156v-154h-156v154zM-77 -212h154v-154h-154v154zM165 -323h156v-154h-156v154z" />
<glyph unicode="&#x5bc;" d="M-77 483v154h154v-154h-154z" />
<glyph unicode="&#x5bd;" d="M-77 -113h154v-353h-154v353z" />
<glyph unicode="&#x5be;" horiz-adv-x="969" d="M118 911v216h716v-216h-716z" />
<glyph unicode="&#x5bf;" d="M-188 1240v154h376v-154h-376z" />
<glyph unicode="&#x5c0;" horiz-adv-x="558" d="M148 -188v1503h262v-1503h-262z" />
<glyph unicode="&#x5c1;" d="M1221 1201v154h154v-154h-154z" />
<glyph unicode="&#x5c2;" d="M190 1201v154h154v-154h-154z" />
<glyph unicode="&#x5c3;" horiz-adv-x="625" d="M212 0v274h282v-274h-282zM212 703v274h282v-274h-282z" />
<glyph unicode="&#x5c4;" d="M-77 1240v154h154v-154h-154z" />
<glyph unicode="&#x5d0;" horiz-adv-x="1341" d="M115 1127h302l382 -535q52 44 79.5 111t27.5 131v293h261v-313q0 -123 -64 -231t-167 -185l285 -398h-306l-378 535q-49 -40 -79 -110.5t-30 -146.5v-278h-261v297q0 128 64 242t167 190z" />
<glyph unicode="&#x5d1;" horiz-adv-x="1223" d="M145 0v216h569v470q0 93 -73.5 159t-176.5 66h-319v216h342q203 0 345.5 -124t142.5 -300v-487h171v-216h-1001z" />
<glyph unicode="&#x5d2;" horiz-adv-x="1044" d="M86 0l333 365h220l-36 313q-13 110 -80 171.5t-172 61.5h-137v216h160q200 0 333.5 -119.5t154.5 -304.5l81 -703h-263l-30 259l-239 -259h-325z" />
<glyph unicode="&#x5d3;" horiz-adv-x="1198" d="M118 911v216h945v-216h-155v-911h-262v911h-528z" />
<glyph unicode="&#x5d4;" horiz-adv-x="1281" d="M148 0v693h262v-693h-262zM148 911v216h513q203 0 346 -124t143 -300v-703h-261v686q0 93 -73.5 159t-176.5 66h-491z" />
<glyph unicode="&#x5d5;" horiz-adv-x="558" d="M148 0v1127h262v-1127h-262z" />
<glyph unicode="&#x5d6;" horiz-adv-x="832" d="M118 911v216h579v-216h-156v-911h-261v911h-162z" />
<glyph unicode="&#x5d7;" horiz-adv-x="1318" d="M148 0v1127h551q203 0 345.5 -124t142.5 -300v-703h-261v686q0 93 -73.5 159t-176.5 66h-266v-911h-262z" />
<glyph unicode="&#x5d8;" horiz-adv-x="1258" d="M143 396v731h261v-714q0 -93 70 -159t169 -66q100 0 170 66t70 159v282q0 93 -70 159.5t-170 66.5q-48 0 -91 -17v225q40 8 91 8q208 0 354.5 -124.5t146.5 -300.5v-316q0 -176 -146.5 -300t-354.5 -124q-136 0 -251 56.5t-182 154t-67 213.5z" />
<glyph unicode="&#x5d9;" horiz-adv-x="533" d="M137 519v608h261v-501z" />
<glyph unicode="&#x5da;" horiz-adv-x="1108" d="M116 911v216h373q203 0 345.5 -124t142.5 -300v-1079h-261v1062q0 93 -73.5 159t-176.5 66h-350z" />
<glyph unicode="&#x5db;" horiz-adv-x="1117" d="M143 0v216h349q103 0 176.5 66.5t73.5 159.5v244q0 93 -73.5 159t-176.5 66h-349v216h372q203 0 345.5 -124t142.5 -300v-278q0 -176 -142.5 -300.5t-345.5 -124.5h-372z" />
<glyph unicode="&#x5dc;" horiz-adv-x="1253" d="M116 911v498h262v-282h740v-353q0 -134 -68 -235q-38 -57 -89.5 -97t-94 -63t-52.5 -35q-28 -35 -36 -65t-8 -89v-190h-261v171q0 171 68 267q39 54 92 92.5t93.5 61.5t51.5 41q26 38 34.5 73t8.5 93v112h-741z" />
<glyph unicode="&#x5dd;" horiz-adv-x="1283" d="M150 0v1127h513q203 0 346 -124t143 -300v-703h-1002zM411 216h480v470q0 93 -73.5 159t-176.5 66h-230v-695z" />
<glyph unicode="&#x5de;" horiz-adv-x="1322" d="M126 911v216h575q203 0 345.5 -124t142.5 -300v-703h-507v216h246v470q0 93 -73.5 159t-176.5 66h-118l-135 -911h-263l135 911h-171z" />
<glyph unicode="&#x5df;" horiz-adv-x="558" d="M148 -376v1503h262v-1503h-262z" />
<glyph unicode="&#x5e0;" horiz-adv-x="806" d="M137 0v216h276v470q0 93 -73.5 159t-176.5 66h-5v216h28q203 0 346 -124t143 -300v-703h-538z" />
<glyph unicode="&#x5e1;" horiz-adv-x="1258" d="M143 396v731h513q203 0 345.5 -124t142.5 -300v-307q0 -176 -146.5 -300t-354.5 -124q-136 0 -251 56.5t-182 154t-67 213.5zM404 413q0 -93 70 -159t169 -66q100 0 170 66t70 159v273q0 93 -73.5 159t-176.5 66h-229v-498z" />
<glyph unicode="&#x5e2;" horiz-adv-x="1226" d="M113 -103v225l285 68l-212 937h267l197 -871q82 26 129.5 89t47.5 147v635h261v-654q0 -150 -112 -273t-268 -161z" />
<glyph unicode="&#x5e3;" horiz-adv-x="1241" d="M135 748v379h485q203 0 346 -124t143 -300v-1079h-262v1062q0 93 -73.5 159t-176.5 66h-201v-146q0 -40 31 -68t73 -28h99v-216h-122q-142 0 -242 86.5t-100 208.5z" />
<glyph unicode="&#x5e4;" horiz-adv-x="1240" d="M148 0v216h463q103 0 176.5 66.5t73.5 159.5v244q0 93 -73.5 159t-176.5 66h-201v-148q0 -40 30.5 -68t72.5 -28h100v-216h-123q-142 0 -242 86.5t-100 208.5v381h485q203 0 346 -124t143 -300v-278q0 -176 -143 -300.5t-346 -124.5h-485z" />
<glyph unicode="&#x5e5;" horiz-adv-x="1157" d="M51 1127h297l285 -447q67 8 97.5 57.5t30.5 121.5v268h261v-266q0 -151 -92 -260t-240 -133v-844h-262v913z" />
<glyph unicode="&#x5e6;" horiz-adv-x="1260" d="M115 1127h296l290 -447q66 11 96 59.5t30 119.5v268h261v-266q0 -132 -71 -233.5t-190 -142.5l312 -485h-977v216h541z" />
<glyph unicode="&#x5e7;" horiz-adv-x="1262" d="M150 -376v1073h261v-1073h-261zM150 911v216h975v-608q0 -176 -142.5 -300.5t-345.5 -124.5h-23v216h25q88 0 156.5 69t68.5 156v376h-714z" />
<glyph unicode="&#x5e8;" horiz-adv-x="1127" d="M118 911v216h389q203 0 346 -124t143 -300v-703h-261v686q0 93 -73.5 159t-176.5 66h-367z" />
<glyph unicode="&#x5e9;" horiz-adv-x="1578" d="M143 498v629h261v-520h128q53 0 90 35t37 85v400h262v-400q0 -139 -114 -237.5t-275 -98.5h-104q36 -78 115 -126.5t175 -48.5h148q130 0 221 82.5t91 199.5v629h261v-629q0 -135 -76.5 -249.5t-208.5 -181.5t-288 -67h-150q-156 0 -288 67t-208.5 181.5t-76.5 249.5z " />
<glyph unicode="&#x5ea;" horiz-adv-x="1401" d="M118 -8v224q33 -19 81 -19q57 0 79.5 36.5t22.5 125.5v552h-87v216h568q203 0 345.5 -124t142.5 -300v-703h-261v686q0 93 -73.5 159t-176.5 66h-197v-552q0 -190 -95.5 -284t-267.5 -94q-51 0 -81 11z" />
<glyph unicode="&#x5f0;" horiz-adv-x="1040" d="M148 0v1127h262v-1127h-262zM631 0v1127h261v-1127h-261z" />
<glyph unicode="&#x5f1;" horiz-adv-x="1033" d="M137 519v608h261v-501zM624 0v1127h261v-1127h-261z" />
<glyph unicode="&#x5f2;" horiz-adv-x="1018" d="M0 519v608h261v-501zM485 519v608h261v-501z" />
<glyph unicode="&#x5f3;" horiz-adv-x="447" d="M94 1125v245h259v-245l-79 -242h-105z" />
<glyph unicode="&#x5f4;" horiz-adv-x="890" d="M94 1125v245h259v-245l-79 -242h-105zM537 1125v245h260v-245l-79 -242h-105z" />
<glyph unicode="&#x5f5;" horiz-adv-x="558" d="M148 0v470h262v-470h-262zM148 676v451h262v-451h-262z" />
<glyph unicode="&#x5f6;" horiz-adv-x="806" d="M137 0v703q0 176 143 300t346 124h28v-216h-6q-103 0 -176.5 -66t-73.5 -159v-470h277v-216h-538z" />
<glyph unicode="&#x5f7;" horiz-adv-x="1262" d="M150 -376v1503h975v-608q0 -176 -142.5 -300.5t-345.5 -124.5h-23v216h25q88 0 156.5 69t68.5 156v376h-453v-1287h-261z" />
<glyph unicode="&#x200c;" />
<glyph unicode="&#x200d;" />
<glyph unicode="&#x200e;" />
<glyph unicode="&#x200f;" />
<glyph unicode="&#x2013;" horiz-adv-x="1044" d="M-17 389v195h1064v-195h-1064z" />
<glyph unicode="&#x2014;" horiz-adv-x="1878" d="M-13 389v195h1898v-195h-1898z" />
<glyph unicode="&#x2015;" horiz-adv-x="2254" d="M-13 389v195h2273v-195h-2273z" />
<glyph unicode="&#x2019;" horiz-adv-x="447" d="M94 1125v245h259v-245l-79 -242h-105z" />
<glyph unicode="&#x201a;" horiz-adv-x="447" d="M94 -11v244h259v-244l-79 -243h-105z" />
<glyph unicode="&#x201d;" horiz-adv-x="890" d="M94 1125v245h259v-245l-79 -242h-105zM537 1125v245h260v-245l-79 -242h-105z" />
<glyph unicode="&#x201e;" horiz-adv-x="890" d="M94 -11v244h259v-244l-79 -243h-105zM537 -11v244h260v-244l-79 -243h-105z" />
<glyph unicode="&#x20ac;" horiz-adv-x="1055" d="M11 470l45 127h76q-4 26 -4 66q0 39 2 62h-119l45 128h91q53 241 193.5 374t343.5 133q109 0 192 -20t161 -74l-75 -219q-53 39 -109 54t-135 15q-125 0 -201.5 -72t-95.5 -191h471l-45 -128h-451q-5 -37 -5 -77q0 -32 4 -51h407l-47 -127h-340q21 -111 98 -187t199 -76 q127 0 203 43l96 -207q-72 -46 -151.5 -63.5t-181.5 -17.5q-202 0 -340 133t-191 375h-136z" />
<glyph unicode="&#xe000;" horiz-adv-x="1014" d="M0 0v1015h1015v-1015h-1015z" />
<glyph unicode="&#xfb1d;" horiz-adv-x="533" d="M137 519v608h261v-501zM194 267v154h154v-154h-154z" />
<glyph unicode="&#xfb1e;" d="M-252 1389l143 65q38 -56 109 -56q70 0 109 58l143 -67q-38 -67 -105 -108t-147 -41t-147 41t-105 108z" />
<glyph unicode="&#xfb1f;" horiz-adv-x="1018" d="M0 519v608h261v-501zM256 263v154h488v-154h-488zM485 519v608h261v-501z" />
<glyph unicode="&#xfb20;" horiz-adv-x="1226" d="M162 0v216h231l-207 911h267l205 -905q69 13 119 74.5t50 137.5v693h261v-693q0 -180 -136 -307t-328 -127h-462z" />
<glyph unicode="&#xfb21;" horiz-adv-x="2374" d="M115 1127h460l1060 -710q57 36 106 80.5t96.5 105.5t75.5 140.5t28 167.5v216h261v-265q0 -93 -32 -182.5t-86 -162.5t-119 -131t-137 -100l427 -286h-461l-1059 710q-57 -36 -106.5 -80t-97.5 -105t-75.5 -141t-27.5 -168v-216h-261v265q0 93 32 183t85.5 163t118 131 t136.5 100z" />
<glyph unicode="&#xfb22;" horiz-adv-x="2232" d="M118 911v216h1979v-216h-156v-911h-261v911h-1562z" />
<glyph unicode="&#xfb23;" horiz-adv-x="2314" d="M148 0v693h262v-693h-262zM148 911v216h1547q203 0 345.5 -124t142.5 -300v-703h-261v686q0 93 -73.5 159t-176.5 66h-1524z" />
<glyph unicode="&#xfb24;" horiz-adv-x="2151" d="M143 0v216h1383q103 0 176.5 66.5t73.5 159.5v244q0 93 -73.5 159t-176.5 66h-1383v216h1405q203 0 346 -124t143 -300v-278q0 -176 -143 -300.5t-346 -124.5h-1405z" />
<glyph unicode="&#xfb25;" horiz-adv-x="2286" d="M116 911v498h262v-282h1773v-353q0 -38 -11.5 -72.5t-27.5 -60t-46 -51.5t-52 -42t-61.5 -36t-59 -29t-59.5 -26q-36 -16 -55.5 -25t-52 -26t-51 -30.5t-41.5 -34.5t-35.5 -42.5t-21 -49.5t-8.5 -59v-190h-261v201q0 71 47.5 145.5t108.5 126.5t126 87q31 17 82.5 39.5 t83.5 39t66.5 41t51 58t16.5 77.5v96h-1774z" />
<glyph unicode="&#xfb26;" horiz-adv-x="2316" d="M150 0v1127h1547q203 0 345.5 -124t142.5 -300v-703h-2035zM411 216h1513v470q0 93 -73.5 159t-176.5 66h-1263v-695z" />
<glyph unicode="&#xfb27;" horiz-adv-x="2160" d="M118 911v216h1423q203 0 345.5 -124t142.5 -300v-703h-261v686q0 93 -73.5 159t-176.5 66h-1400z" />
<glyph unicode="&#xfb28;" horiz-adv-x="2435" d="M118 -8v224q33 -19 81 -19q57 0 79.5 36.5t22.5 125.5v552h-87v216h1601q203 0 346 -124t143 -300v-703h-262v686q0 93 -73.5 159t-176.5 66h-1230v-552q0 -190 -95.5 -284t-267.5 -94q-51 0 -81 11z" />
<glyph unicode="&#xfb29;" horiz-adv-x="1097" d="M94 323v224h342v342h223v-342h342v-224h-907z" />
<glyph unicode="&#xfb2a;" horiz-adv-x="1578" d="M143 498v629h261v-520h128q53 0 90 35t37 85v400h262v-400q0 -139 -114 -237.5t-275 -98.5h-104q36 -78 115 -126.5t175 -48.5h148q130 0 221 82.5t91 199.5v629h261v-629q0 -135 -76.5 -249.5t-208.5 -181.5t-288 -67h-150q-156 0 -288 67t-208.5 181.5t-76.5 249.5z M1221 1201v154h154v-154h-154z" />
<glyph unicode="&#xfb2b;" horiz-adv-x="1578" d="M143 498v629h261v-520h128q53 0 90 35t37 85v400h262v-400q0 -139 -114 -237.5t-275 -98.5h-104q36 -78 115 -126.5t175 -48.5h148q130 0 221 82.5t91 199.5v629h261v-629q0 -135 -76.5 -249.5t-208.5 -181.5t-288 -67h-150q-156 0 -288 67t-208.5 181.5t-76.5 249.5z M190 1201v154h154v-154h-154z" />
<glyph unicode="&#xfb2c;" horiz-adv-x="1578" d="M0 498v629h261v-520h128q53 0 90.5 35t37.5 85v400h261v-400q0 -139 -114 -237.5t-275 -98.5h-103q36 -78 114.5 -126.5t174.5 -48.5h148q130 0 221 82.5t91 199.5v629h261v-629q0 -135 -76.5 -249.5t-208.5 -181.5t-288 -67h-150q-156 0 -288 67t-208.5 181.5 t-76.5 249.5zM748 340v154h154v-154h-154zM1221 1201v154h154v-154h-154z" />
<glyph unicode="&#xfb2d;" horiz-adv-x="1578" d="M0 498v629h261v-520h128q53 0 90.5 35t37.5 85v400h261v-400q0 -139 -114 -237.5t-275 -98.5h-103q36 -78 114.5 -126.5t174.5 -48.5h148q130 0 221 82.5t91 199.5v629h261v-629q0 -135 -76.5 -249.5t-208.5 -181.5t-288 -67h-150q-156 0 -288 67t-208.5 181.5 t-76.5 249.5zM190 1201v154h154v-154h-154zM748 340v154h154v-154h-154z" />
<glyph unicode="&#xfb2e;" horiz-adv-x="1341" d="M115 1127h302l382 -535q52 44 79.5 111t27.5 131v293h261v-313q0 -123 -64 -231t-167 -185l285 -398h-306l-378 535q-49 -40 -79 -110.5t-30 -146.5v-278h-261v297q0 128 64 242t167 190zM417 -113h489v-154h-489v154z" />
<glyph unicode="&#xfb2f;" horiz-adv-x="1341" d="M115 1127h302l382 -535q52 44 79.5 111t27.5 131v293h261v-313q0 -123 -64 -231t-167 -185l285 -398h-306l-378 535q-49 -40 -79 -110.5t-30 -146.5v-278h-261v297q0 128 64 242t167 190zM413 -113h489v-154h-167v-199h-154v199h-168v154z" />
<glyph unicode="&#xfb30;" horiz-adv-x="1341" d="M115 1127h302l382 -535q52 44 79.5 111t27.5 131v293h261v-313q0 -123 -64 -231t-167 -185l285 -398h-306l-378 535q-49 -40 -79 -110.5t-30 -146.5v-278h-261v297q0 128 64 242t167 190zM507 133v154h154v-154h-154z" />
<glyph unicode="&#xfb31;" horiz-adv-x="1223" d="M145 0v216h569v470q0 93 -73.5 159t-176.5 66h-319v216h342q203 0 345.5 -124t142.5 -300v-487h171v-216h-1001zM406 483v154h154v-154h-154z" />
<glyph unicode="&#xfb32;" horiz-adv-x="1044" d="M86 0l333 365h220l-36 313q-13 110 -80 171.5t-172 61.5h-137v216h160q200 0 333.5 -119.5t154.5 -304.5l81 -703h-263l-30 259l-239 -259h-325zM355 483v154h154v-154h-154z" />
<glyph unicode="&#xfb33;" horiz-adv-x="1198" d="M118 911v216h945v-216h-155v-911h-262v911h-528zM387 483v154h154v-154h-154z" />
<glyph unicode="&#xfb34;" horiz-adv-x="1281" d="M148 0v693h262v-693h-262zM148 911v216h513q203 0 346 -124t143 -300v-703h-261v686q0 93 -73.5 159t-176.5 66h-491zM573 483v154h154v-154h-154z" />
<glyph unicode="&#xfb35;" horiz-adv-x="689" d="M56 483v154h154v-154h-154zM280 0v1127h261v-1127h-261z" />
<glyph unicode="&#xfb36;" horiz-adv-x="832" d="M49 483v154h154v-154h-154zM118 911v216h579v-216h-156v-911h-261v911h-162z" />
<glyph unicode="&#xfb37;" horiz-adv-x="1318" d="M148 0v1127h551q203 0 345.5 -124t142.5 -300v-703h-261v686q0 93 -73.5 159t-176.5 66h-266v-911h-262zM588 483v154h154v-154h-154z" />
<glyph unicode="&#xfb38;" horiz-adv-x="1258" d="M143 396v731h261v-714q0 -93 70 -159t169 -66q100 0 170 66t70 159v282q0 93 -70 159.5t-170 66.5q-48 0 -91 -17v225q40 8 91 8q208 0 354.5 -124.5t146.5 -300.5v-316q0 -176 -146.5 -300t-354.5 -124q-136 0 -251 56.5t-182 154t-67 213.5zM564 483v154h154v-154h-154 z" />
<glyph unicode="&#xfb39;" horiz-adv-x="665" d="M64 667v154h154v-154h-154zM269 519v608h261v-501z" />
<glyph unicode="&#xfb3a;" horiz-adv-x="1108" d="M116 911v216h373q203 0 345.5 -124t142.5 -300v-1079h-261v1062q0 93 -73.5 159t-176.5 66h-350zM406 483v154h154v-154h-154z" />
<glyph unicode="&#xfb3b;" horiz-adv-x="1117" d="M143 0v216h349q103 0 176.5 66.5t73.5 159.5v244q0 93 -73.5 159t-176.5 66h-349v216h372q203 0 345.5 -124t142.5 -300v-278q0 -176 -142.5 -300.5t-345.5 -124.5h-372zM398 483v154h154v-154h-154z" />
<glyph unicode="&#xfb3c;" horiz-adv-x="1253" d="M116 911v498h262v-282h740v-353q0 -134 -68 -235q-38 -57 -89.5 -97t-94 -63t-52.5 -35q-28 -35 -36 -65t-8 -89v-190h-261v171q0 171 68 267q39 54 92 92.5t93.5 61.5t51.5 41q26 38 34.5 73t8.5 93v112h-741zM436 633v154h154v-154h-154z" />
<glyph unicode="&#xfb3d;" horiz-adv-x="1283" d="M150 0v1127h513q203 0 346 -124t143 -300v-703h-1002zM411 216h480v470q0 93 -73.5 159t-176.5 66h-230v-695zM577 483v154h154v-154h-154z" />
<glyph unicode="&#xfb3e;" horiz-adv-x="1322" d="M126 911v216h575q203 0 345.5 -124t142.5 -300v-703h-507v216h246v470q0 93 -73.5 159t-176.5 66h-118l-135 -911h-263l135 911h-171zM631 483v154h154v-154h-154z" />
<glyph unicode="&#xfb3f;" horiz-adv-x="636" d="M2 483v154h154v-154h-154zM227 -376v1503h262v-1503h-262z" />
<glyph unicode="&#xfb40;" horiz-adv-x="806" d="M137 0v216h276v470q0 93 -73.5 159t-176.5 66h-5v216h28q203 0 346 -124t143 -300v-703h-538zM145 483v154h154v-154h-154z" />
<glyph unicode="&#xfb41;" horiz-adv-x="1258" d="M143 396v731h513q203 0 345.5 -124t142.5 -300v-307q0 -176 -146.5 -300t-354.5 -124q-136 0 -251 56.5t-182 154t-67 213.5zM404 413q0 -93 70 -159t169 -66q100 0 170 66t70 159v273q0 93 -73.5 159t-176.5 66h-229v-498zM564 483v154h154v-154h-154z" />
<glyph unicode="&#xfb42;" horiz-adv-x="1226" d="M113 -103v225l285 68l-212 937h267l197 -871q82 26 129.5 89t47.5 147v635h261v-654q0 -150 -112 -273t-268 -161zM614 678v154h154v-154h-154z" />
<glyph unicode="&#xfb43;" horiz-adv-x="1241" d="M135 748v379h485q203 0 346 -124t143 -300v-1079h-262v1062q0 93 -73.5 159t-176.5 66h-201v-146q0 -40 31 -68t73 -28h99v-216h-122q-142 0 -242 86.5t-100 208.5zM637 590v154h154v-154h-154z" />
<glyph unicode="&#xfb44;" horiz-adv-x="1240" d="M148 0v216h463q103 0 176.5 66.5t73.5 159.5v244q0 93 -73.5 159t-176.5 66h-201v-148q0 -40 30.5 -68t72.5 -28h100v-216h-123q-142 0 -242 86.5t-100 208.5v381h485q203 0 346 -124t143 -300v-278q0 -176 -143 -300.5t-346 -124.5h-485zM661 577v154h154v-154h-154z " />
<glyph unicode="&#xfb45;" horiz-adv-x="1157" d="M51 1127h297l285 -447q67 8 97.5 57.5t30.5 121.5v268h261v-266q0 -151 -92 -260t-240 -133v-844h-262v913zM558 859v154h154v-154h-154z" />
<glyph unicode="&#xfb46;" horiz-adv-x="1260" d="M115 1127h296l290 -447q66 11 96 59.5t30 119.5v268h261v-266q0 -132 -71 -233.5t-190 -142.5l312 -485h-977v216h541zM222 385v154h154v-154h-154z" />
<glyph unicode="&#xfb47;" horiz-adv-x="1262" d="M150 -376v1073h261v-1073h-261zM150 911v216h975v-608q0 -176 -142.5 -300.5t-345.5 -124.5h-23v216h25q88 0 156.5 69t68.5 156v376h-714zM552 534v154h154v-154h-154z" />
<glyph unicode="&#xfb48;" horiz-adv-x="1127" d="M118 911v216h389q203 0 346 -124t143 -300v-703h-261v686q0 93 -73.5 159t-176.5 66h-367zM445 483v154h154v-154h-154z" />
<glyph unicode="&#xfb49;" horiz-adv-x="1578" d="M0 498v629h261v-520h128q53 0 90.5 35t37.5 85v400h261v-400q0 -139 -114 -237.5t-275 -98.5h-103q36 -78 114.5 -126.5t174.5 -48.5h148q130 0 221 82.5t91 199.5v629h261v-629q0 -135 -76.5 -249.5t-208.5 -181.5t-288 -67h-150q-156 0 -288 67t-208.5 181.5 t-76.5 249.5zM748 340v154h154v-154h-154z" />
<glyph unicode="&#xfb4a;" horiz-adv-x="1401" d="M118 -8v224q33 -19 81 -19q57 0 79.5 36.5t22.5 125.5v552h-87v216h568q203 0 345.5 -124t142.5 -300v-703h-261v686q0 93 -73.5 159t-176.5 66h-197v-552q0 -190 -95.5 -284t-267.5 -94q-51 0 -81 11zM725 483v154h154v-154h-154z" />
<glyph unicode="&#xfb4b;" horiz-adv-x="558" d="M148 0v1127h262v-1127h-262zM195 1240v154h154v-154h-154z" />
<glyph unicode="&#xfb4c;" horiz-adv-x="1223" d="M145 0v216h569v470q0 93 -73.5 159t-176.5 66h-319v216h342q203 0 345.5 -124t142.5 -300v-487h171v-216h-1001zM316 1246v154h375v-154h-375z" />
<glyph unicode="&#xfb4d;" horiz-adv-x="1117" d="M143 0v216h349q103 0 176.5 66.5t73.5 159.5v244q0 93 -73.5 159t-176.5 66h-349v216h372q203 0 345.5 -124t142.5 -300v-278q0 -176 -142.5 -300.5t-345.5 -124.5h-372zM319 1240v154h376v-154h-376z" />
<glyph unicode="&#xfb4e;" horiz-adv-x="1240" d="M148 0v216h463q103 0 176.5 66.5t73.5 159.5v244q0 93 -73.5 159t-176.5 66h-201v-148q0 -40 30.5 -68t72.5 -28h100v-216h-123q-142 0 -242 86.5t-100 208.5v381h485q203 0 346 -124t143 -300v-278q0 -176 -143 -300.5t-346 -124.5h-485zM400 1240v154h376v-154h-376z " />
<glyph unicode="&#xfb4f;" horiz-adv-x="1341" d="M156 1069v340h261v-282l382 -535q52 44 79.5 111t27.5 131v293h261v-313q0 -123 -64 -231t-167 -185l285 -398h-306z" />
</font>
</defs>
</svg>
