<?xml version="1.0" standalone="no"?>
<!DOCTYPE svg PUBLIC "-//W3C//DTD SVG 1.1//EN" "http://www.w3.org/Graphics/SVG/1.1/DTD/svg11.dtd" >
<svg xmlns="http://www.w3.org/2000/svg">
<metadata></metadata>
<defs>
<font id="nachlieli_clmlight" horiz-adv-x="0" >
<font-face units-per-em="2048" ascent="1638" descent="-410" />
<missing-glyph horiz-adv-x="563" />
<glyph horiz-adv-x="2048" />
<glyph horiz-adv-x="2048" />
<glyph unicode="&#xd;" horiz-adv-x="2048" />
<glyph unicode=" "  horiz-adv-x="563" />
<glyph unicode="&#x09;" horiz-adv-x="563" />
<glyph unicode="&#xa0;" horiz-adv-x="563" />
<glyph unicode="!" horiz-adv-x="522" d="M233 0v195h158v-195h-158zM235 735v635h156v-635l-42 -419h-73z" />
<glyph unicode="&#x22;" horiz-adv-x="667" d="M98 1124v208h174v-208l-50 -252h-74zM398 1124v208h175v-208l-51 -252h-73z" />
<glyph unicode="#" horiz-adv-x="1044" d="M26 359v128h214l59 327h-203v127h227l68 369h143l-68 -369h235l66 369h144l-67 -369h174v-127h-199l-58 -327h197v-128h-220l-73 -397h-143l72 397h-233l-74 -397h-142l71 397h-190zM383 487h235l58 327h-233z" />
<glyph unicode="$" horiz-adv-x="1044" d="M62 391h148q8 -91 17 -128t30 -69q67 -91 200 -108v511q-103 31 -151.5 51t-85.5 47q-134 97 -134 275q0 160 95.5 256t275.5 119v102h110v-102q170 -13 267.5 -111.5t97.5 -258.5h-148q-1 102 -61.5 168t-155.5 71v-468q130 -40 170 -54.5t77 -35.5q159 -90 159 -290 q0 -110 -45.5 -201t-127.5 -142q-89 -55 -233 -66v-194h-110v194q-199 13 -302 125.5t-93 308.5zM239 988q0 -170 218 -227v451q-104 -14 -161 -72.5t-57 -151.5zM567 86q61 7 100.5 22.5t72.5 47.5q79 76 79 188q0 93 -54 144t-198 93v-495z" />
<glyph unicode="%" horiz-adv-x="1670" d="M54 966q0 132 94 226.5t226 94.5q135 0 228 -94t93 -231q0 -130 -94 -224t-225 -94q-133 0 -227.5 94.5t-94.5 227.5zM184 966q0 -77 56.5 -133.5t135.5 -56.5q77 0 133.5 55.5t56.5 132.5q0 80 -56 136t-136 56q-78 0 -134 -56t-56 -134zM402 -38l742 1370h124 l-742 -1370h-124zM973 286q0 131 94.5 225t225.5 94q135 0 228 -94t93 -229q0 -130 -94.5 -224t-224.5 -94q-133 0 -227.5 94.5t-94.5 227.5zM1103 286q0 -79 56.5 -134.5t135.5 -55.5q77 0 133 55t56 131q0 80 -55.5 135.5t-135.5 55.5q-78 0 -134 -55t-56 -132z" />
<glyph unicode="&#x26;" horiz-adv-x="1253" d="M98 331q0 128 64.5 213.5t239.5 186.5q-87 111 -119.5 175.5t-32.5 130.5q0 124 93.5 209.5t227.5 85.5t220 -82.5t86 -212.5q0 -101 -56.5 -172.5t-202.5 -154.5l250 -306q61 107 58 224h151q0 -177 -109 -344l229 -284h-205l-116 147q-91 -90 -145 -123 q-106 -67 -248 -67q-173 0 -279 102.5t-106 271.5zM256 344q0 -99 72.5 -170t173.5 -71q74 0 139 35.5t144 118.5l-300 376q-128 -81 -178.5 -145.5t-50.5 -143.5zM404 1039q0 -50 23 -90.5t108 -138.5q111 69 152.5 118.5t41.5 112.5q0 69 -46.5 114.5t-116.5 45.5 q-74 0 -118 -44.5t-44 -117.5z" />
<glyph unicode="'" horiz-adv-x="415" d="M120 934v71q49 7 70.5 47t19.5 122h-90v196h175v-190q0 -112 -45 -175.5t-130 -70.5z" />
<glyph unicode="(" horiz-adv-x="625" d="M137 487q0 222 82.5 460.5t223.5 422.5h104q-124 -200 -191 -429.5t-67 -453.5q0 -225 67 -454t191 -431h-104q-141 184 -223.5 423t-82.5 462z" />
<glyph unicode=")" horiz-adv-x="625" d="M71 -398q124 200 191 429.5t67 453.5q0 225 -67 454t-191 431h104q141 -184 223.5 -423t82.5 -462q0 -222 -82.5 -460.5t-223.5 -422.5h-104z" />
<glyph unicode="*" horiz-adv-x="730" d="M75 1120l36 111l199 -72l-9 211h118l-9 -211l199 72l35 -111l-202 -57l131 -167l-96 -67l-116 174l-119 -174l-94 67l130 167z" />
<glyph unicode="+" horiz-adv-x="1097" d="M94 370v132h389v389h131v-389h389v-132h-389v-389h-131v389h-389z" />
<glyph unicode="," horiz-adv-x="522" d="M163 0v195h198v-225q0 -246 -198 -246v71q66 3 89.5 38.5t23.5 132.5v34h-113z" />
<glyph unicode="-" horiz-adv-x="625" d="M86 451v135h448v-135h-448z" />
<glyph unicode="." horiz-adv-x="522" d="M163 0v195h196v-195h-196z" />
<glyph unicode="/" horiz-adv-x="522" d="M-15 -38l445 1408h104l-446 -1408h-103z" />
<glyph unicode="0" horiz-adv-x="1044" d="M81 644q0 368 129 542q53 69 133.5 107.5t173.5 38.5q95 0 174.5 -38t131.5 -108q130 -177 130 -553q0 -328 -112 -502t-324 -174q-214 0 -325 175t-111 512zM250 643q0 -549 263 -549q138 0 204.5 135.5t66.5 418.5q0 538 -267 538t-267 -543z" />
<glyph unicode="1" horiz-adv-x="1044" d="M192 949v118q69 9 111.5 16.5t80 21.5t58.5 29.5t41 45t32 63.5t28 89h109v-1332h-165v949h-295z" />
<glyph unicode="2" horiz-adv-x="1044" d="M64 0q11 220 88.5 339.5t285.5 237.5l173 98q180 104 180 263q0 107 -75 178t-188 71q-75 0 -136 -34t-93 -95q-31 -59 -40 -188h-165q3 102 19.5 169t51.5 120q112 173 369 173q185 0 302 -105q59 -53 91.5 -128t32.5 -158q0 -249 -282 -402l-188 -101 q-122 -72 -174.5 -132.5t-65.5 -142.5h701v-163h-887z" />
<glyph unicode="3" horiz-adv-x="1044" d="M60 387h165q8 -145 76.5 -214.5t203.5 -69.5q130 0 203.5 71t73.5 196q0 120 -70 181.5t-207 61.5l-69 -2h-21v141q160 3 220 28q107 44 107 180q0 106 -62.5 166.5t-172.5 60.5q-77 0 -135.5 -31.5t-87.5 -86.5q-27 -53 -30 -167h-166q4 213 109.5 321.5t307.5 108.5 q191 0 298.5 -97t107.5 -269q0 -202 -186 -276q120 -40 173 -115.5t53 -202.5q0 -189 -123 -302t-328 -113q-279 0 -382 193q-47 88 -58 237z" />
<glyph unicode="4" horiz-adv-x="1044" d="M53 319v175l605 838h122v-864h197v-149h-197v-319h-166v319h-561zM197 468h417v582z" />
<glyph unicode="5" horiz-adv-x="1044" d="M66 327h165q58 -224 273 -224q135 0 213 82t78 226q0 148 -78.5 234t-212.5 86q-78 0 -133 -27.5t-112 -96.5h-152l100 725h687v-163h-554l-53 -372q110 80 247 80q192 0 311 -123t119 -320q0 -211 -127.5 -344t-329.5 -133q-113 0 -208.5 42t-151.5 117q-29 36 -46 82 t-35 129z" />
<glyph unicode="6" horiz-adv-x="1044" d="M81 607q0 181 29 309t91 226q60 89 154 139.5t203 50.5q153 0 253.5 -92t124.5 -255h-166q-19 96 -77.5 148.5t-145.5 52.5q-142 0 -218.5 -131t-78.5 -375q108 149 306 149q179 0 293.5 -118.5t114.5 -304.5q0 -196 -123 -322.5t-313 -126.5q-225 0 -334 165 q-59 89 -86 203.5t-27 281.5zM259 402q0 -128 77.5 -213.5t193.5 -85.5q114 0 189.5 82.5t75.5 207.5q0 133 -70 211t-190 78q-122 0 -199 -78t-77 -202z" />
<glyph unicode="7" horiz-adv-x="1044" d="M86 1169v163h891v-139q-226 -301 -356 -587t-185 -606h-177q75 329 192 579.5t355 589.5h-720z" />
<glyph unicode="8" horiz-adv-x="1044" d="M70 370q0 222 227 331q-102 64 -141.5 124t-39.5 152q0 157 112.5 256t288.5 99q177 0 288.5 -99t111.5 -256q0 -94 -39.5 -154t-142.5 -122q229 -109 229 -333q0 -181 -125 -296t-322 -115t-322 115t-125 298zM239 366q0 -117 76 -190t198 -73q127 0 204.5 72.5 t77.5 190.5q0 117 -77 189.5t-201 72.5t-201 -72.5t-77 -189.5zM286 975q0 -94 63.5 -151t167.5 -57t167.5 56.5t63.5 149.5q0 98 -62.5 155.5t-168.5 57.5q-104 0 -167.5 -57.5t-63.5 -153.5z" />
<glyph unicode="9" horiz-adv-x="1044" d="M71 883q0 196 123 322.5t313 126.5q224 0 337 -165q59 -88 85.5 -202.5t26.5 -282.5q0 -182 -29 -310t-93 -225q-58 -89 -152.5 -139.5t-204.5 -50.5q-153 0 -253 92t-124 255h165q19 -96 78 -148.5t146 -52.5q142 0 218 131t78 375q-65 -78 -137.5 -113.5t-166.5 -35.5 q-180 0 -295 118.5t-115 304.5zM240 896q0 -133 70 -211t190 -78q121 0 198.5 79t77.5 201q0 129 -77.5 214.5t-193.5 85.5q-114 0 -189.5 -82.5t-75.5 -208.5z" />
<glyph unicode=":" horiz-adv-x="522" d="M207 0v195h195v-195h-195zM207 789v196h195v-196h-195z" />
<glyph unicode=";" horiz-adv-x="522" d="M207 0v195h197v-225q0 -246 -197 -246v71q66 3 89 38t23 133v34h-112zM209 789v196h195v-196h-195z" />
<glyph unicode="&#x3c;" horiz-adv-x="1097" d="M85 372v130l918 389v-149l-740 -302l740 -308v-149z" />
<glyph unicode="=" horiz-adv-x="1097" d="M94 209v131h909v-131h-909zM94 532v131h909v-131h-909z" />
<glyph unicode="&#x3e;" horiz-adv-x="1097" d="M94 -17v149l740 302l-740 308v149l919 -389v-130z" />
<glyph unicode="?" horiz-adv-x="1044" d="M145 953q0 217 104 328t307 111q183 0 291.5 -97.5t108.5 -262.5q0 -93 -41 -167t-147 -170q-96 -88 -122 -129.5t-26 -103.5v-88h-169v103q0 51 12 87.5t41 76.5q25 33 43 51.5t99 91.5q75 66 108 124.5t33 123.5q0 96 -66 155t-174 59q-155 0 -211 -109 q-32 -63 -32 -184h-159zM451 0v195h169v-195h-169z" />
<glyph unicode="@" horiz-adv-x="1907" d="M64 485q0 184 79.5 362t217.5 303q124 113 290.5 177.5t334.5 64.5q161 0 309.5 -56t256 -150t171.5 -223.5t64 -269.5q0 -110 -42.5 -219.5t-119.5 -199.5q-142 -167 -349 -167q-181 0 -207 145q-65 -71 -128.5 -103.5t-138.5 -32.5q-131 0 -218.5 98.5t-87.5 245.5 q0 133 67.5 254t179.5 194t236 73q157 0 229 -164l41 124h156l-169 -526q-22 -63 -22 -94q0 -34 28 -58t66 -24q78 0 151.5 61.5t118.5 162t45 208.5q0 116 -53 222.5t-142 184t-211.5 124t-254.5 46.5q-146 0 -282 -60t-236 -159t-160 -235t-60 -281q0 -177 92.5 -322.5 t254 -229t357.5 -83.5q148 0 363 60l52 -126q-209 -79 -424 -79q-234 0 -430.5 100.5t-310.5 273.5t-114 378zM665 458q0 -93 54.5 -157t131.5 -64q108 0 192 122q35 53 66.5 152t34.5 169q5 76 -46 128.5t-130 52.5q-118 0 -210.5 -122.5t-92.5 -280.5z" />
<glyph unicode="A" horiz-adv-x="1253" d="M32 0l488 1370h226l481 -1370h-195l-141 411h-528l-145 -411h-186zM406 558h436l-211 624z" />
<glyph unicode="B" horiz-adv-x="1253" d="M148 0v1370h557q193 0 296 -96q109 -98 109 -252q0 -211 -189 -299q131 -51 190.5 -129.5t59.5 -202.5q0 -165 -106 -276q-106 -115 -298 -115h-619zM323 154h427q122 0 182 66q64 67 64 169q0 104 -64 171q-60 66 -182 66h-427v-472zM323 780h338q74 0 119.5 11t80.5 38 q75 58 75 169t-75 169q-35 27 -80.5 38t-119.5 11h-338v-436z" />
<glyph unicode="C" horiz-adv-x="1356" d="M90 669q0 166 49.5 308.5t142.5 243.5q153 171 434 171q226 0 357 -110.5t171 -336.5h-179q-16 77 -38.5 124.5t-60.5 82.5q-42 40 -115 63t-156 23q-199 0 -314.5 -152t-115.5 -415q0 -257 120.5 -408.5t324.5 -151.5q111 0 194.5 46t125.5 130q40 78 62 213h180 q-61 -543 -564 -543q-266 0 -419 159q-97 99 -148 241.5t-51 311.5z" />
<glyph unicode="D" horiz-adv-x="1356" d="M167 0v1370h528q261 0 409.5 -182.5t148.5 -501.5q0 -320 -149 -503t-409 -183h-528zM342 154h323q203 0 308 135t105 395q0 262 -105 397t-308 135h-323v-1062z" />
<glyph unicode="E" horiz-adv-x="1253" d="M169 0v1370h949v-154h-774v-438h746v-154h-746v-470h808v-154h-983z" />
<glyph unicode="F" horiz-adv-x="1148" d="M169 0v1370h919v-154h-744v-438h654v-154h-654v-624h-175z" />
<glyph unicode="G" horiz-adv-x="1461" d="M83 671q0 184 64.5 337.5t183.5 252.5q159 131 409 131q236 0 386 -115t187 -323h-178q-28 133 -134 208.5t-263 75.5q-217 0 -349 -153t-132 -405q0 -127 38.5 -241.5t106.5 -188.5q61 -66 151.5 -102.5t194.5 -36.5q187 0 308.5 119t121.5 302v37h-417v154h571v-731 h-111l-43 183q-196 -218 -468 -218q-277 0 -452 199t-175 515z" />
<glyph unicode="H" horiz-adv-x="1356" d="M156 0v1370h175v-592h704v592h175v-1370h-175v624h-702v-624h-177z" />
<glyph unicode="I" horiz-adv-x="522" d="M188 0v1370h177v-1370h-177z" />
<glyph unicode="J" horiz-adv-x="939" d="M32 319v121h178v-89q0 -120 53 -184t152 -64q53 0 97.5 22.5t69.5 62.5q44 65 44 218v964h174v-1028q0 -178 -104 -281.5t-283 -103.5q-176 0 -278.5 97.5t-102.5 264.5z" />
<glyph unicode="K" horiz-adv-x="1253" d="M148 0v1370h175v-694l682 694h226l-558 -558l563 -812h-206l-483 703l-224 -224v-479h-175z" />
<glyph unicode="L" horiz-adv-x="1044" d="M150 0v1370h175v-1216h676v-154h-851z" />
<glyph unicode="M" horiz-adv-x="1565" d="M141 0v1370h242l406 -1193l398 1193h243v-1370h-166v1148l-385 -1148h-184l-389 1148v-1148h-165z" />
<glyph unicode="N" horiz-adv-x="1356" d="M143 0v1370h190l715 -1120v1120h166v-1370h-198l-708 1110v-1110h-165z" />
<glyph unicode="O" horiz-adv-x="1461" d="M71 675q0 212 82.5 375t233 252.5t344.5 89.5q301 0 482 -198.5t181 -530.5q0 -168 -63 -318t-174 -244q-170 -144 -424 -144q-296 0 -479 198.5t-183 519.5zM246 675q0 -253 134.5 -408.5t352.5 -155.5q217 0 351.5 154t134.5 402q0 260 -132.5 415.5t-355.5 155.5 q-217 0 -351 -155t-134 -408z" />
<glyph unicode="P" horiz-adv-x="1253" d="M171 0v1370h566q203 0 312.5 -104.5t109.5 -297.5q0 -95 -28 -164.5t-90 -125.5q-107 -97 -265 -97h-430v-581h-175zM346 735h364q125 0 196 63.5t71 176.5t-71 177t-196 64h-364v-481z" />
<glyph unicode="Q" horiz-adv-x="1461" d="M71 675q0 321 183 519t479 198t478.5 -197.5t182.5 -516.5q0 -323 -193 -535l176 -145l-88 -109l-197 164q-161 -96 -359 -96q-296 0 -479 198.5t-183 519.5zM246 675q0 -254 133.5 -409t351.5 -155q114 0 225 52l-139 117l87 105l167 -137q148 169 148 428 q0 252 -134 407t-352 155t-352.5 -155t-134.5 -408z" />
<glyph unicode="R" horiz-adv-x="1356" d="M175 0v1370h631q202 0 309.5 -94.5t107.5 -272.5q0 -117 -50.5 -194t-165.5 -133q111 -48 148 -118t38 -239q3 -138 18.5 -190.5t64.5 -85.5v-43h-213q-39 91 -39 224l2 122q0 127 -54.5 185.5t-171.5 58.5h-451v-590h-174zM349 744h423q139 0 204 56.5t65 178.5 q0 125 -71 184q-60 53 -198 53h-423v-472z" />
<glyph unicode="S" horiz-adv-x="1253" d="M90 436h166v-10q0 -118 71 -201q95 -114 316 -114q169 0 251 58q44 31 71 83.5t27 106.5q0 80 -61 134t-191 88l-340 90q-268 70 -268 319q0 186 130 294t356 108q237 0 369 -111t133 -313h-166q-2 134 -90 206t-251 72q-138 0 -222.5 -63.5t-84.5 -167.5 q0 -78 51 -123.5t175 -79.5l344 -92q140 -38 215.5 -127.5t75.5 -216.5q0 -89 -41 -174t-110 -140q-136 -105 -385 -105q-317 0 -460 195q-41 57 -60.5 123.5t-20.5 160.5z" />
<glyph unicode="T" horiz-adv-x="1148" d="M39 1216v154h1075v-154h-449v-1216h-175v1216h-451z" />
<glyph unicode="U" horiz-adv-x="1356" d="M160 408v962h174v-962q0 -148 100 -226q100 -71 250 -71q165 0 259 79.5t94 217.5v962h175v-962q0 -206 -143.5 -328.5t-384.5 -122.5q-243 0 -383.5 121t-140.5 330z" />
<glyph unicode="V" horiz-adv-x="1253" d="M56 1370h188l402 -1160l380 1160h186l-475 -1370h-188z" />
<glyph unicode="W" horiz-adv-x="1773" d="M41 1370h196l257 -1113l305 1113h187l312 -1113l252 1113h195l-347 -1370h-192l-315 1125l-307 -1125h-191z" />
<glyph unicode="X" horiz-adv-x="1253" d="M41 0l485 703l-455 667h213l351 -538l353 538h209l-462 -667l484 -703h-216l-374 571l-375 -571h-213z" />
<glyph unicode="Y" horiz-adv-x="1253" d="M24 1370h216l403 -667l390 667h209l-515 -833v-537h-175v537z" />
<glyph unicode="Z" horiz-adv-x="1148" d="M53 0v154l823 1062h-771v154h987v-158l-820 -1058h823v-154h-1042z" />
<glyph unicode="[" horiz-adv-x="522" d="M120 -398v1768h350v-136h-194v-1497h194v-135h-350z" />
<glyph unicode="\" horiz-adv-x="522" d="M-15 1370h103l446 -1408h-104z" />
<glyph unicode="]" horiz-adv-x="522" d="M43 -263h194v1497h-194v136h350v-1768h-350v135z" />
<glyph unicode="^" horiz-adv-x="881" d="M83 618l287 714h137l292 -714h-130l-229 564l-228 -564h-129z" />
<glyph unicode="_" horiz-adv-x="1044" d="M-41 -237h1127v-94h-1127v94z" />
<glyph unicode="`" horiz-adv-x="417" d="M122 896v190q0 111 45.5 175t129.5 71v-71q-93 -13 -90 -169h90v-196h-175z" />
<glyph unicode="a" horiz-adv-x="1044" d="M79 248q0 192 173 263q47 19 100.5 29.5t214.5 30.5q92 11 128 35t36 74v41q0 71 -57 109t-163 38q-110 0 -165.5 -42.5t-65.5 -132.5h-158q3 73 18.5 120t49.5 85q50 55 135 85t192 30q181 0 275.5 -69t94.5 -200v-579q0 -37 22 -57t62 -20q17 0 34 4v-118 q-67 -17 -107 -17q-76 0 -114.5 34.5t-46.5 109.5q-83 -76 -162.5 -110t-172.5 -34q-149 0 -236 78.5t-87 212.5zM242 252q0 -75 51 -116.5t143 -41.5q136 0 233 88q35 32 48.5 60t13.5 68v177q-40 -18 -85 -28t-167 -27q-125 -18 -181 -60.5t-56 -119.5z" />
<glyph unicode="b" horiz-adv-x="1044" d="M101 0v1370h156v-519q107 162 305 162q194 0 307.5 -139t113.5 -378q0 -245 -117.5 -392t-311.5 -147q-202 0 -312 169v-126h-141zM257 485q0 -173 75.5 -277.5t199.5 -104.5q128 0 207.5 104t79.5 272q0 176 -78 281.5t-209 105.5q-124 0 -199.5 -104t-75.5 -277z" />
<glyph unicode="c" horiz-adv-x="939" d="M58 475q0 245 119.5 391.5t318.5 146.5q102 0 187 -39t136 -108q55 -78 66 -212h-158q-14 103 -74 158.5t-159 55.5q-128 0 -200 -104t-72 -289q0 -175 73 -274.5t203 -99.5q201 0 240 237h158q-14 -180 -120 -280.5t-282 -100.5q-200 0 -318 140t-118 378z" />
<glyph unicode="d" horiz-adv-x="1044" d="M49 494q0 236 115.5 377.5t307.5 141.5q202 0 302 -152v509h156v-1370h-139v130q-64 -91 -138 -132t-176 -41q-199 0 -313.5 143.5t-114.5 393.5zM212 485q0 -172 79 -277t209 -105q124 0 199 104t75 274q0 176 -74.5 280.5t-201.5 104.5q-128 0 -207 -104.5t-79 -276.5z " />
<glyph unicode="e" horiz-adv-x="1044" d="M75 479q0 243 123 388.5t328 145.5q138 0 244 -69t154 -191q40 -104 40 -313h-725q2 -75 13 -122.5t39 -88.5q82 -128 237 -128q192 0 257 198h158q-29 -161 -140.5 -251.5t-280.5 -90.5q-207 0 -327 140t-120 382zM242 567h553q2 4 2 12q0 122 -79 205.5t-194 83.5 q-118 0 -195 -82t-87 -219z" />
<glyph unicode="f" horiz-adv-x="522" d="M34 857v128h131v167q0 106 61 164.5t170 58.5q48 0 89 -9v-130q-36 2 -55 2q-109 0 -109 -99v-154h164v-128h-164v-857h-156v857h-131z" />
<glyph unicode="g" horiz-adv-x="1044" d="M54 475q0 240 116 389t303 149q185 0 301 -171v143h145v-823q0 -173 -24 -276t-80 -170q-48 -59 -137 -92.5t-199 -33.5q-173 0 -276.5 78.5t-116.5 218.5h160q7 -43 20 -67t40 -45q67 -53 179 -53q72 0 129.5 24.5t88.5 67.5q56 78 56 269v50q-66 -93 -136 -134.5 t-163 -41.5q-78 0 -153 34.5t-129 96.5q-124 144 -124 387zM218 485q0 -179 73 -281.5t201 -102.5q124 0 195.5 101t71.5 277q0 184 -71 286.5t-198 102.5q-125 0 -198.5 -103t-73.5 -280z" />
<glyph unicode="h" horiz-adv-x="1044" d="M132 0v1370h155v-521q69 90 140.5 127t175.5 37q144 0 227 -72.5t83 -196.5v-744h-156v682q0 102 -64 148q-62 46 -139 46q-121 0 -194 -91t-73 -242v-543h-155z" />
<glyph unicode="i" horiz-adv-x="417" d="M124 1172v198h158v-198h-158zM126 0v985h156v-985h-156z" />
<glyph unicode="j" horiz-adv-x="417" d="M-34 -271q16 -1 38 -1q72 0 100 28t28 101v1128h155v-1190q0 -100 -68 -152.5t-200 -52.5q-24 0 -53 6v133zM132 1172v198h155v-198h-155z" />
<glyph unicode="k" horiz-adv-x="939" d="M109 0v1370h156v-803l417 418h201l-342 -341l402 -644h-193l-333 534l-152 -151v-383h-156z" />
<glyph unicode="l" horiz-adv-x="417" d="M128 0v1370h158v-1370h-158z" />
<glyph unicode="m" horiz-adv-x="1565" d="M132 0v985h144v-139q64 89 134.5 128t168.5 39q96 0 158.5 -36t106.5 -115q69 84 136 117.5t166 33.5q138 0 212 -71t74 -204v-738h-158v678q0 93 -48 145.5t-134 52.5q-96 0 -163.5 -75.5t-67.5 -182.5v-618h-158v678q0 94 -48 146t-135 52q-96 0 -163.5 -75.5 t-67.5 -182.5v-618h-157z" />
<glyph unicode="n" horiz-adv-x="1044" d="M132 0v985h144v-166q65 103 141 148.5t186 45.5q142 0 227 -73.5t85 -195.5v-744h-156v682q0 89 -55 141.5t-148 52.5q-121 0 -194 -91t-73 -242v-543h-157z" />
<glyph unicode="o" horiz-adv-x="1044" d="M68 485q0 248 118 388t325 140q213 0 330 -140.5t117 -395.5q0 -242 -119 -381t-326 -139q-210 0 -327.5 140t-117.5 388zM231 485q0 -179 75.5 -281.5t206.5 -102.5q130 0 206 102.5t76 275.5q0 183 -74.5 286t-207.5 103q-131 0 -206.5 -102.5t-75.5 -280.5z" />
<glyph unicode="p" horiz-adv-x="1044" d="M101 -410v1395h145v-149q111 177 314 177q196 0 309.5 -145t113.5 -393q0 -235 -115 -376.5t-306 -141.5q-96 0 -168.5 35t-134.5 111v-513h-158zM259 485q0 -173 75.5 -277.5t199.5 -104.5q128 0 206.5 104t78.5 272q0 176 -77.5 281.5t-207.5 105.5q-124 0 -199.5 -104 t-75.5 -277z" />
<glyph unicode="q" horiz-adv-x="1044" d="M49 473q0 245 117 392.5t311 147.5q97 0 178 -41.5t136 -118.5v132h139v-1395h-156v523q-55 -80 -128.5 -118t-175.5 -38q-194 0 -307.5 138.5t-113.5 377.5zM212 485q0 -172 79 -277t209 -105q124 0 199 103.5t75 272.5q0 178 -74.5 282.5t-199.5 104.5 q-129 0 -208.5 -105t-79.5 -276z" />
<glyph unicode="r" horiz-adv-x="625" d="M130 0v985h144v-179q67 110 130 158.5t139 48.5q21 0 60 -6v-160q-83 -2 -126 -11.5t-79 -36.5q-111 -80 -111 -288v-511h-157z" />
<glyph unicode="s" horiz-adv-x="939" d="M64 293h165q11 -86 45 -126q63 -66 196 -66q103 0 166 43t63 112q0 53 -35.5 85.5t-116.5 51.5l-147 35q-174 42 -243 105t-69 179q0 137 103 219t275 82q170 0 262.5 -78.5t94.5 -224.5h-165q-3 77 -53.5 117.5t-144.5 40.5q-96 0 -152 -40t-56 -108q0 -52 43 -85 t139 -56l150 -36q147 -35 212.5 -99.5t65.5 -174.5q0 -143 -109.5 -227.5t-295.5 -84.5q-193 0 -290 83t-103 253z" />
<glyph unicode="t" horiz-adv-x="522" d="M26 857v128h134v270h156v-270h161v-128h-161v-675q0 -52 17.5 -70t68.5 -18q50 0 75 7v-131q-77 -13 -128 -13q-91 0 -140 40.5t-49 115.5v744h-134z" />
<glyph unicode="u" horiz-adv-x="1044" d="M122 225v760h156v-698q0 -88 55 -140.5t148 -52.5q122 0 195.5 91t73.5 242v558h156v-985h-141v137q-69 -97 -144.5 -138.5t-184.5 -41.5q-144 0 -229 73t-85 195z" />
<glyph unicode="v" horiz-adv-x="939" d="M19 985h176l263 -799l279 799h176l-378 -985h-170z" />
<glyph unicode="w" horiz-adv-x="1356" d="M11 985h173l201 -767l188 767h192l193 -767l196 767h176l-289 -985h-179l-199 772l-190 -772h-176z" />
<glyph unicode="x" horiz-adv-x="939" d="M32 0l348 502l-329 483h178l237 -357l237 357h176l-330 -476l340 -509h-183l-246 378l-250 -378h-178z" />
<glyph unicode="y" horiz-adv-x="939" d="M38 985h167l252 -767l272 767h169l-438 -1192q-23 -59 -46.5 -94t-60.5 -62q-64 -47 -146 -47q-59 0 -106 25v141q51 -12 83 -12q50 0 79 22t47 74l60 156z" />
<glyph unicode="z" horiz-adv-x="939" d="M58 0v141l588 706h-548v138h734v-139l-584 -709h611v-137h-801z" />
<glyph unicode="{" horiz-adv-x="627" d="M81 421v130q83 17 114.5 72.5t31.5 186.5v314q0 117 53.5 181.5t151.5 64.5h87v-122h-29q-69 0 -93.5 -26t-24.5 -100v-340q0 -130 -34 -195.5t-120 -99.5q79 -37 116.5 -108.5t37.5 -188.5v-340q0 -74 24.5 -100t93.5 -26h29v-122h-87q-98 0 -151.5 64.5t-53.5 181.5 v314q0 130 -31.5 186t-114.5 73z" />
<glyph unicode="|" horiz-adv-x="488" d="M188 -398v1768h113v-1768h-113z" />
<glyph unicode="}" horiz-adv-x="627" d="M54 -276h31q70 0 95 26t25 100v340q0 117 37.5 188.5t116.5 106.5q-79 37 -116.5 109.5t-37.5 187.5v340q0 74 -25 100t-95 26h-31v122h89q99 0 152.5 -64.5t53.5 -181.5v-314q0 -129 31 -185.5t112 -73.5v-130q-81 -17 -112 -73.5t-31 -185.5v-314q0 -117 -53.5 -181.5 t-152.5 -64.5h-89v122z" />
<glyph unicode="~" horiz-adv-x="1097" d="M141 551q7 132 59 202t144 70q50 0 101 -30l220 -130q53 -32 94 -32q53 0 75 33t21 108h99v-30q0 -109 -53.5 -173.5t-143.5 -64.5q-74 0 -152 48l-184 119q-15 9 -41 17.5t-40 8.5q-53 0 -84 -66q-11 -26 -16 -80h-99z" />
<glyph unicode="&#xa3;" horiz-adv-x="1044" d="M49 603v103h152q-65 108 -82.5 154t-17.5 108q0 170 129.5 286t318.5 116q119 0 214 -49.5t146 -136.5q50 -86 53 -250h-165q-9 289 -256 289q-120 0 -192.5 -65.5t-72.5 -174.5q0 -53 14.5 -93t66.5 -131q9 -9 30 -53h301v-103h-256q28 -80 28 -133q0 -74 -47.5 -151 t-173.5 -204q109 73 229 73q68 0 154 -28q100 -30 148 -30q76 0 156 56l79 -124q-57 -55 -115 -80t-131 -25q-52 0 -104 12.5t-170 53.5q-60 20 -124 20q-101 0 -205 -69l-90 124q129 111 182 191.5t53 167.5q0 70 -45 146h-207z" />
<glyph unicode="&#x591;" d="M-224 -485q0 74 44.5 132.5t113.5 81.5v158h132v-158q69 -23 113.5 -81.5t44.5 -132.5h-117q0 43 -31.5 75t-75.5 32t-75.5 -32t-31.5 -75h-117z" />
<glyph unicode="&#x592;" d="M-188 1240v133h134v-133h-134zM-66 1473v132h132v-132h-132zM54 1240v133h134v-133h-134z" />
<glyph unicode="&#x593;" d="M-162 1146v96l164 64l-164 62v88l170 60l-170 64v98l324 -117v-86l-164 -64l164 -62v-88z" />
<glyph unicode="&#x594;" d="M-66 1240v133h132v-133h-132zM-66 1473v132h132v-132h-132z" />
<glyph unicode="&#x595;" d="M-184 1240v365h131v-365h-131zM49 1240v133h135v-133h-135zM49 1473v132h135v-132h-135z" />
<glyph unicode="&#x596;" d="M-154 -113h143q0 -115 44 -219t121 -181h-154q-75 75 -114.5 178.5t-39.5 221.5z" />
<glyph unicode="&#x597;" d="M-178 1419l178 178l178 -178l-178 -179z" />
<glyph unicode="&#x598;" d="M-301 1240v160q0 74 52 126t125 52q75 0 126.5 -52t51.5 -126q0 -28 20.5 -48t49.5 -20q28 0 48 20t20 48v159h109v-159q0 -74 -52 -126.5t-125 -52.5q-75 0 -126.5 52.5t-51.5 126.5q0 28 -20.5 47.5t-49.5 19.5t-48.5 -19.5t-19.5 -47.5v-160h-109z" />
<glyph unicode="&#x599;" d="M-154 1640h154q75 -75 114.5 -178.5t39.5 -221.5h-143q0 115 -44 219t-121 181z" />
<glyph unicode="&#x59a;" d="M-162 -301l230 230l94 -94l-136 -136l136 -135l-94 -94z" />
<glyph unicode="&#x59b;" d="M-205 -113h134v-133h-134v133zM-105 -513q79 77 123 181t44 219h143q0 -247 -156 -400h-154z" />
<glyph unicode="&#x59c;" d="M-154 1240q0 118 39.5 221.5t114.5 178.5h154q-77 -77 -121 -181t-44 -219h-143z" />
<glyph unicode="&#x59d;" d="M-154 1240q0 118 39.5 221.5t114.5 178.5h154q-77 -77 -121 -181t-44 -219h-143z" />
<glyph unicode="&#x59e;" d="M-286 1240q0 118 39.5 221.5t114.5 178.5h155q-78 -78 -122 -181.5t-44 -218.5h-143zM-23 1240q0 118 40 221.5t115 178.5h154q-78 -78 -122 -181.5t-44 -218.5h-143z" />
<glyph unicode="&#x59f;" d="M-489 1426q0 74 52.5 126.5t126.5 52.5q75 0 126.5 -52.5t51.5 -126.5v-11l104 -47l-57 -120l-103 47q-54 -47 -122 -47q-74 0 -126.5 51.5t-52.5 126.5zM-395 1426q0 -35 25 -60.5t60 -25.5t60.5 25.5t25.5 60.5t-25.5 60t-60.5 25t-60 -25t-25 -60zM28 1368l104 47v11 q0 74 51.5 126.5t126.5 52.5q74 0 126.5 -52.5t52.5 -126.5q0 -75 -52.5 -126.5t-126.5 -51.5q-68 0 -122 47l-103 -47zM224 1426q0 -35 25.5 -60.5t60.5 -25.5t60 25.5t25 60.5t-25 60t-60 25t-60.5 -25t-25.5 -60z" />
<glyph unicode="&#x5a0;" d="M-229 1368l103 47q-2 4 -2 11q0 74 53 126.5t126 52.5q75 0 126.5 -52.5t51.5 -126.5q0 -75 -51.5 -126.5t-126.5 -51.5q-67 0 -121 47l-103 -47zM-34 1426q0 -35 25 -60.5t60 -25.5t60.5 25.5t25.5 60.5t-25.5 60t-60.5 25t-60 -25t-25 -60z" />
<glyph unicode="&#x5a1;" d="M-210 1240v353h131v-142h68q44 0 74.5 31.5t30.5 75.5v35h116v-35q0 -92 -64.5 -158t-156.5 -66h-68v-94h-131z" />
<glyph unicode="&#x5a3;" d="M-235 -355h338v242h132v-376h-470v134z" />
<glyph unicode="&#x5a4;" d="M-162 -301l230 230l94 -94l-136 -136l136 -135l-94 -94z" />
<glyph unicode="&#x5a5;" d="M-154 -513q77 77 121 181t44 219h143q0 -118 -39.5 -221.5t-114.5 -178.5h-154z" />
<glyph unicode="&#x5a6;" d="M-286 -513q78 78 122 181.5t44 218.5h143q0 -118 -40 -221.5t-115 -178.5h-154zM-23 -513q78 78 122 181.5t44 218.5h143q0 -118 -39.5 -221.5t-114.5 -178.5h-155z" />
<glyph unicode="&#x5a7;" d="M-186 -113h372v-105h-212l212 -160v-107h-372v107h212l-212 160v105z" />
<glyph unicode="&#x5a8;" d="M-154 1640h154q75 -75 114.5 -178.5t39.5 -221.5h-143q0 115 -44 219t-121 181z" />
<glyph unicode="&#x5a9;" d="M-229 1426q0 74 51.5 126.5t126.5 52.5q73 0 126 -52.5t53 -126.5q0 -7 -2 -11l103 -47l-56 -120l-103 47q-54 -47 -121 -47q-75 0 -126.5 51.5t-51.5 126.5zM-137 1426q0 -35 25.5 -60.5t60.5 -25.5t60 25.5t25 60.5t-25 60t-60 25t-60.5 -25t-25.5 -60z" />
<glyph unicode="&#x5aa;" d="M-224 -113h117q0 -43 31.5 -75t75.5 -32t75.5 32t31.5 75h117q0 -74 -44.5 -132.5t-113.5 -81.5v-158h-132v158q-69 23 -113.5 81.5t-44.5 132.5z" />
<glyph unicode="&#x5ab;" d="M-162 1424l230 229l94 -94l-136 -135l136 -135l-94 -94z" />
<glyph unicode="&#x5ac;" d="M-235 1240v133h338v243h132v-376h-470z" />
<glyph unicode="&#x5ad;" d="M-154 -113h143q0 -115 44 -219t121 -181h-154q-75 75 -114.5 178.5t-39.5 221.5z" />
<glyph unicode="&#x5ae;" d="M-301 1240v160q0 74 52 126t125 52q75 0 126.5 -52t51.5 -126q0 -28 20.5 -48t49.5 -20q28 0 48 20t20 48v159h109v-159q0 -74 -52 -126.5t-125 -52.5q-75 0 -126.5 52.5t-51.5 126.5q0 28 -20.5 47.5t-49.5 19.5t-48.5 -19.5t-19.5 -47.5v-160h-109z" />
<glyph unicode="&#x5af;" d="M-224 1426q0 91 66 156.5t158 65.5t158 -65.5t66 -156.5q0 -93 -66 -158.5t-158 -65.5t-158 65.5t-66 158.5zM-107 1426q0 -45 31.5 -76t75.5 -31t75.5 31t31.5 76q0 44 -31.5 75.5t-75.5 31.5t-75.5 -31.5t-31.5 -75.5z" />
<glyph unicode="&#x5b0;" d="M-66 -113h132v-133h-132v133zM-66 -346h132v-131h-132v131z" />
<glyph unicode="&#x5b1;" d="M-316 -113h134v-133h-134v133zM-194 -346h134v-131h-134v131zM-71 -113h131v-133h-131v133zM182 -113h134v-133h-134v133zM182 -346h134v-131h-134v131z" />
<glyph unicode="&#x5b2;" d="M-310 -113h355v-133h-355v133zM177 -113h133v-133h-133v133zM177 -346h133v-131h-133v131z" />
<glyph unicode="&#x5b3;" d="M-310 -113h355v-133h-111v-220h-133v220h-111v133zM177 -113h133v-133h-133v133zM177 -346h133v-131h-133v131z" />
<glyph unicode="&#x5b4;" d="M-66 -113h132v-133h-132v133z" />
<glyph unicode="&#x5b5;" d="M-188 -113h134v-133h-134v133zM54 -113h134v-133h-134v133z" />
<glyph unicode="&#x5b6;" d="M-188 -113h134v-133h-134v133zM-66 -346h132v-131h-132v131zM54 -113h134v-133h-134v133z" />
<glyph unicode="&#x5b7;" d="M-235 -113h470v-133h-470v133z" />
<glyph unicode="&#x5b8;" d="M-235 -113h470v-133h-169v-220h-132v220h-169v133z" />
<glyph unicode="&#x5b9;" d="M-66 1240v133h132v-133h-132z" />
<glyph unicode="&#x5bb;" d="M-310 -113h133v-133h-133v133zM-66 -224h132v-131h-132v131zM177 -346h133v-131h-133v131z" />
<glyph unicode="&#x5bc;" d="M-66 507v134h132v-134h-132z" />
<glyph unicode="&#x5bd;" d="M-66 -113h132v-353h-132v353z" />
<glyph unicode="&#x5be;" horiz-adv-x="764" d="M71 985v142h592v-142h-592z" />
<glyph unicode="&#x5bf;" d="M-188 1240v133h376v-133h-376z" />
<glyph unicode="&#x5c0;" horiz-adv-x="417" d="M126 -188v1503h163v-1503h-163z" />
<glyph unicode="&#x5c1;" d="M1201 1202v134h133v-134h-133z" />
<glyph unicode="&#x5c2;" d="M132 1202v134h133v-134h-133z" />
<glyph unicode="&#x5c3;" horiz-adv-x="522" d="M207 0v195h195v-195h-195zM207 789v196h195v-196h-195z" />
<glyph unicode="&#x5c4;" d="M-66 1240v133h132v-133h-132z" />
<glyph unicode="&#x5d0;" horiz-adv-x="1211" d="M118 1127h192l428 -608q88 64 137 147.5t49 179.5v281h164v-281q0 -139 -71.5 -257t-193.5 -191l280 -398h-192l-428 611q-85 -61 -135.5 -155.5t-50.5 -190.5v-265h-164v265q0 133 74.5 265t188.5 203z" />
<glyph unicode="&#x5d1;" horiz-adv-x="1132" d="M122 0v143h652v554q0 119 -114.5 203.5t-276.5 84.5h-261v142h273q148 0 273 -55.5t197.5 -151.5t72.5 -210v-567h139v-143h-955z" />
<glyph unicode="&#x5d2;" horiz-adv-x="894" d="M66 0l389 381h152l-41 320q-17 135 -114 209.5t-230 74.5h-40v142h55q120 0 224.5 -48.5t177.5 -144t90 -222.5l94 -712h-165l-44 323l-328 -323h-220z" />
<glyph unicode="&#x5d3;" horiz-adv-x="1142" d="M81 985v142h949v-142h-156v-985h-164v985h-629z" />
<glyph unicode="&#x5d4;" horiz-adv-x="1187" d="M128 0v705h163v-705h-163zM128 985v142h481q196 0 333.5 -122t137.5 -295v-710h-163v699q0 118 -94 202t-227 84h-468z" />
<glyph unicode="&#x5d5;" horiz-adv-x="417" d="M126 0v1127h163v-1127h-163z" />
<glyph unicode="&#x5d6;" horiz-adv-x="678" d="M83 985v142h483v-142h-156v-985h-164v985h-163z" />
<glyph unicode="&#x5d7;" horiz-adv-x="1226" d="M128 0v1127h520q196 0 334 -122t138 -295v-710h-164v699q0 118 -94 202t-227 84h-344v-985h-163z" />
<glyph unicode="&#x5d8;" horiz-adv-x="1161" d="M124 402v725h163v-714q0 -119 91 -202t223 -83q133 0 224.5 83t91.5 202v301q0 119 -91.5 202.5t-224.5 83.5q-77 0 -146 -32v154q72 20 146 20q129 0 239 -55.5t175 -152t65 -209.5v-323q0 -113 -65 -209.5t-175 -152t-239 -55.5q-195 0 -336 122.5t-141 294.5z" />
<glyph unicode="&#x5d9;" horiz-adv-x="394" d="M118 537v590h164v-524z" />
<glyph unicode="&#x5da;" horiz-adv-x="1007" d="M81 985v142h347q196 0 334 -122t138 -295v-1086h-163v1075q0 118 -94.5 202t-227.5 84h-334z" />
<glyph unicode="&#x5db;" horiz-adv-x="1052" d="M116 0v143h309q162 0 276 84t114 203v267q0 119 -114 203.5t-276 84.5h-309v142h320q148 0 273 -55.5t197.5 -151.5t72.5 -210v-293q0 -114 -72.5 -210t-197.5 -151.5t-273 -55.5h-320z" />
<glyph unicode="&#x5dc;" horiz-adv-x="1146" d="M79 985v424h163v-282h791v-287q0 -69 -14.5 -120t-52.5 -119q-33 -53 -75.5 -90.5t-75.5 -64t-47 -55.5q-50 -87 -50 -205v-186h-164v199q3 142 68 256q26 42 59 75t57 50.5t47 39.5t34 45q30 51 40.5 88t10.5 96v136h-791z" />
<glyph unicode="&#x5dd;" horiz-adv-x="1189" d="M128 0v1127h411q148 0 273 -55.5t197.5 -151.5t72.5 -210v-710h-954zM291 143h628v554q0 119 -114.5 203.5t-276.5 84.5h-237v-842z" />
<glyph unicode="&#x5de;" horiz-adv-x="1185" d="M100 985v142h437q148 0 273 -55.5t197.5 -151.5t72.5 -210v-710h-560v143h397v554q0 119 -114.5 203.5t-276.5 84.5h-115l-108 -985h-166l109 985h-146z" />
<glyph unicode="&#x5df;" horiz-adv-x="417" d="M126 -376v1503h163v-1503h-163z" />
<glyph unicode="&#x5e0;" horiz-adv-x="729" d="M105 0v143h353v556q0 117 -90.5 201.5t-209.5 84.5h-26v142h41q115 0 218.5 -55.5t167 -152t63.5 -209.5v-710h-517z" />
<glyph unicode="&#x5e1;" horiz-adv-x="1159" d="M124 402v725h483q196 0 333.5 -122t137.5 -295v-308q0 -113 -64.5 -209.5t-174 -152t-238.5 -55.5t-238.5 55.5t-174 152t-64.5 209.5zM287 413q0 -119 91 -202t223 -83t223 83t91 202v286q0 118 -94 202t-227 84h-307v-572z" />
<glyph unicode="&#x5e2;" horiz-adv-x="1121" d="M77 -103l2 148l316 81l-226 1001h167l216 -962l29 8q129 32 196 116t67 215v623h163v-625q0 -184 -105 -302.5t-276 -161.5z" />
<glyph unicode="&#x5e3;" horiz-adv-x="1099" d="M116 733v394h404q196 0 334 -122t138 -295v-1086h-163v1075q0 118 -94.5 202t-227.5 84h-227v-239q0 -61 59 -104t144 -43h64v-142h-75q-146 0 -251 81t-105 195z" />
<glyph unicode="&#x5e4;" horiz-adv-x="1086" d="M128 0v143h329q162 0 276 84t114 203v267q0 119 -114 203.5t-276 84.5h-166v-239q0 -61 59 -104t144 -43h64v-142h-75q-146 0 -250.5 81t-104.5 195v394h340q148 0 273 -55.5t197.5 -151.5t72.5 -210v-293q0 -114 -72.5 -210t-197.5 -151.5t-273 -55.5h-340z" />
<glyph unicode="&#x5e5;" horiz-adv-x="1033" d="M34 1127h186l310 -488q113 8 170 78t57 166v244h164v-257q0 -62 -23 -124t-65.5 -116t-112.5 -90.5t-154 -41.5v-874h-164v921z" />
<glyph unicode="&#x5e6;" horiz-adv-x="1127" d="M105 1127h188l310 -486q114 9 170.5 77t56.5 169v240h164v-255q0 -56 -19.5 -114.5t-56.5 -111t-96.5 -91t-131.5 -50.5l321 -505h-891v143h613z" />
<glyph unicode="&#x5e7;" horiz-adv-x="1157" d="M126 -376v1176h163v-1176h-163zM126 985v142h917v-648q0 -173 -138 -295t-334 -122h-114v143h101q133 0 227 83.5t94 201.5v495h-753z" />
<glyph unicode="&#x5e8;" horiz-adv-x="1046" d="M79 985v142h389q196 0 333.5 -122t137.5 -295v-710h-163v699q0 118 -94 202t-227 84h-376z" />
<glyph unicode="&#x5e9;" horiz-adv-x="1476" d="M122 492v635h164v-563h186q77 0 132 51t55 123v389h164v-389q0 -131 -102.5 -224t-247.5 -93h-180q27 -121 131.5 -199.5t240.5 -78.5h154q158 0 269 102t111 247v635h163v-635q0 -134 -72.5 -247t-197.5 -179t-273 -66h-154q-148 0 -273 66t-197.5 179t-72.5 247z" />
<glyph unicode="&#x5ea;" horiz-adv-x="1309" d="M75 0v145q36 -12 79 -12q78 0 105 38t27 109v705h-132v142h577q196 0 333.5 -122t137.5 -295v-710h-163v699q0 118 -94 202t-227 84h-269v-718q0 -121 -72 -198.5t-212 -77.5q-48 0 -90 9z" />
<glyph unicode="&#x5f0;" horiz-adv-x="834" d="M126 0v1127h163v-1127h-163zM543 0v1127h163v-1127h-163z" />
<glyph unicode="&#x5f1;" horiz-adv-x="811" d="M118 537v590h164v-524zM520 0v1127h164v-1127h-164z" />
<glyph unicode="&#x5f2;" horiz-adv-x="789" d="M118 537v590h164v-524zM513 537v590h163v-524z" />
<glyph unicode="&#x5f3;" horiz-adv-x="345" d="M73 1124v208h175v-208l-51 -252h-73z" />
<glyph unicode="&#x5f4;" horiz-adv-x="646" d="M73 1124v208h175v-208l-51 -252h-73zM374 1124v208h175v-208l-51 -252h-73z" />
<glyph unicode="&#x5f5;" horiz-adv-x="417" d="M126 0v470h163v-470h-163zM126 658v469h163v-469h-163z" />
<glyph unicode="&#x5f6;" horiz-adv-x="729" d="M107 0v710q0 113 63.5 209.5t167 152t218.5 55.5h41v-142h-26q-119 0 -209.5 -84.5t-90.5 -201.5v-556h353v-143h-517z" />
<glyph unicode="&#x5f7;" horiz-adv-x="1157" d="M126 -376v1503h917v-648q0 -173 -138 -295t-334 -122h-114v143h101q133 0 227 83.5t94 201.5v495h-590v-1361h-163z" />
<glyph unicode="&#x200c;" />
<glyph unicode="&#x200d;" />
<glyph unicode="&#x200e;" />
<glyph unicode="&#x200f;" />
<glyph unicode="&#x2013;" horiz-adv-x="952" d="M71 515v143h780v-143h-780z" />
<glyph unicode="&#x2014;" horiz-adv-x="1516" d="M71 515v143h1344v-143h-1344z" />
<glyph unicode="&#x2015;" horiz-adv-x="1892" d="M71 515v143h1720v-143h-1720z" />
<glyph unicode="&#x2019;" horiz-adv-x="345" d="M73 1124v208h175v-208l-51 -252h-73z" />
<glyph unicode="&#x201a;" horiz-adv-x="345" d="M73 -13v208h175v-208l-51 -252h-73z" />
<glyph unicode="&#x201d;" horiz-adv-x="646" d="M73 1124v208h175v-208l-51 -252h-73zM374 1124v208h175v-208l-51 -252h-73z" />
<glyph unicode="&#x201e;" horiz-adv-x="646" d="M73 -13v208h175v-208l-51 -252h-73zM374 -13v208h175v-208l-51 -252h-73z" />
<glyph unicode="&#x20ac;" horiz-adv-x="1099" d="M4 477l41 111h102q0 8 -1 25t-1 26q0 37 3 73h-144l41 111h118q40 205 164 340q150 164 413 164q178 0 299 -78l-54 -131q-109 62 -265 62q-150 0 -252 -94t-139 -263h539l-43 -111h-511q-2 -23 -2 -71q0 -36 2 -53h464l-45 -111h-406q34 -167 138.5 -267.5t229.5 -100.5 q82 0 140.5 11.5t117.5 41.5l54 -132q-120 -68 -314 -68q-95 0 -190.5 39t-168.5 114q-138 144 -174 362h-156z" />
<glyph unicode="&#xe000;" horiz-adv-x="986" d="M0 0v986h986v-986h-986z" />
<glyph unicode="&#xfb1d;" horiz-adv-x="394" d="M118 537v590h164v-524zM135 280v133h132v-133h-132z" />
<glyph unicode="&#xfb1e;" d="M-261 1409l124 47q20 -38 56.5 -60.5t80.5 -22.5t80.5 22.5t56.5 60.5l124 -47q-34 -76 -104.5 -122.5t-156.5 -46.5t-156.5 46.5t-104.5 122.5z" />
<glyph unicode="&#xfb1f;" horiz-adv-x="789" d="M137 537v590h164v-524zM222 280v133h338v-133h-338zM513 537v590h163v-524z" />
<glyph unicode="&#xfb20;" horiz-adv-x="1121" d="M79 0v143h310l-261 984h169l259 -980q123 14 205.5 93t82.5 185v702h163v-702q0 -176 -146.5 -300.5t-353.5 -124.5h-428z" />
<glyph unicode="&#xfb21;" horiz-adv-x="2254" d="M118 1127h286l1135 -738q222 78 320.5 190.5t98.5 282.5v265h163v-265q0 -199 -118 -349t-323 -216l456 -297h-291l-1133 740q-222 -79 -318.5 -192t-96.5 -283v-265h-164v265q0 199 117.5 349t322.5 216z" />
<glyph unicode="&#xfb22;" horiz-adv-x="2175" d="M81 985v142h1982v-142h-156v-985h-163v985h-1663z" />
<glyph unicode="&#xfb23;" horiz-adv-x="2220" d="M128 0v705h163v-705h-163zM128 985v142h1514q196 0 334 -122t138 -295v-710h-164v699q0 118 -94 202t-227 84h-1501z" />
<glyph unicode="&#xfb24;" horiz-adv-x="2085" d="M116 0v143h1342q162 0 276.5 84t114.5 203v267q0 119 -114.5 203.5t-276.5 84.5h-1342v142h1353q148 0 273 -55.5t197.5 -151.5t72.5 -210v-293q0 -114 -72.5 -210t-197.5 -151.5t-273 -55.5h-1353z" />
<glyph unicode="&#xfb25;" horiz-adv-x="2179" d="M79 985v422h163v-280h1825v-287q0 -132 -105 -226q-50 -46 -176 -119t-174 -127q-45 -51 -65 -97t-29 -109l-2 -162h-163q0 157 20.5 246.5t88.5 181.5q30 41 81.5 83.5t91 67t95.5 56.5t66 38q51 31 74.5 72t32.5 104v136h-1824z" />
<glyph unicode="&#xfb26;" horiz-adv-x="2222" d="M128 0v1127h1445q148 0 273 -55.5t197.5 -151.5t72.5 -210v-710h-1988zM291 143h1661v554q0 119 -114.5 203.5t-276.5 84.5h-1270v-842z" />
<glyph unicode="&#xfb27;" horiz-adv-x="2079" d="M79 985v142h1422q196 0 334 -122t138 -295v-710h-164v699q0 118 -94 202t-227 84h-1409z" />
<glyph unicode="&#xfb28;" horiz-adv-x="2342" d="M75 0v145q36 -12 79 -12q78 0 105 38t27 109v705h-113v142h1591q196 0 334 -122t138 -295v-710h-164v699q0 118 -94 202t-227 84h-1302v-718q0 -121 -72 -198.5t-212 -77.5q-48 0 -90 9z" />
<glyph unicode="&#xfb29;" horiz-adv-x="1097" d="M94 370v132h389v389h131v-389h389v-132h-909z" />
<glyph unicode="&#xfb2a;" horiz-adv-x="1476" d="M122 492v635h164v-563h186q77 0 132 51t55 123v389h164v-389q0 -131 -102.5 -224t-247.5 -93h-180q27 -121 131.5 -199.5t240.5 -78.5h154q158 0 269 102t111 247v635h163v-635q0 -134 -72.5 -247t-197.5 -179t-273 -66h-154q-148 0 -273 66t-197.5 179t-72.5 247z M1210 1202v134h133v-134h-133z" />
<glyph unicode="&#xfb2b;" horiz-adv-x="1476" d="M122 492v635h164v-563h186q77 0 132 51t55 123v389h164v-389q0 -131 -102.5 -224t-247.5 -93h-180q27 -121 131.5 -199.5t240.5 -78.5h154q158 0 269 102t111 247v635h163v-635q0 -134 -72.5 -247t-197.5 -179t-273 -66h-154q-148 0 -273 66t-197.5 179t-72.5 247z M141 1202v134h133v-134h-133z" />
<glyph unicode="&#xfb2c;" horiz-adv-x="1476" d="M0 492v635h163v-563h186q77 0 132.5 51t55.5 123v389h164v-389q0 -131 -102.5 -224t-247.5 -93h-180q27 -121 131.5 -199.5t240.5 -78.5h154q158 0 269 102t111 247v635h163v-635q0 -134 -72.5 -247t-197.5 -179t-273 -66h-154q-148 0 -273 66t-197.5 179t-72.5 247z M735 323v134h131v-134h-131zM1210 1202v134h133v-134h-133z" />
<glyph unicode="&#xfb2d;" horiz-adv-x="1476" d="M0 492v635h163v-563h186q77 0 132.5 51t55.5 123v389h164v-389q0 -131 -102.5 -224t-247.5 -93h-180q27 -121 131.5 -199.5t240.5 -78.5h154q158 0 269 102t111 247v635h163v-635q0 -134 -72.5 -247t-197.5 -179t-273 -66h-154q-148 0 -273 66t-197.5 179t-72.5 247z M141 1202v134h133v-134h-133zM735 323v134h131v-134h-131z" />
<glyph unicode="&#xfb2e;" horiz-adv-x="1211" d="M118 1127h192l428 -608q88 64 137 147.5t49 179.5v281h164v-281q0 -139 -71.5 -257t-193.5 -191l280 -398h-192l-428 611q-85 -61 -135.5 -155.5t-50.5 -190.5v-265h-164v265q0 133 74.5 265t188.5 203zM374 -113h470v-133h-470v133z" />
<glyph unicode="&#xfb2f;" horiz-adv-x="1211" d="M118 1127h192l428 -608q88 64 137 147.5t49 179.5v281h164v-281q0 -139 -71.5 -257t-193.5 -191l280 -398h-192l-428 611q-85 -61 -135.5 -155.5t-50.5 -190.5v-265h-164v265q0 133 74.5 265t188.5 203zM370 -113h470v-133h-169v-220h-132v220h-169v133z" />
<glyph unicode="&#xfb30;" horiz-adv-x="1211" d="M118 1127h192l428 -608q88 64 137 147.5t49 179.5v281h164v-281q0 -139 -71.5 -257t-193.5 -191l280 -398h-192l-428 611q-85 -61 -135.5 -155.5t-50.5 -190.5v-265h-164v265q0 133 74.5 265t188.5 203zM436 233v133h131v-133h-131z" />
<glyph unicode="&#xfb31;" horiz-adv-x="1132" d="M122 0v143h652v554q0 119 -114.5 203.5t-276.5 84.5h-261v142h273q148 0 273 -55.5t197.5 -151.5t72.5 -210v-567h139v-143h-955zM443 507v134h132v-134h-132z" />
<glyph unicode="&#xfb32;" horiz-adv-x="894" d="M66 0l389 381h152l-41 320q-17 135 -114 209.5t-230 74.5h-40v142h55q120 0 224.5 -48.5t177.5 -144t90 -222.5l94 -712h-165l-44 323l-328 -323h-220zM331 507v134h131v-134h-131z" />
<glyph unicode="&#xfb33;" horiz-adv-x="1142" d="M81 985v142h949v-142h-156v-985h-164v985h-629zM440 507v134h131v-134h-131z" />
<glyph unicode="&#xfb34;" horiz-adv-x="1187" d="M128 0v705h163v-705h-163zM128 985v142h481q196 0 333.5 -122t137.5 -295v-710h-163v699q0 118 -94 202t-227 84h-468zM537 507v134h132v-134h-132z" />
<glyph unicode="&#xfb35;" horiz-adv-x="520" d="M41 507v134h132v-134h-132zM229 0v1127h164v-1127h-164z" />
<glyph unicode="&#xfb36;" horiz-adv-x="678" d="M41 507v134h132v-134h-132zM83 985v142h483v-142h-156v-985h-164v985h-163z" />
<glyph unicode="&#xfb37;" horiz-adv-x="1226" d="M128 0v1127h520q196 0 334 -122t138 -295v-710h-164v699q0 118 -94 202t-227 84h-344v-985h-163zM537 507v134h132v-134h-132z" />
<glyph unicode="&#xfb38;" horiz-adv-x="1161" d="M124 402v725h163v-714q0 -119 91 -202t223 -83q133 0 224.5 83t91.5 202v301q0 119 -91.5 202.5t-224.5 83.5q-77 0 -146 -32v154q72 20 146 20q129 0 239 -55.5t175 -152t65 -209.5v-323q0 -113 -65 -209.5t-175 -152t-239 -55.5q-195 0 -336 122.5t-141 294.5zM541 507 v134h132v-134h-132z" />
<glyph unicode="&#xfb39;" horiz-adv-x="535" d="M41 628v133h132v-133h-132zM259 537v590h164v-524z" />
<glyph unicode="&#xfb3a;" horiz-adv-x="1007" d="M81 985v142h347q196 0 334 -122t138 -295v-1086h-163v1075q0 118 -94.5 202t-227.5 84h-334zM432 507v134h132v-134h-132z" />
<glyph unicode="&#xfb3b;" horiz-adv-x="1052" d="M116 0v143h309q162 0 276 84t114 203v267q0 119 -114 203.5t-276 84.5h-309v142h320q148 0 273 -55.5t197.5 -151.5t72.5 -210v-293q0 -114 -72.5 -210t-197.5 -151.5t-273 -55.5h-320zM451 507v134h131v-134h-131z" />
<glyph unicode="&#xfb3c;" horiz-adv-x="1146" d="M79 985v424h163v-282h791v-287q0 -69 -14.5 -120t-52.5 -119q-33 -53 -75.5 -90.5t-75.5 -64t-47 -55.5q-50 -87 -50 -205v-186h-164v199q3 142 68 256q26 42 59 75t57 50.5t47 39.5t34 45q30 51 40.5 88t10.5 96v136h-791zM432 639v133h132v-133h-132z" />
<glyph unicode="&#xfb3d;" horiz-adv-x="1189" d="M128 0v1127h411q148 0 273 -55.5t197.5 -151.5t72.5 -210v-710h-954zM291 143h628v554q0 119 -114.5 203.5t-276.5 84.5h-237v-842zM537 507v134h132v-134h-132z" />
<glyph unicode="&#xfb3e;" horiz-adv-x="1185" d="M100 985v142h437q148 0 273 -55.5t197.5 -151.5t72.5 -210v-710h-560v143h397v554q0 119 -114.5 203.5t-276.5 84.5h-115l-108 -985h-166l109 985h-146zM571 507v134h132v-134h-132z" />
<glyph unicode="&#xfb3f;" horiz-adv-x="520" d="M43 507v134h132v-134h-132zM248 -376v1503h163v-1503h-163z" />
<glyph unicode="&#xfb40;" horiz-adv-x="729" d="M105 0v143h353v556q0 117 -90.5 201.5t-209.5 84.5h-26v142h41q115 0 218.5 -55.5t167 -152t63.5 -209.5v-710h-517zM203 507v134h131v-134h-131z" />
<glyph unicode="&#xfb41;" horiz-adv-x="1159" d="M124 402v725h483q196 0 333.5 -122t137.5 -295v-308q0 -113 -64.5 -209.5t-174 -152t-238.5 -55.5t-238.5 55.5t-174 152t-64.5 209.5zM287 413q0 -119 91 -202t223 -83t223 83t91 202v286q0 118 -94 202t-227 84h-307v-572zM534 507v134h131v-134h-131z" />
<glyph unicode="&#xfb42;" horiz-adv-x="1121" d="M77 -103l2 148l316 81l-226 1001h167l216 -962l29 8q129 32 196 116t67 215v623h163v-625q0 -184 -105 -302.5t-276 -161.5zM571 628v133h132v-133h-132z" />
<glyph unicode="&#xfb43;" horiz-adv-x="1099" d="M116 733v394h404q196 0 334 -122t138 -295v-1086h-163v1075q0 118 -94.5 202t-227.5 84h-227v-239q0 -61 59 -104t144 -43h64v-142h-75q-146 0 -251 81t-105 195zM609 637v133h131v-133h-131z" />
<glyph unicode="&#xfb44;" horiz-adv-x="1086" d="M128 0v143h329q162 0 276 84t114 203v267q0 119 -114 203.5t-276 84.5h-166v-239q0 -61 59 -104t144 -43h64v-142h-75q-146 0 -250.5 81t-104.5 195v394h340q148 0 273 -55.5t197.5 -151.5t72.5 -210v-293q0 -114 -72.5 -210t-197.5 -151.5t-273 -55.5h-340zM631 639v133 h132v-133h-132z" />
<glyph unicode="&#xfb45;" horiz-adv-x="1033" d="M34 1127h186l310 -488q113 8 170 78t57 166v244h164v-257q0 -62 -23 -124t-65.5 -116t-112.5 -90.5t-154 -41.5v-874h-164v921zM505 840v133h132v-133h-132z" />
<glyph unicode="&#xfb46;" horiz-adv-x="1127" d="M105 1127h188l310 -486q114 9 170.5 77t56.5 169v240h164v-255q0 -56 -19.5 -114.5t-56.5 -111t-96.5 -91t-131.5 -50.5l321 -505h-891v143h613zM278 387v133h132v-133h-132z" />
<glyph unicode="&#xfb47;" horiz-adv-x="1157" d="M126 -376v1176h163v-1176h-163zM126 985v142h917v-648q0 -173 -138 -295t-334 -122h-114v143h101q133 0 227 83.5t94 201.5v495h-753zM522 507v134h132v-134h-132z" />
<glyph unicode="&#xfb48;" horiz-adv-x="1046" d="M79 985v142h389q196 0 333.5 -122t137.5 -295v-710h-163v699q0 118 -94 202t-227 84h-376zM436 507v134h131v-134h-131z" />
<glyph unicode="&#xfb49;" horiz-adv-x="1476" d="M0 492v635h163v-563h186q77 0 132.5 51t55.5 123v389h164v-389q0 -131 -102.5 -224t-247.5 -93h-180q27 -121 131.5 -199.5t240.5 -78.5h154q158 0 269 102t111 247v635h163v-635q0 -134 -72.5 -247t-197.5 -179t-273 -66h-154q-148 0 -273 66t-197.5 179t-72.5 247z M735 323v134h131v-134h-131z" />
<glyph unicode="&#xfb4a;" horiz-adv-x="1309" d="M75 0v145q36 -12 79 -12q78 0 105 38t27 109v705h-132v142h577q196 0 333.5 -122t137.5 -295v-710h-163v699q0 118 -94 202t-227 84h-269v-718q0 -121 -72 -198.5t-212 -77.5q-48 0 -90 9zM688 507v134h131v-134h-131z" />
<glyph unicode="&#xfb4b;" horiz-adv-x="417" d="M126 0v1127h163v-1127h-163zM143 1240v133h131v-133h-131z" />
<glyph unicode="&#xfb4c;" horiz-adv-x="1132" d="M122 0v143h652v554q0 119 -114.5 203.5t-276.5 84.5h-261v142h273q148 0 273 -55.5t197.5 -151.5t72.5 -210v-567h139v-143h-955zM333 1240v133h375v-133h-375z" />
<glyph unicode="&#xfb4d;" horiz-adv-x="1052" d="M116 0v143h309q162 0 276 84t114 203v267q0 119 -114 203.5t-276 84.5h-309v142h320q148 0 273 -55.5t197.5 -151.5t72.5 -210v-293q0 -114 -72.5 -210t-197.5 -151.5t-273 -55.5h-320zM282 1240v133h432v-133h-432z" />
<glyph unicode="&#xfb4e;" horiz-adv-x="1086" d="M128 0v143h329q162 0 276 84t114 203v267q0 119 -114 203.5t-276 84.5h-166v-239q0 -61 59 -104t144 -43h64v-142h-75q-146 0 -250.5 81t-104.5 195v394h340q148 0 273 -55.5t197.5 -151.5t72.5 -210v-293q0 -114 -72.5 -210t-197.5 -151.5t-273 -55.5h-340zM348 1240 v133h375v-133h-375z" />
<glyph unicode="&#xfb4f;" horiz-adv-x="1221" d="M145 1090v317h163v-280l430 -608q88 64 137 147.5t49 179.5v281h164v-281q0 -138 -71 -256t-192 -195l278 -395h-192z" />
</font>
</defs>
</svg>
