<?xml version="1.0" standalone="no"?>
<!DOCTYPE svg PUBLIC "-//W3C//DTD SVG 1.1//EN" "http://www.w3.org/Graphics/SVG/1.1/DTD/svg11.dtd" >
<svg xmlns="http://www.w3.org/2000/svg">
<metadata></metadata>
<defs>
<font id="drugulin_clmbold" horiz-adv-x="0" >
<font-face units-per-em="2048" ascent="1638" descent="-410" />
<missing-glyph horiz-adv-x="512" />
<glyph horiz-adv-x="2048" />
<glyph horiz-adv-x="2048" />
<glyph unicode="&#xd;" horiz-adv-x="2048" />
<glyph unicode=" "  horiz-adv-x="512" />
<glyph unicode="&#x09;" horiz-adv-x="512" />
<glyph unicode="&#xa0;" horiz-adv-x="512" />
<glyph unicode="!" horiz-adv-x="568" d="M138 1009q0 81 38 125.5t107 44.5q68 0 106 -45.5t38 -128.5q0 -51 -31 -148q-38 -122 -55 -211t-34 -247h-49q-16 155 -33.5 244.5t-55.5 213.5q-31 99 -31 152zM140 123q0 58 42 100.5t101 42.5q60 0 102.5 -43.5t42.5 -103.5q0 -59 -42.5 -100t-103.5 -41 q-60 0 -101 42t-41 103z" />
<glyph unicode="&#x22;" horiz-adv-x="947" d="M142 1058q0 55 30 88t79 33q47 0 79 -32.5t32 -81.5q0 -51 -75 -376h-70q-5 20 -11.5 48t-7.5 34q-56 221 -56 287zM585 1058q0 54 30.5 87.5t79.5 33.5q47 0 79 -32.5t32 -81.5q0 -50 -76 -376h-70q-13 52 -18 82q-57 226 -57 287z" />
<glyph unicode="#" horiz-adv-x="853" d="M7 358v125h182l31 229h-164v124h181l51 359h132l-50 -359h193l51 359h132l-50 -359h151v-124h-168l-30 -229h148v-125h-167l-50 -358h-133l50 358h-193l-50 -358h-133l50 358h-164zM323 483h192l31 229h-193z" />
<glyph unicode="$" horiz-adv-x="853" d="M49 847q0 81 38 146t109 106q39 22 74 31.5t95 16.5v133h94v-130q101 -17 156.5 -34.5t114.5 -53.5v-241h-35q-37 128 -91 190.5t-145 82.5v-367q124 -64 178 -100.5t99 -87.5q70 -78 70 -204q0 -143 -86 -227q-42 -40 -99.5 -64.5t-161.5 -43.5v-169h-94v169 q-80 4 -130.5 17t-155.5 56v267l35 -4q41 -138 98 -202.5t152 -82.5v429q-172 85 -243.5 169t-71.5 198zM212 945q0 -116 152 -170v324q-81 -20 -116.5 -56t-35.5 -98zM459 51q159 29 159 178q0 69 -28.5 105t-130.5 93v-376z" />
<glyph unicode="%" horiz-adv-x="1706" d="M212 734q0 107 54.5 205t144 158t186.5 60q62 0 128 -46q39 -28 72.5 -38t86.5 -10q78 0 159 29.5t109 69.5q14 19 26 19h64l-672 -1195h-94l594 1058q-107 -46 -196 -46q-34 0 -80 9q-2 -114 -24.5 -194t-76.5 -159q-104 -152 -261 -152q-97 0 -158.5 64.5t-61.5 167.5z M406 676q-2 -41 21 -68.5t61 -27.5q79 0 150 104q46 67 72.5 145t26.5 142q0 55 -49 75q-11 3 -28 17q-16 11 -27 14q-20 2 -49.5 -21.5t-56.5 -63.5q-45 -66 -81 -161t-40 -155zM913 213q0 77 33.5 154.5t87 136t124 95t141.5 36.5q89 0 143.5 -53.5t54.5 -142.5 q0 -100 -40.5 -200t-109.5 -172q-40 -42 -95.5 -66.5t-111.5 -24.5q-103 0 -165 65t-62 172zM1113 150q0 -95 83 -95q96 0 174 143q70 124 70 227q0 53 -25 88t-63 35q-62 0 -125 -89q-42 -63 -78 -160t-36 -149z" />
<glyph unicode="&#x26;" horiz-adv-x="1421" d="M106 275q0 120 76.5 209t257.5 178q-51 89 -69.5 140.5t-18.5 107.5q0 125 89 197t243 72q129 0 207 -57t78 -151q0 -81 -61.5 -140t-197.5 -109l258 -365q75 93 102 144.5t27 102.5q0 37 -18.5 49t-93.5 21v41h351v-41q-54 -5 -77.5 -18t-46.5 -50l-46 -75 q-54 -86 -159 -231q72 -92 113 -123.5t90 -31.5q58 0 99 65l34 -21l-27 -44q-54 -88 -92 -119q-31 -23 -75 -38t-84 -15q-67 0 -122 32.5t-132 117.5q-105 -78 -195 -113.5t-184 -35.5q-143 0 -234.5 84.5t-91.5 216.5zM343 451q0 -66 34 -141.5t89 -133.5q32 -33 73 -52.5 t79 -19.5q59 0 153 67q-62 81 -220 317l-82 123q-70 -41 -98 -76.5t-28 -83.5zM551 1027q0 -52 29.5 -111.5t97.5 -144.5q64 22 91.5 54t27.5 85q0 85 -47 149t-110 64q-41 0 -65 -25.5t-24 -70.5z" />
<glyph unicode="'" horiz-adv-x="474" d="M128 1058q0 55 30 88t79 33q47 0 79 -32.5t32 -81.5q0 -47 -75 -376h-70q-16 64 -19 82q-56 221 -56 287z" />
<glyph unicode="(" horiz-adv-x="568" d="M79 442q0 165 57 313.5t166 266.5q51 53 96.5 87t123.5 75v-46q-76 -51 -114 -90.5t-65 -96.5q-72 -153 -72 -511q0 -340 75 -496q27 -58 65 -97.5t111 -85.5v-48q-124 75 -191.5 137t-127.5 155q-124 197 -124 437z" />
<glyph unicode=")" horiz-adv-x="568" d="M46 -241q77 51 115.5 91.5t63.5 96.5q72 153 72 510q0 341 -75 497q-27 57 -64.5 96t-111.5 87v47q125 -76 192.5 -137.5t126.5 -153.5q125 -198 125 -439q0 -164 -57.5 -313t-167.5 -266q-49 -53 -94.5 -86.5t-124.5 -75.5v46z" />
<glyph unicode="*" horiz-adv-x="853" d="M96 951q0 37 22 60t59 23q34 0 57.5 -16.5t50.5 -60.5q32 -51 50.5 -69t67.5 -45l12 5q-2 54 -9 80.5t-34 75.5q-31 57 -31 90q0 36 25.5 60.5t63.5 24.5q36 0 59 -26t23 -68q0 -33 -27 -81q-38 -63 -38 -123v-33l14 -5q45 35 65.5 57.5t55.5 72.5q25 39 44 52.5t48 13.5 q35 0 62 -26t27 -59q0 -23 -18.5 -48t-43.5 -36q-27 -12 -76 -12q-55 -2 -82 -10.5t-69 -35.5v-13q46 -22 76 -30t88 -13q69 -5 97 -25t28 -62q0 -36 -24 -60.5t-60 -24.5q-35 0 -61 21.5t-67 83.5q-25 36 -42.5 51t-54.5 35l-12 -9q7 -58 16 -88.5t34 -81.5q23 -44 23 -72 q0 -37 -25 -63t-62 -26t-59.5 27t-22.5 70q0 32 26 81q25 43 31 68t8 85l-12 9q-49 -36 -69.5 -57t-54.5 -71q-25 -39 -45 -53.5t-47 -14.5q-36 0 -61 24.5t-25 60.5q0 95 145 95q54 2 78 10t66 37v11q-51 23 -83 31.5t-91 13.5q-67 5 -91.5 24t-24.5 65z" />
<glyph unicode="+" horiz-adv-x="972" d="M56 357v150h355v357h150v-357h355v-150h-355v-357h-150v357h-355z" />
<glyph unicode="," horiz-adv-x="426" d="M67 123q0 64 38.5 103t102.5 39q77 0 125 -55t48 -143q0 -110 -67.5 -199t-216.5 -175l-18 37q186 129 186 226q0 16 -9.5 26.5t-23.5 10.5q-7 0 -12 -2q-5 -1 -29 -1q-55 0 -89.5 37t-34.5 96z" />
<glyph unicode="-" horiz-adv-x="568" d="M75 292v198h415v-198h-415z" />
<glyph unicode="." horiz-adv-x="426" d="M70 123q0 58 42 100.5t101 42.5q60 0 102.5 -43.5t42.5 -103.5q0 -59 -42.5 -100t-103.5 -41q-60 0 -101 42t-41 103z" />
<glyph unicode="/" horiz-adv-x="474" d="M-41 -32l403 1211h153l-402 -1211h-154z" />
<glyph unicode="0" horiz-adv-x="853" d="M41 580q0 107 25.5 216.5t66.5 179.5q52 92 131 145t163 53q108 0 196.5 -78t138.5 -215.5t50 -305.5q0 -257 -109.5 -427t-274.5 -170q-170 0 -278.5 169t-108.5 433zM311 379q0 -190 26.5 -271.5t90.5 -81.5q58 0 86 73q11 35 20 120t9 160v391q0 189 -27.5 272.5 t-90.5 83.5q-62 0 -88 -81.5t-26 -274.5v-391z" />
<glyph unicode="1" horiz-adv-x="853" d="M111 944v44l430 186h29v-973q0 -98 34 -128t150 -32v-41h-640v41q127 1 165 33.5t38 137.5v657q0 60 -14.5 88.5t-46.5 28.5q-33 0 -111 -29q-6 -4 -34 -13z" />
<glyph unicode="2" horiz-adv-x="853" d="M29 0v39q186 198 258 284.5t138 186.5q87 133 87 253q0 62 -34 123q-59 94 -169 94q-69 0 -118.5 -37t-89.5 -117h-48q36 97 67 150t81 103q93 95 227 95q138 0 227 -87.5t89 -224.5q0 -98 -46.5 -187t-147.5 -185l-277 -263h258q58 0 88.5 2.5t57.5 8.5t42 22.5t27.5 38 t28.5 61.5h41l-77 -360h-710z" />
<glyph unicode="3" horiz-adv-x="853" d="M27 130q0 43 31 71t80 28q75 0 169 -94q42 -41 70.5 -57.5t59.5 -16.5q76 0 121.5 55t45.5 147q0 131 -83 208q-46 43 -99.5 71.5t-160.5 65.5v29q122 38 172 88.5t50 134.5q0 81 -46.5 128.5t-127.5 47.5q-67 0 -114 -32.5t-96 -110.5l-36 20q139 261 391 261 q131 0 204.5 -62t73.5 -172q0 -76 -29.5 -121t-111.5 -95q50 -23 78 -42.5t55 -50.5q75 -92 75 -211q0 -122 -68 -224.5t-185.5 -161t-257.5 -58.5q-118 0 -189.5 42.5t-71.5 111.5z" />
<glyph unicode="4" horiz-adv-x="853" d="M32 246v193q130 207 434 604l101 131h136v-739h108v-189h-108v-246h-247v246h-424zM102 435h357v507z" />
<glyph unicode="5" horiz-adv-x="853" d="M38 137q0 45 29.5 73.5t75.5 28.5q67 0 169 -77q96 -72 154 -72q72 0 121.5 49.5t49.5 121.5q0 85 -64.5 153.5t-178.5 104.5q-56 18 -120 27.5t-187 18.5l166 589h549l-73 -217h-475l-37 -138q108 -7 158.5 -13.5t98.5 -20.5q139 -40 217.5 -137t78.5 -230 q0 -181 -135.5 -296.5t-346.5 -115.5q-113 0 -181.5 41.5t-68.5 109.5z" />
<glyph unicode="6" horiz-adv-x="853" d="M48 466q0 170 74.5 310.5t217.5 238.5q99 68 196.5 101.5t265.5 57.5v-44q-186 -38 -296.5 -145t-157.5 -296q70 30 144 30q146 0 232.5 -92.5t86.5 -247.5q0 -174 -104 -287.5t-263 -113.5q-179 0 -287.5 133.5t-108.5 354.5zM314 413q0 -251 46 -340q26 -49 87 -49 q63 0 83.5 50.5t20.5 201.5q0 204 -34 285t-119 81q-38 0 -62 -17q-9 -7 -15.5 -69.5t-6.5 -142.5z" />
<glyph unicode="7" horiz-adv-x="853" d="M29 775l75 379h710l-401 -1154h-162l341 920h-353q-70 0 -106.5 -31.5t-60.5 -113.5h-43z" />
<glyph unicode="8" horiz-adv-x="853" d="M48 268q0 115 75 188q33 33 71 53t110 44q-126 76 -181.5 151.5t-55.5 171.5q0 134 105 216t277 82q153 0 243 -66.5t90 -180.5q0 -82 -54.5 -138.5t-177.5 -99.5q137 -87 196.5 -173t59.5 -197q0 -154 -109 -247.5t-287 -93.5q-163 0 -262.5 80t-99.5 210zM254 275 q0 -114 44 -178.5t122 -64.5q69 0 108.5 49.5t39.5 135.5q0 94 -43.5 152.5t-183.5 152.5q-51 -76 -69 -126.5t-18 -120.5zM287 983q0 -72 57.5 -140t164.5 -123q42 56 56 95.5t14 99.5q0 100 -39.5 155t-111.5 55q-60 0 -100.5 -41t-40.5 -101z" />
<glyph unicode="9" horiz-adv-x="853" d="M44 771q0 175 103.5 289t263.5 114q179 0 287.5 -133.5t108.5 -354.5q0 -163 -67.5 -298t-198.5 -233q-100 -76 -204.5 -113.5t-283.5 -63.5v44q184 37 293 143t164 301q-63 -33 -155 -33q-139 0 -225 93.5t-86 244.5zM304 879q0 -201 33 -285t112 -84q49 0 70 16 q5 3 8 34l5 44q9 139 9 178q0 92 -12 172t-31 116q-28 58 -90 58q-63 0 -83.5 -50t-20.5 -199z" />
<glyph unicode=":" horiz-adv-x="568" d="M140 123q0 58 42 100.5t101 42.5q60 0 102.5 -43.5t42.5 -103.5q0 -59 -42.5 -100t-103.5 -41q-60 0 -101 42t-41 103zM140 664q0 58 42 100t101 42q60 0 102.5 -43t42.5 -103q0 -59 -42.5 -101t-102.5 -42q-61 0 -102 42t-41 105z" />
<glyph unicode=";" horiz-adv-x="568" d="M140 123q0 64 39 103t103 39q77 0 124.5 -55t47.5 -143q0 -110 -67.5 -199.5t-215.5 -174.5l-19 37q186 129 186 227q0 14 -9 25t-22 11h-12l-20 -3h-14q-15 0 -40 9t-37 20q-44 36 -44 104zM140 664q0 58 42 100t101 42q60 0 102.5 -43t42.5 -103q0 -59 -42.5 -101 t-102.5 -42q-61 0 -102 42t-41 105z" />
<glyph unicode="&#x3c;" horiz-adv-x="972" d="M53 360v143l867 381v-164l-657 -288l657 -289v-163z" />
<glyph unicode="=" horiz-adv-x="972" d="M56 183v150h860v-150h-860zM56 531v150h860v-150h-860z" />
<glyph unicode="&#x3e;" horiz-adv-x="972" d="M53 -20v163l657 289l-657 288v164l867 -381v-143z" />
<glyph unicode="?" horiz-adv-x="853" d="M97 930q0 107 90 176.5t231 69.5q154 0 247.5 -77.5t93.5 -205.5q0 -88 -45 -150t-161 -134q-81 -50 -101 -85.5t-20 -129.5h-51q-4 68 -4 79q0 35 11.5 69.5t43.5 95.5q42 79 57.5 133.5t15.5 121.5q0 105 -37.5 163t-105.5 58q-46 0 -75 -18.5t-29 -49.5q0 -22 25 -49 q38 -42 38 -87q0 -49 -29.5 -79.5t-78.5 -30.5q-50 0 -83 37t-33 93zM263 123q0 58 43 100.5t102 42.5t101 -43t42 -102q0 -60 -41.5 -101.5t-101.5 -41.5q-62 0 -103.5 42t-41.5 103z" />
<glyph unicode="@" horiz-adv-x="1587" d="M184 563q0 126 50.5 240.5t136.5 196.5t205.5 130.5t251.5 48.5q160 0 292 -67.5t207.5 -185t75.5 -260.5q0 -170 -96.5 -296t-226.5 -126q-64 0 -107.5 35t-52.5 93q-45 -59 -102.5 -92.5t-112.5 -33.5q-68 0 -114.5 56.5t-46.5 139.5q0 94 38.5 189t105.5 166 q87 89 203 89q46 0 71 -18t53 -73l19 69h121l-112 -444q-4 -18 -4 -31q0 -82 65 -82q55 0 106 49.5t82 130.5t31 170q0 121 -67.5 226.5t-181.5 167.5t-245 62q-212 0 -350 -157.5t-138 -400.5q0 -223 143.5 -366t367.5 -143q86 0 160 18.5t179 65.5l22 -60 q-124 -59 -205.5 -80.5t-176.5 -21.5q-179 0 -328 78.5t-234 215t-85 301.5zM676 473q0 -67 27.5 -107t73.5 -40q38 0 74 30.5t65 85.5q28 54 47.5 124t21.5 127q2 50 -16.5 79.5t-55.5 31.5q-32 2 -72 -21.5t-76 -65.5q-89 -100 -89 -244z" />
<glyph unicode="A" horiz-adv-x="1232" d="M15 0v43q61 11 90 45.5t78 153.5l378 936h48l381 -898q64 -151 96.5 -194t82.5 -43h7v-43h-553v43q40 5 55 5q44 2 62.5 15.5t18.5 40.5q0 53 -78 232h-384l-26 -66q-49 -125 -49 -157q0 -33 32 -49t108 -21v-43h-347zM323 403h332l-172 414z" />
<glyph unicode="B" horiz-adv-x="1138" d="M27 0v43q94 11 122 33.5t28 87.5v826q0 65 -31 90.5t-119 30.5v43h528q214 0 328.5 -70.5t114.5 -202.5q0 -98 -61.5 -156.5t-209.5 -101.5q89 -19 140.5 -41.5t96.5 -60.5q92 -81 92 -200q0 -145 -131.5 -233t-347.5 -88h-550zM451 159q0 -56 24 -80t80 -24 q208 0 208 250q0 280 -261 280h-51v-426zM451 637q158 4 212 51t54 181q0 120 -42.5 177t-131.5 57q-50 0 -71 -19t-21 -65v-382z" />
<glyph unicode="C" horiz-adv-x="1232" d="M84 568q0 129 45.5 242t124 194t188.5 128t236 47q119 0 264 -59q54 -24 79 -24q24 0 40.5 17t34.5 61h46v-399h-43q-44 96 -80 148.5t-92 103.5q-108 96 -227 96q-154 0 -234 -138t-80 -403q0 -250 73 -384q37 -67 111 -108t159 -41q77 0 153 31q63 24 113 61.5 t126 117.5l51 -42q-58 -64 -92.5 -96.5t-75.5 -60.5q-137 -92 -316 -92q-265 0 -434.5 168t-169.5 432z" />
<glyph unicode="D" horiz-adv-x="1232" d="M24 0v43q74 2 108 29t34 83v842q0 59 -30 82.5t-112 31.5v43h520q296 0 465 -150.5t169 -414.5q0 -265 -169 -427t-446 -162h-539zM442 159q0 -58 20.5 -78.5t78.5 -20.5q165 0 251 117q41 58 65 161.5t24 224.5q0 222 -70 359q-86 174 -268 174q-101 0 -101 -60v-877z " />
<glyph unicode="E" horiz-adv-x="1138" d="M27 0v43q95 11 122.5 33t27.5 88v826q0 65 -31 90.5t-119 30.5v43h985v-343h-43q-32 170 -113.5 227.5t-290.5 57.5q-67 0 -89 -16t-22 -65v-395h5q134 0 192 54q59 54 79 200h45v-577h-45q-15 148 -75.5 206t-200.5 58v-413q0 -55 30 -75t112 -20q189 0 302 90 q46 37 77 81.5t71 130.5h48l-68 -355h-999z" />
<glyph unicode="F" horiz-adv-x="1042" d="M27 0v43q95 11 122.5 33t27.5 88v826q0 67 -30.5 91.5t-119.5 29.5v43h968v-343h-41q-18 81 -35 122.5t-45 73.5q-79 89 -311 89q-65 0 -87 -16.5t-22 -64.5v-395q128 0 183 53.5t78 200.5h43v-577h-43q-18 148 -74 205t-187 59v-397q0 -71 35 -93.5t153 -27.5v-43h-615z " />
<glyph unicode="G" horiz-adv-x="1327" d="M63 565q0 130 45.5 244t124 195t188.5 128t236 47q120 0 265 -59q54 -24 78 -24t40.5 17t34.5 61h46v-399h-42q-45 97 -81.5 150t-91.5 102q-111 96 -227 96q-155 0 -234.5 -139t-79.5 -407q0 -305 111 -447q81 -106 236 -106q86 0 125 29.5t39 94.5v180q0 69 -31.5 90.5 t-141.5 28.5v43h586v-43q-67 -7 -96 -20.5t-40 -43t-11 -93.5v-217q-81 -48 -209.5 -76.5t-261.5 -28.5q-269 0 -438.5 166.5t-169.5 430.5z" />
<glyph unicode="H" horiz-adv-x="1327" d="M36 0v43q89 11 117 34.5t28 86.5v826q0 64 -30 89t-115 32v43h575v-43q-89 -7 -121.5 -32t-32.5 -89v-353h412v353q0 64 -32.5 89t-121.5 32v43h580v-43q-87 -7 -118.5 -32t-31.5 -89v-826q0 -63 29 -86.5t121 -34.5v-43h-580v43q94 10 124 34t30 87v392h-412v-392 q0 -63 30 -87t124 -34v-43h-575z" />
<glyph unicode="I" horiz-adv-x="663" d="M34 0v43q96 9 127.5 33t31.5 88v826q0 65 -33 89.5t-126 31.5v43h597v-43q-94 -4 -128 -29t-34 -92v-826q0 -67 32 -90.5t130 -30.5v-43h-597z" />
<glyph unicode="J" horiz-adv-x="853" d="M5 61q0 49 36.5 86t83.5 37q50 0 87 -38.5t37 -89.5q0 -32 -25 -65q-21 -28 -21 -44q0 -24 21.5 -39.5t55.5 -15.5q58 0 83.5 35t25.5 114v949q0 69 -34.5 93t-137.5 28v43h600v-43q-96 -7 -123.5 -36t-27.5 -121v-744q0 -183 -93.5 -278.5t-272.5 -95.5q-110 0 -181 39 q-50 29 -82 81t-32 105z" />
<glyph unicode="K" horiz-adv-x="1327" d="M51 0v43q93 11 121 33.5t28 87.5v826q0 67 -30 91.5t-119 29.5v43h577v-43q-94 -7 -123 -36.5t-29 -120.5v-365l371 372q39 39 50 56t11 38q0 26 -19 37.5t-65 13.5q-5 1 -61 5v43h493v-43q-88 -7 -149.5 -36t-145.5 -103t-253 -248l521 -645q17 -20 34 -27.5t49 -8.5 v-43h-573v43q12 1 55 1q80 4 80 35q0 22 -41 75l-311 387l-46 -43v-334q0 -63 29 -86.5t121 -34.5v-43h-575z" />
<glyph unicode="L" horiz-adv-x="1138" d="M32 0v43q93 11 120 33.5t27 87.5v826q0 66 -30 91t-117 30v43h596v-43q-111 -5 -141.5 -33t-30.5 -124v-806q0 -55 29 -75t107 -20q193 0 297 94q46 42 77.5 92t72.5 148h50l-70 -387h-987z" />
<glyph unicode="M" horiz-adv-x="1611" d="M24 0v43q100 10 127.5 34.5t27.5 101.5v811q0 67 -29 90.5t-123 30.5v43h432l341 -806l342 806h430v-43q-94 -7 -122 -36t-28 -121v-754q0 -91 25.5 -117.5t124.5 -39.5v-43h-567v43q96 9 124 32.5t28 95.5v868l-430 -1039h-46l-430 1014v-802q0 -95 33.5 -128.5 t138.5 -40.5v-43h-399z" />
<glyph unicode="N" horiz-adv-x="1232" d="M27 0v43q93 11 121.5 37t28.5 99v809q-62 74 -91 98.5t-54 24.5v43h361l595 -732v520q0 91 -32.5 125.5t-126.5 43.5v43h367v-43q-83 -13 -108 -38t-25 -98v-1006h-48l-762 929v-686q0 -91 32 -124.5t130 -44.5v-43h-388z" />
<glyph unicode="O" horiz-adv-x="1327" d="M60 572q0 266 171.5 436.5t439.5 170.5q169 0 306 -78.5t214 -217t77 -310.5q0 -174 -77 -312.5t-215 -215.5t-312 -77t-312 77t-215 215t-77 312zM362 556q0 -259 77.5 -395.5t224.5 -136.5t224.5 137.5t77.5 399.5q0 266 -78 414t-219 148q-150 0 -228.5 -145 t-78.5 -422z" />
<glyph unicode="P" horiz-adv-x="1042" d="M27 0v43q38 6 41 6q60 7 81.5 39t21.5 112v754q0 89 -27.5 119.5t-116.5 37.5v43h550q214 0 330.5 -81t116.5 -230q0 -99 -55 -173.5t-158 -114.5q-55 -23 -122 -29.5t-242 -8.5v-317q0 -41 3 -63.5t10.5 -40.5t26 -27t42.5 -14.5t68 -11.5v-43h-570zM447 577 q91 0 139.5 10t79.5 36q64 57 64 212q0 138 -46 198.5t-152 60.5q-85 0 -85 -60v-457z" />
<glyph unicode="Q" horiz-adv-x="1327" d="M60 565q0 175 78 315.5t216 219.5t310 79q264 0 434 -171.5t170 -437.5q0 -252 -160 -423q-54 -59 -111 -91.5t-161 -65.5q40 -81 80 -121q89 -89 216 -89q41 0 114 20l10 -41q-95 -34 -160.5 -46.5t-144.5 -12.5q-113 0 -215.5 39t-174.5 111q-29 28 -48 58.5t-47 88.5 q-98 36 -150 68.5t-104 91.5q-152 167 -152 408zM362 565q0 -266 76.5 -403.5t225.5 -137.5q147 0 224.5 137.5t77.5 401.5q0 267 -78.5 413.5t-221.5 146.5q-146 0 -225 -145t-79 -413z" />
<glyph unicode="R" horiz-adv-x="1232" d="M44 0v43q100 11 125.5 37.5t25.5 119.5v754q0 92 -28 121t-123 36v43h550q234 0 357.5 -78.5t123.5 -225.5q0 -119 -77 -191q-37 -33 -77 -53.5t-114 -44.5l343 -486q25 -32 70 -32v-43h-350l-353 534h-46v-334q0 -91 25.5 -117.5t124.5 -39.5v-43h-577zM471 589 q97 1 148 10.5t84 31.5q80 52 80 212q0 135 -51.5 194t-168.5 59q-65 0 -80 -26q-12 -24 -12 -46v-435z" />
<glyph unicode="S" horiz-adv-x="948" d="M60 -32v421h49q22 -89 43 -140.5t56 -98.5q98 -126 249 -126q98 0 156.5 52.5t58.5 141.5q0 67 -39 109t-152 96l-114 55q-152 73 -222 158t-70 197q0 161 100 253.5t274 92.5q90 0 200 -37q52 -19 71 -19q22 0 34 12.5t21 45.5h51v-370h-48q-25 83 -50 129t-69 91 q-92 95 -210 95q-87 0 -137.5 -45.5t-50.5 -124.5q0 -62 36.5 -102t139.5 -91l251 -125q82 -42 135 -128.5t53 -181.5q0 -161 -117 -260.5t-307 -99.5q-102 0 -222 41q-54 17 -70 17q-20 0 -32 -13t-19 -45h-49z" />
<glyph unicode="T" horiz-adv-x="1138" d="M53 811l5 343h1024l3 -343h-49q-22 152 -96 217.5t-232 70.5v-899q0 -52 4.5 -78.5t24.5 -44.5t49.5 -24t89.5 -10v-43h-610v43q110 9 138 35.5t28 121.5v899q-159 -5 -233.5 -70.5t-96.5 -217.5h-49z" />
<glyph unicode="U" horiz-adv-x="1232" d="M27 1111v43h577v-43q-103 -4 -130 -27q-35 -32 -35 -130v-570q0 -174 59.5 -253.5t190.5 -79.5q152 0 225.5 90.5t73.5 280.5v520q0 94 -33.5 127.5t-133.5 41.5v43h375v-43q-82 -13 -107.5 -41t-25.5 -104v-544q0 -119 -31.5 -212t-89.5 -142q-55 -47 -139.5 -73.5 t-179.5 -26.5q-193 0 -316 90q-78 56 -109 128.5t-31 197.5v570q0 92 -25 120t-115 37z" />
<glyph unicode="V" horiz-adv-x="1232" d="M27 1111v43h574v-43q-39 -3 -57 -3q-48 -2 -69 -17t-21 -45q0 -29 39 -123l236 -570l216 562q35 88 35 121q0 41 -27.5 54.5t-119.5 20.5v43h363v-43q-66 -9 -94 -34.5t-59 -105.5l-389 -1002h-46l-437 1023q-32 70 -56 90t-88 29z" />
<glyph unicode="W" horiz-adv-x="1706" d="M32 1111v43h502v-43q-66 -5 -87.5 -20t-21.5 -52q0 -20 12 -56l205 -621l201 525l-60 164q-14 31 -42 44.5t-81 15.5v43h533v-43q-10 -2 -22 -2q-57 -4 -79 -17t-22 -44q0 -18 24 -96l184 -573l191 585q12 32 12 72t-24 55.5t-93 19.5v43h310v-43q-85 -8 -118 -109 l-341 -1028h-46l-292 814l-317 -814h-48l-362 1028q-22 63 -43 82t-75 27z" />
<glyph unicode="X" horiz-adv-x="1232" d="M27 0v43q64 8 102 28t76 67l298 377l-337 497q-40 58 -65.5 76.5t-71.5 22.5v43h591v-43q-36 -3 -53 -3q-46 -2 -64 -14t-18 -39q0 -24 25 -63l166 -256q86 121 95 131q59 81 79 117.5t20 63.5q0 31 -19 44.5t-69 15.5q-2 1 -7 1t-13 0.5t-14 1.5v43h426v-43 q-95 -9 -152.5 -53t-168.5 -196l-136 -190l310 -483q61 -91 91.5 -117.5t74.5 -28.5v-43h-580v43q33 3 47 3q89 4 89 48q0 34 -36 92l-172 277l-65 -88q-97 -131 -128.5 -182.5t-31.5 -79.5q0 -32 30 -47t108 -23v-43h-427z" />
<glyph unicode="Y" horiz-adv-x="1232" d="M26 1111v43h571v-43l-42 -2q-53 0 -74.5 -11.5t-21.5 -39.5q0 -24 31 -80q8 -16 10 -21l205 -396l189 316q67 109 67 162q0 37 -29 51t-115 21v43h376v-43q-80 -12 -116 -67l-326 -530v-314q0 -67 11 -95.5t41.5 -41.5t104.5 -20v-43h-592v43q105 10 131.5 36.5 t26.5 120.5v251l-312 566q-53 90 -136 94z" />
<glyph unicode="Z" horiz-adv-x="1138" d="M48 0v27l652 1067q-135 -4 -142 -5h-20q-116 1 -182 -21q-72 -24 -119 -84t-89 -182h-47l36 352h894v-28l-647 -1066h126q124 0 221.5 17.5t140.5 48.5q60 42 95.5 103.5t70.5 181.5h44l-44 -411h-990z" />
<glyph unicode="[" horiz-adv-x="568" d="M114 -254v1411h400v-56h-108q-72 0 -93 -22.5t-21 -97.5v-1089q0 -55 16.5 -72.5t68.5 -17.5h137v-56h-400z" />
<glyph unicode="\" horiz-adv-x="474" d="M-43 1179h159l401 -1211h-157z" />
<glyph unicode="]" horiz-adv-x="568" d="M55 -198h136q54 0 69.5 16.5t15.5 73.5v1089q0 75 -21 97.5t-93 22.5h-107v56h399v-1411h-399v56z" />
<glyph unicode="^" horiz-adv-x="991" d="M125 531l303 623h137l304 -623h-152l-220 464l-221 -464h-151z" />
<glyph unicode="_" horiz-adv-x="853" d="M0 -128h853v-85h-853v85z" />
<glyph unicode="`" horiz-adv-x="568" d="M14 1140q0 32 23.5 54.5t56.5 22.5q50 0 92 -48l234 -268h-96l-242 150q-37 23 -52.5 43.5t-15.5 45.5z" />
<glyph unicode="a" horiz-adv-x="853" d="M43 157q0 107 109 183q86 59 350 138v124q0 78 -35 114.5t-109 36.5q-45 0 -76 -18.5t-31 -45.5q0 -14 20 -37q31 -42 31 -73q0 -44 -32.5 -71.5t-83.5 -27.5q-52 0 -81.5 29.5t-29.5 82.5q0 96 89 155.5t234 59.5q156 0 247 -63.5t91 -170.5v-445q0 -43 35 -43 q12 0 19 7l17 17l26 -36q-49 -53 -92.5 -75t-98.5 -22q-63 0 -94.5 27t-45.5 93q-70 -64 -133.5 -92t-136.5 -28q-82 0 -135.5 51.5t-53.5 129.5zM292 212q0 -51 24.5 -83t62.5 -32q57 0 121 74v247q-208 -55 -208 -206z" />
<glyph unicode="b" horiz-adv-x="948" d="M29 1113v41h331v-442q89 95 208 95q142 0 231.5 -111t89.5 -288q0 -191 -108 -311.5t-278 -120.5q-63 0 -114 22t-111 75l-135 -95h-20v1036q0 51 -17.5 69.5t-76.5 29.5zM360 166q0 -62 32 -98.5t86 -36.5q82 0 121 84.5t39 261.5q0 338 -158 338q-42 0 -70 -23.5 t-50 -77.5v-448z" />
<glyph unicode="c" horiz-adv-x="757" d="M43 381q0 184 114 305t288 121q113 0 189 -54t76 -133q0 -50 -31 -79t-85 -29q-93 0 -96 123q0 57 -1 66.5t-7 20.5q-17 32 -63 32q-67 0 -105.5 -75.5t-38.5 -207.5q0 -174 66 -277.5t177 -103.5q52 0 91 21t86 75l31 -31q-74 -95 -151 -137t-175 -42q-159 0 -262 114 t-103 291z" />
<glyph unicode="d" horiz-adv-x="948" d="M43 377q0 185 93 307.5t234 122.5q59 0 103.5 -23.5t99.5 -82.5v313q0 59 -21.5 75.5t-107.5 23.5v41h367v-982q0 -54 20.5 -74.5t79.5 -24.5v-39l-105 -14q-128 -15 -227 -42v111q-60 -64 -109.5 -88.5t-117.5 -24.5q-134 0 -221.5 113.5t-87.5 287.5zM295 391 q0 -319 133 -319q57 0 108 58q37 41 37 61v415q-18 48 -54.5 77t-78.5 29q-74 0 -109.5 -78t-35.5 -243z" />
<glyph unicode="e" horiz-adv-x="757" d="M43 389q0 187 98 302.5t258 115.5q145 0 229 -100q41 -49 62.5 -115.5t28.5 -173.5h-431q5 -87 16.5 -137t35.5 -92q54 -90 152 -90q55 0 99 25.5t95 88.5l41 -24q-83 -119 -156.5 -166t-176.5 -47q-159 0 -255 113t-96 300zM280 481h229v26q-4 125 -16 167 q-21 80 -94 80q-63 0 -89 -59.5t-30 -213.5z" />
<glyph unicode="f" horiz-adv-x="568" d="M24 0v41q59 7 78 27t19 75v569h-97v75h97q0 111 11 171t39 105q71 116 249 116q108 0 176 -47t68 -123q0 -47 -29.5 -76.5t-76.5 -29.5q-43 0 -72.5 27t-29.5 67q0 23 22 61q15 26 15 36q0 32 -49 32q-45 0 -65.5 -30.5t-20.5 -100.5v-208h149v-75h-149v-536 q0 -83 25.5 -108t114.5 -27v-41h-474z" />
<glyph unicode="g" horiz-adv-x="853" d="M48 -195q0 105 164 128q-82 29 -111 58t-29 82q0 131 203 200q-59 25 -90 45.5t-60 51.5q-62 76 -62 162q0 121 97 198t250 77q88 0 191 -37h222v-91h-139q69 -69 69 -167q0 -139 -116 -205q-43 -25 -82 -34.5t-99 -9.5l-77 2q-51 0 -83.5 -25.5t-32.5 -63.5 q0 -36 33.5 -48t136.5 -12h111q131 0 205.5 -56t74.5 -154q0 -127 -110.5 -192.5t-322.5 -65.5q-161 0 -252 41.5t-91 115.5zM198 -183q0 -114 229 -114q127 0 194.5 32t67.5 91q0 85 -136 85h-295q-36 -29 -48 -48t-12 -46zM297 531q0 -119 26 -169.5t87 -50.5 q60 0 86 50.5t26 169.5t-26 171t-86 52t-86.5 -51.5t-26.5 -171.5z" />
<glyph unicode="h" horiz-adv-x="948" d="M27 0v41q58 11 74.5 29.5t16.5 72.5v871q0 53 -16 70.5t-75 28.5v41h328v-480q67 74 120.5 103.5t121.5 29.5q105 0 168 -65t63 -175v-424q0 -54 18.5 -76t64.5 -26v-41h-401v41q44 5 62.5 27.5t18.5 69.5v413q0 142 -89 142q-60 0 -118 -60q-29 -26 -29 -39v-456 q0 -47 18.5 -68.5t65.5 -28.5v-41h-412z" />
<glyph unicode="i" horiz-adv-x="474" d="M27 0v41q59 14 75 32t16 70v502q0 52 -17 71t-74 30v41h328v-649q0 -48 17.5 -69t62.5 -28v-41h-408zM102 1048q0 54 39.5 92.5t94.5 38.5t93 -39t38 -94q0 -56 -38.5 -93.5t-94.5 -37.5t-94 37.5t-38 95.5z" />
<glyph unicode="j" horiz-adv-x="568" d="M-97 -176q0 46 29.5 75t76.5 29q41 0 70.5 -27t29.5 -65q0 -25 -24 -63q-15 -25 -15 -38t15.5 -21t39.5 -8q42 0 62 31.5t20 98.5v809q0 55 -21.5 75.5t-86.5 25.5v41h345v-784q0 -141 -46 -220q-74 -129 -256 -129q-105 0 -172 47.5t-67 122.5zM184 1048q0 54 38.5 92.5 t93.5 38.5t94 -39t39 -94t-39 -93t-94 -38q-58 0 -95 37.5t-37 95.5z" />
<glyph unicode="k" horiz-adv-x="948" d="M38 0v41q42 4 61.5 28t19.5 74v871q0 49 -19 72t-62 27v41h319v-736l218 219q14 14 25 33.5t11 30.5q0 33 -60 40q-2 1 -41 7v39h366v-39q-81 -10 -137.5 -49.5t-185.5 -174.5l331 -457q19 -26 43 -26v-41h-400v41q72 3 72 32q0 16 -41 77l-162 229l-39 -41v-195 q0 -60 14 -76.5t74 -25.5v-41h-407z" />
<glyph unicode="l" horiz-adv-x="474" d="M27 0v41q87 7 87 102v871q0 92 -87 99v41h325v-1011q0 -99 83 -102v-41h-408z" />
<glyph unicode="m" horiz-adv-x="1421" d="M27 0v41q57 11 75.5 30.5t18.5 71.5v502q0 53 -19 73.5t-75 27.5v41h326v-128q94 148 251 148q81 0 131 -33.5t88 -114.5q67 82 122.5 115t127.5 33q105 0 168 -65t63 -175v-429q0 -55 17.5 -75t67.5 -22v-41h-406v41q49 4 66.5 23.5t17.5 73.5v413q0 76 -21 109t-70 33 q-41 0 -95 -41q-17 -13 -33.5 -32t-16.5 -26v-456q0 -49 17.5 -70.5t62.5 -26.5v-41h-399v41q47 4 64.5 24.5t17.5 72.5v413q0 77 -21 109.5t-71 32.5q-42 0 -94 -39q-17 -13 -33.5 -33t-16.5 -27v-456q0 -49 17 -69.5t62 -27.5v-41h-410z" />
<glyph unicode="n" horiz-adv-x="948" d="M36 0v41q58 11 74 29.5t16 72.5v502q0 54 -17 73t-73 28v41h326v-128q92 148 244 148q105 0 167.5 -65t62.5 -175v-429q0 -54 17 -73.5t67 -23.5v-41h-401v41q43 5 61.5 27.5t18.5 69.5v413q0 142 -89 142q-59 0 -117 -60q-29 -26 -29 -39v-456q0 -48 18 -69t65 -28v-41 h-411z" />
<glyph unicode="o" horiz-adv-x="853" d="M43 396q0 174 111 292.5t274 118.5q165 0 274.5 -118.5t109.5 -297.5q0 -178 -109.5 -296.5t-274.5 -118.5q-168 0 -276.5 118.5t-108.5 301.5zM294 365q0 -188 29.5 -262t104.5 -74q74 0 103.5 77.5t29.5 274.5q0 210 -28.5 291.5t-102.5 81.5q-54 0 -83 -35.5 t-41 -117.5t-12 -236z" />
<glyph unicode="p" horiz-adv-x="948" d="M32 -309q61 10 78.5 28t17.5 71v855q0 54 -17.5 73t-74.5 28v41h326v-118q40 74 89.5 106t125.5 32q142 0 229.5 -110.5t87.5 -288.5q0 -189 -92 -309.5t-235 -120.5q-57 0 -99 21t-103 81v-240q0 -86 27.5 -118t105.5 -36v-36h-466v41zM365 176q19 -49 54.5 -76.5 t77.5 -27.5q145 0 145 312q0 168 -31.5 247t-98.5 79q-59 0 -111 -58q-36 -40 -36 -61v-415z" />
<glyph unicode="q" horiz-adv-x="948" d="M58 374q0 190 106 311.5t273 121.5q63 0 111 -21t114 -76l133 96h26v-1016q0 -51 17.5 -69.5t76.5 -29.5v-41h-456v43q83 15 104 38.5t21 102.5v238q-53 -51 -101.5 -73.5t-108.5 -22.5q-139 0 -227.5 111t-88.5 287zM307 403q0 -335 159 -335q44 0 74.5 26t43.5 73v449 q0 61 -32 99t-83 38q-162 0 -162 -350z" />
<glyph unicode="r" horiz-adv-x="757" d="M49 0v41q57 11 75 30.5t18 71.5v502q0 51 -19.5 72.5t-73.5 28.5v41h323v-140q60 86 113 123t117 37q60 0 99.5 -37.5t39.5 -95.5q0 -50 -30.5 -82t-77.5 -32q-33 0 -55.5 13.5t-46.5 47.5q-27 39 -48 39q-42 0 -73 -48t-31 -114v-322q0 -80 23 -105t101 -30v-41h-454z " />
<glyph unicode="s" horiz-adv-x="663" d="M43 -22v281h47q55 -225 234 -225q58 0 93 30.5t35 80.5q0 41 -38.5 76t-125.5 73q-129 55 -185.5 117t-56.5 147q0 107 76 178t192 71q59 0 133 -25q36 -12 55 -12q28 0 41 34h37v-248h-42q-19 55 -36.5 84.5t-44.5 55.5q-58 55 -128 55q-48 0 -80 -28.5t-32 -70.5 q0 -43 38.5 -78t125.5 -72q127 -54 181 -115t54 -151q0 -115 -73.5 -187.5t-189.5 -72.5q-36 0 -93 12t-91 27q-27 11 -39 11q-20 0 -45 -48h-42z" />
<glyph unicode="t" horiz-adv-x="568" d="M34 712v46q83 71 144 139t139 178h43v-288h161v-75h-161v-514q0 -51 15.5 -74t51.5 -23q27 0 49.5 20t47.5 68l43 -18q-52 -105 -109.5 -148t-143.5 -43q-89 0 -140 48t-51 131v553h-89z" />
<glyph unicode="u" horiz-adv-x="948" d="M27 746v41h321v-579q0 -65 22 -93t74 -28q36 0 67 16.5t73 58.5v483q0 55 -21 75.5t-85 25.5v41h343v-615q0 -55 19.5 -76t75.5 -23v-39l-105 -12q-89 -10 -131.5 -17.5t-94.5 -26.5v111q-75 -64 -128 -88.5t-119 -24.5q-107 0 -167 63.5t-60 175.5v430q0 54 -15.5 72 t-68.5 29z" />
<glyph unicode="v" horiz-adv-x="853" d="M36 746v41h427v-41q-28 -4 -31 -4q-60 -4 -60 -41q0 -12 15 -52l135 -347l123 311q19 49 19 76q0 31 -19.5 43t-74.5 14v41h258v-41q-40 -4 -57.5 -20.5t-41.5 -73.5l-273 -676h-45l-204 505q-13 33 -39.5 92t-48.5 103.5t-23 43.5q-13 20 -60 26z" />
<glyph unicode="w" horiz-adv-x="1232" d="M39 746v41h379v-41q-36 -5 -50.5 -16t-14.5 -32q0 -30 67 -196q21 -56 36 -92l41 -110l116 292l-11 33q-24 85 -37 100.5t-63 20.5v41h399v-41q-49 -4 -65.5 -12.5t-16.5 -28.5q0 -21 46 -181q35 -124 58 -217q20 57 60 161q75 191 75 218q0 29 -17.5 42t-64.5 18v41h231 v-41q-33 -7 -49.5 -23t-36.5 -63l-264 -684h-40l-174 529l-213 -529h-41l-252 638q-34 84 -49.5 104.5t-48.5 27.5z" />
<glyph unicode="x" horiz-adv-x="853" d="M20 746v41h427v-41q-80 -3 -80 -33q0 -16 28.5 -64t70.5 -103q13 -18 22 -29q44 61 62 79q64 73 64 109q0 19 -12 27t-41 10q-4 0 -34 4v41h287v-41q-74 -13 -119 -67l-173 -215l253 -389q14 -22 51 -34v-41h-411v41q77 4 77 34q0 27 -57 109l-71 108q-5 -6 -11.5 -14 t-11 -13t-5.5 -7q-49 -59 -79 -108t-30 -68q0 -37 85 -41v-41h-288v41q47 2 83.5 32.5t109.5 126.5q7 11 22.5 31t43.5 55t45 57l-219 336q-26 39 -41 50.5t-48 16.5z" />
<glyph unicode="y" horiz-adv-x="853" d="M27 -215q0 48 31 78.5t79 30.5q44 0 71.5 -23t27.5 -60q0 -6 -4 -24q-2 -5 -2 -11q0 -11 9 -20t20 -9q29 0 60 38t53 102l31 91l-205 503q-22 55 -64.5 147t-46.5 92q-13 20 -60 26v41h427v-41l-27 -2q-63 -4 -63 -43q0 -13 34 -100l123 -316l116 328q18 52 18 76 q0 31 -19.5 43t-74.5 14v41h258v-41q-40 -4 -58.5 -22t-40.5 -72l-254 -678q-80 -214 -130 -268q-56 -56 -143 -56q-73 0 -119.5 38t-46.5 97z" />
<glyph unicode="z" horiz-adv-x="757" d="M36 0v43l399 689h-34q-41 0 -71 -2q-42 -2 -76.5 -10t-55.5 -20t-38.5 -35t-28.5 -50.5t-22 -70.5h-44l12 243h633v-45l-394 -687h49q103 0 155 20.5t93 76.5q36 48 56 121h48l-28 -273h-653z" />
<glyph unicode="{" horiz-adv-x="672" d="M38 445q109 27 145.5 67t36.5 131v306q0 140 85 193q41 27 100.5 37t174.5 12v-20q-102 -22 -141.5 -68t-39.5 -144v-292q0 -107 -40.5 -151.5t-160.5 -70.5q120 -26 160.5 -70t40.5 -151v-292q0 -97 40 -143.5t141 -66.5v-21q-124 1 -189 15.5t-104 47.5q-67 55 -67 178 v305q0 91 -36.5 131t-145.5 67z" />
<glyph unicode="|" horiz-adv-x="375" d="M113 -32v1211h150v-1211h-150z" />
<glyph unicode="}" horiz-adv-x="672" d="M92 -278q103 22 142 67.5t39 143.5v292q0 106 41 151t160 71q-120 26 -160.5 70.5t-40.5 151.5v292q0 96 -40 143t-141 67v20q116 -2 175 -12t100 -37q85 -53 85 -191v-306q0 -91 37 -131t146 -67q-109 -27 -146 -67t-37 -131v-305q0 -140 -85 -193q-41 -27 -101 -37.5 t-174 -12.5v21z" />
<glyph unicode="~" horiz-adv-x="887" d="M49 422q44 76 93.5 109.5t118.5 33.5q42 0 87.5 -14.5t141.5 -57.5q102 -44 138 -44q56 0 116 77l94 -82q-58 -81 -104.5 -113t-105.5 -32q-42 0 -81 12t-98 44q-110 60 -191 60q-37 0 -63 -15.5t-55 -56.5z" />
<glyph unicode="&#x591;" d="M-157 -299q0 38 33 66.5t76 34.5v96q0 10 8.5 17.5t19.5 7.5h40q11 0 19.5 -7.5t8.5 -17.5v-96q41 -8 75 -35.5t34 -65.5v-76q0 -11 -7 -18.5t-17 -7.5h-44q-10 0 -17 7.5t-7 18.5v71q0 27 -19 46t-46 19t-46 -19t-19 -46v-71q0 -11 -7 -18.5t-17 -7.5h-44q-10 0 -17 7.5 t-7 18.5v76z" />
<glyph unicode="&#x592;" d="M-177 1198q0 27 18 46t45 19t45 -19t18 -46q0 -26 -18 -44.5t-45 -18.5t-45 18.5t-18 44.5zM-65 1396q0 26 19 44.5t46 18.5t46 -18.5t19 -44.5q0 -27 -19 -46t-46 -19t-46 19t-19 46zM51 1198q0 27 18 46t45 19t45 -19t18 -46q0 -26 -18 -44.5t-45 -18.5t-45 18.5 t-18 44.5z" />
<glyph unicode="&#x593;" d="M-131.5 1371.5q-5.5 13.5 2.5 22.5t27 9h102l-109 82q-17 13 -22.5 24.5t2 19t27.5 7.5h124q30 0 48 -14l24 -18q21 -18 18.5 -31.5t-30.5 -13.5h-70l99 -71q15 -12 20.5 -24t-1.5 -20t-26 -8h-104l111 -83q15 -12 20.5 -24t-1.5 -20t-26 -8h-104l32 -23q14 -10 19 -20 t-1.5 -16.5t-25.5 -6.5h-21q-30 0 -51 15l-60 46q-17 13 -23 30t2 29.5t27 12.5h97l-103 77q-18 13 -23.5 26.5z" />
<glyph unicode="&#x594;" d="M-65 1198q0 27 19 46t46 19t46 -19t19 -46q0 -26 -19 -44.5t-46 -18.5t-46 18.5t-19 44.5zM-65 1396q0 26 19 44.5t46 18.5t46 -18.5t19 -44.5q0 -27 -19 -46t-46 -19t-46 19t-19 46z" />
<glyph unicode="&#x595;" d="M-150 1164v266q0 10 8 17t19 7h41q11 0 19 -7t8 -17v-266q0 -10 -8 -17t-19 -7h-41q-11 0 -19 7t-8 17zM20 1198q0 27 19 46t46 19t46 -19t19 -46q0 -26 -19 -44.5t-46 -18.5t-46 18.5t-19 44.5zM20 1396q0 26 19 44.5t46 18.5t46 -18.5t19 -44.5q0 -27 -19 -46t-46 -19 t-46 19t-19 46z" />
<glyph unicode="&#x596;" d="M-116 -101q0 11 7 17.5t17 6.5q21 0 24 -20q19 -118 55 -172.5t107 -90.5q22 -11 22 -41q0 -22 -14.5 -36.5t-36.5 -14.5q-16 0 -29 10q-71 52 -110.5 145t-41.5 196z" />
<glyph unicode="&#x597;" d="M-119 1289q0 21 15 29q61 30 82 105q5 18 21 18.5t23 -19.5q23 -77 82 -104q15 -8 15 -29t-15 -29q-60 -30 -82 -106q-5 -18 -22 -18.5t-22 18.5q-22 76 -82 106q-15 8 -15 29z" />
<glyph unicode="&#x598;" d="M-247 1266q0 55 38.5 94t92.5 39q55 0 94 -39l131 -129q14 -14 34 -14t35 14.5t15 34.5q0 32 -23 54.5t-54 22.5q-11 0 -19 8t-8 19t8 20t19 9q54 0 92.5 -39t38.5 -94q0 -54 -38.5 -92.5t-92.5 -38.5q-55 0 -94 39l-131 128q-14 14 -34 14t-35 -15t-15 -35q0 -32 23 -54 t54 -22q11 0 19 -8.5t8 -19.5t-8 -19t-19 -8q-54 0 -92.5 38.5t-38.5 92.5z" />
<glyph unicode="&#x599;" d="M-116 1459q0 22 14.5 36.5t36.5 14.5q16 0 29 -10q71 -52 110.5 -145t41.5 -196q0 -11 -7 -17.5t-17 -6.5q-21 0 -24 20q-19 118 -55 172.5t-107 90.5q-22 11 -22 41z" />
<glyph unicode="&#x59a;" d="M-186 -244q0 10 17 17l314 131q3 2 10 2q13 0 22 -9t9 -20q0 -19 -19 -29l-187 -78l182 -75q24 -10 24 -36v-43q0 -24 -24 -15l-331 138q-17 7 -17 17z" />
<glyph unicode="&#x59b;" d="M-145 -201q0 27 19 45.5t46 18.5t45 -18.5t18 -45.5q0 -26 -18 -45t-45 -19t-46 19t-19 45zM-89 -401q0 29 24 41q48 25 77 53t50 78.5t34 131.5q3 20 23 20q11 0 18.5 -7t7.5 -17q-4 -105 -42.5 -197.5t-109.5 -143.5q-13 -10 -31 -10q-21 0 -36 15t-15 36z" />
<glyph unicode="&#x59c;" d="M-116 1159q2 103 41.5 196t110.5 145q13 10 29 10q22 0 36.5 -14.5t14.5 -36.5q0 -30 -22 -41q-71 -36 -107 -90.5t-55 -172.5q-3 -20 -24 -20q-10 0 -17 6.5t-7 17.5z" />
<glyph unicode="&#x59d;" d="M-116 1159q2 103 41.5 196t110.5 145q13 10 29 10q22 0 36.5 -14.5t14.5 -36.5q0 -30 -22 -41q-71 -36 -107 -90.5t-55 -172.5q-3 -20 -24 -20q-10 0 -17 6.5t-7 17.5z" />
<glyph unicode="&#x59e;" d="M-218 1159q2 104 41 196.5t110 144.5q13 10 29 10q22 0 37 -14.5t15 -36.5q0 -29 -23 -41q-71 -36 -107 -90.5t-55 -172.5q-3 -20 -24 -20q-23 0 -23 24zM-14 1159q2 103 41.5 196t110.5 145q13 10 29 10q22 0 36.5 -14.5t14.5 -36.5q0 -30 -22 -41q-71 -36 -107 -90.5 t-55 -172.5q-3 -20 -24 -20q-10 0 -17 6.5t-7 17.5z" />
<glyph unicode="&#x59f;" d="M-357 1417q20 56 75 81.5t111 5.5q64 -24 86.5 -89t-12.5 -123q-13 -20 -5 -34l46 -75q12 -21 -9 -28l-49 -17q-21 -8 -28 12l-22 67q-4 13 -24 10q-41 -11 -82 4q-56 20 -81.5 75t-5.5 111zM-295 1384q-11 -33 3 -64t46 -42t63.5 3.5t42.5 46.5q13 32 -1.5 63t-47.5 44 q-32 11 -63.5 -3.5t-42.5 -47.5zM56 1183l46 75q8 14 -5 34q-35 58 -12.5 123t86.5 89q56 20 111 -5.5t75 -81.5t-5.5 -111t-81.5 -75q-41 -15 -82 -4q-20 3 -24 -10l-22 -67q-7 -20 -28 -12l-49 17q-21 7 -9 28zM140 1328q11 -32 42.5 -46.5t63.5 -3.5t46 42t3 64 t-42.5 47.5t-63.5 3.5q-33 -13 -47.5 -44t-1.5 -63z" />
<glyph unicode="&#x5a0;" d="M-152 1183l44 75q9 15 -3 34q-36 58 -13.5 123t86.5 89q56 20 111 -5.5t75 -81.5t-5.5 -111t-81.5 -75q-41 -15 -83 -4q-18 3 -22 -10l-23 -67q-7 -19 -29 -12l-47 17q-24 8 -9 28zM-70 1328q11 -32 43 -46.5t65 -3.5q32 11 46 42t3 64t-42.5 47.5t-64.5 3.5 q-32 -13 -46.5 -44t-3.5 -63z" />
<glyph unicode="&#x5a1;" d="M-152 1164v266q0 10 7.5 17t18.5 7h42q11 0 18.5 -7t7.5 -17v-141h32q45 0 64.5 19t19.5 61v61q0 10 7.5 17t18.5 7h42q11 0 18.5 -7t7.5 -17v-80q0 -54 -26.5 -79t-82.5 -25h-101v-82q0 -10 -7.5 -17t-18.5 -7h-42q-11 0 -18.5 7t-7.5 17z" />
<glyph unicode="&#x5a3;" d="M-196 -307q0 11 7 18t18 7h308v180q0 10 7.5 17.5t17.5 7.5h9q11 0 18 -7.5t7 -17.5v-248q0 -10 -7 -17.5t-18 -7.5h-342q-11 0 -18 7.5t-7 17.5v43z" />
<glyph unicode="&#x5a4;" d="M-186 -244q0 10 17 17l314 131q3 2 10 2q13 0 22 -9t9 -20q0 -19 -19 -29l-187 -78l182 -75q24 -10 24 -36v-43q0 -24 -24 -15l-331 138q-17 7 -17 17z" />
<glyph unicode="&#x5a5;" d="M-116 -401q0 30 22 41q71 36 107 90.5t55 172.5q3 20 24 20q10 0 17 -6.5t7 -17.5q-2 -103 -41.5 -196t-110.5 -145q-13 -10 -29 -10q-22 0 -36.5 14.5t-14.5 36.5z" />
<glyph unicode="&#x5a6;" d="M-218 -401q0 30 22 41q71 36 107 90.5t55 172.5q3 20 24 20q10 0 17 -6.5t7 -17.5q-2 -103 -41.5 -196t-110.5 -145q-13 -10 -29 -10q-22 0 -36.5 14.5t-14.5 36.5zM-14 -401q0 29 23 41q71 36 107 90.5t55 172.5q3 20 24 20q23 0 23 -24q-2 -104 -41 -196.5t-110 -144.5 q-13 -10 -29 -10q-22 0 -37 14.5t-15 36.5z" />
<glyph unicode="&#x5a7;" d="M-133 -123q0 13 6.5 21t15.5 8h222q9 0 15.5 -8t6.5 -21v-27q0 -13 -6.5 -21t-15.5 -8h-164l161 -161q11 -12 14.5 -17t7 -15t3.5 -24v-26q0 -11 -6.5 -20t-15.5 -9h-222q-9 0 -15.5 9t-6.5 20v29q0 11 6.5 19.5t15.5 8.5h166l-159 158q-29 29 -29 59v25z" />
<glyph unicode="&#x5a8;" d="M-116 1459q0 22 14.5 36.5t36.5 14.5q16 0 29 -10q71 -52 110.5 -145t41.5 -196q0 -11 -7 -17.5t-17 -6.5q-21 0 -24 20q-19 118 -55 172.5t-107 90.5q-22 11 -22 41z" />
<glyph unicode="&#x5a9;" d="M-148 1417q20 56 75 81.5t111 5.5q64 -24 86.5 -89t-13.5 -123q-12 -19 -3 -34l44 -75q15 -20 -9 -28l-47 -17q-22 -7 -29 12l-23 67q-4 13 -22 10q-42 -11 -83 4q-56 20 -81.5 75t-5.5 111zM-87 1384q-11 -33 3 -64t46 -42q33 -11 65 3.5t43 46.5t-3.5 63t-46.5 44 q-33 11 -64.5 -3.5t-42.5 -47.5z" />
<glyph unicode="&#x5aa;" d="M-157 -102q0 11 7 18t17 7h44q10 0 17 -7t7 -18v-72q0 -27 19 -46t46 -19t46 19t19 46v72q0 11 7 18t17 7h44q10 0 17 -7t7 -18v-77q0 -38 -34 -65.5t-75 -35.5v-95q0 -10 -8.5 -18t-19.5 -8h-40q-11 0 -19.5 8t-8.5 18v95q-43 6 -76 34.5t-33 66.5v77z" />
<glyph unicode="&#x5ab;" d="M-186 1290q0 10 17 17l314 132q1 0 5 0.5t5 0.5q13 0 22 -8.5t9 -21.5q0 -18 -19 -28l-187 -78l182 -75q24 -10 24 -36v-43q0 -24 -24 -15l-331 138q-17 7 -17 17z" />
<glyph unicode="&#x5ac;" d="M-196 1161v42q0 11 7.5 18.5t17.5 7.5h308v179q0 11 7.5 18.5t17.5 7.5h9q10 0 17.5 -7.5t7.5 -18.5v-247q0 -11 -7.5 -18.5t-17.5 -7.5h-342q-10 0 -17.5 7.5t-7.5 18.5z" />
<glyph unicode="&#x5ad;" d="M-116 -101q0 11 7 17.5t17 6.5q21 0 24 -20q19 -118 55 -172.5t107 -90.5q22 -11 22 -41q0 -22 -14.5 -36.5t-36.5 -14.5q-16 0 -29 10q-71 52 -110.5 145t-41.5 196z" />
<glyph unicode="&#x5ae;" d="M-247 1266q0 55 38.5 94t92.5 39q55 0 94 -39l131 -129q14 -14 34 -14t35 14.5t15 34.5q0 32 -23 54.5t-54 22.5q-11 0 -19 8t-8 19t8 20t19 9q54 0 92.5 -39t38.5 -94q0 -54 -38.5 -92.5t-92.5 -38.5q-55 0 -94 39l-131 128q-14 14 -34 14t-35 -15t-15 -35q0 -32 23 -54 t54 -22q11 0 19 -8.5t8 -19.5t-8 -19t-19 -8q-54 0 -92.5 38.5t-38.5 92.5z" />
<glyph unicode="&#x5af;" d="M-152 1287q0 63 44.5 107.5t107.5 44.5t107.5 -44.5t44.5 -107.5t-44.5 -107.5t-107.5 -44.5t-107.5 44.5t-44.5 107.5zM-84 1287q0 -35 25 -59.5t59 -24.5t59 24.5t25 59.5q0 34 -24.5 58.5t-59.5 24.5t-59.5 -24.5t-24.5 -58.5z" />
<glyph unicode="&#x5b0;" d="M-65 -140q0 26 19 44.5t46 18.5t46 -18.5t19 -44.5q0 -27 -19 -46t-46 -19t-46 19t-19 46zM-65 -338q0 27 19 46t46 19t46 -19t19 -46q0 -26 -19 -44.5t-46 -18.5t-46 18.5t-19 44.5z" />
<glyph unicode="&#x5b1;" d="M-290 -140q0 26 19 44.5t46 18.5t46 -18.5t19 -44.5q0 -27 -19 -46t-46 -19t-46 19t-19 46zM-174 -338q0 27 18 46t45 19t45 -19t18 -46q0 -26 -18 -44.5t-45 -18.5t-45 18.5t-18 44.5zM-61 -140q0 26 18.5 44.5t45.5 18.5t46 -18.5t19 -44.5q0 -27 -19 -46t-46 -19 t-45.5 19t-18.5 46zM160 -140q0 26 19 44.5t46 18.5t46 -18.5t19 -44.5q0 -27 -19 -46t-46 -19t-46 19t-19 46zM160 -338q0 27 19 46t46 19t46 -19t19 -46q0 -26 -19 -44.5t-46 -18.5t-46 18.5t-19 44.5z" />
<glyph unicode="&#x5b2;" d="M-290 -119q0 11 7 18t18 7h304q11 0 18.5 -7t7.5 -18v-43q0 -11 -7.5 -18.5t-18.5 -7.5h-304q-11 0 -18 7.5t-7 18.5v43zM159 -140q0 26 19 44.5t46 18.5t45 -18.5t18 -44.5q0 -27 -18 -46t-45 -19t-46 19t-19 46zM159 -338q0 27 19 46t46 19t45 -19t18 -46 q0 -26 -18 -44.5t-45 -18.5t-46 18.5t-19 44.5z" />
<glyph unicode="&#x5b3;" d="M-290 -119q0 11 7 18t18 7h304q11 0 18.5 -7t7.5 -18v-43q0 -11 -7.5 -18.5t-18.5 -7.5h-56q-36 0 -50.5 -10.5t-14.5 -37.5q0 -39 17 -59q16 -16 16 -43q0 -26 -18.5 -44.5t-45.5 -18.5t-45.5 18.5t-18.5 44.5q0 24 17 44q5 6 8.5 12t5 13.5t2 11t0 12t-0.5 9.5 q0 27 -14.5 37.5t-48.5 10.5h-57q-11 0 -18 7.5t-7 18.5v43zM159 -140q0 26 19 44.5t46 18.5t45 -18.5t18 -44.5q0 -27 -18 -46t-45 -19t-46 19t-19 46zM159 -338q0 27 19 46t46 19t45 -19t18 -46q0 -26 -18 -44.5t-45 -18.5t-46 18.5t-19 44.5z" />
<glyph unicode="&#x5b4;" d="M-65 -140q0 26 19 44.5t46 18.5t46 -18.5t19 -44.5q0 -27 -19 -46t-46 -19t-46 19t-19 46z" />
<glyph unicode="&#x5b5;" d="M-162 -140q0 26 19 44.5t44 18.5q27 0 46 -18.5t19 -44.5q0 -27 -19 -46t-46 -19q-26 0 -44.5 19t-18.5 46zM34 -140q0 26 19 44.5t46 18.5q25 0 44 -18.5t19 -44.5q0 -27 -18.5 -46t-44.5 -19q-27 0 -46 19t-19 46z" />
<glyph unicode="&#x5b6;" d="M-177 -140q0 26 18 44.5t45 18.5t45 -18.5t18 -44.5q0 -27 -18 -46t-45 -19t-45 19t-18 46zM-65 -338q0 27 19 46t46 19t46 -19t19 -46q0 -26 -19 -44.5t-46 -18.5t-46 18.5t-19 44.5zM51 -140q0 26 18 44.5t45 18.5t45 -18.5t18 -44.5q0 -27 -18 -46t-45 -19t-45 19 t-18 46z" />
<glyph unicode="&#x5b7;" d="M-196 -119q0 11 7 18t18 7h342q11 0 18 -7t7 -18v-43q0 -11 -7.5 -18.5t-17.5 -7.5h-342q-10 0 -17.5 7.5t-7.5 18.5v43z" />
<glyph unicode="&#x5b8;" d="M-196 -120q0 11 7.5 18.5t17.5 7.5h341q10 0 18 -8t8 -18v-43q0 -10 -7.5 -17.5t-18.5 -7.5h-75q-36 0 -50 -10.5t-14 -37.5q0 -39 17 -59v-1q17 -17 17 -42q0 -26 -19 -45t-46 -19t-46 19t-19 45q0 24 17 44q17 18 17 58q0 26 -15.5 37t-49.5 11h-75q-11 0 -18 7t-7 18 v43z" />
<glyph unicode="&#x5b9;" d="M-65 1164q0 27 19 46t46 19t46 -19t19 -46q0 -26 -19 -44.5t-46 -18.5t-46 18.5t-19 44.5z" />
<glyph unicode="&#x5bb;" d="M-242 -140q0 26 18 44.5t45 18.5t45 -18.5t18 -44.5q0 -27 -18 -46t-45 -19t-45 19t-18 46zM-65 -239q0 27 19 46t46 19t46 -19t19 -46t-19 -46t-46 -19t-46 19t-19 46zM116 -338q0 27 18 46t45 19t45 -19t18 -46q0 -26 -18 -44.5t-45 -18.5t-45 18.5t-18 44.5z" />
<glyph unicode="&#x5bc;" d="M-65 513q0 27 19 46t46 18v1q27 0 46 -19t19 -46t-19 -46t-46 -19t-46 19t-19 46z" />
<glyph unicode="&#x5bd;" d="M-48 -102q0 10 8.5 17.5t19.5 7.5h40q11 0 19.5 -7.5t8.5 -17.5v-265q0 -10 -8.5 -18t-19.5 -8h-40q-11 0 -19.5 8t-8.5 18v265z" />
<glyph unicode="&#x5be;" horiz-adv-x="738" d="M61 795v185q0 44 45 44h524q51 0 51 -43v-187q0 -43 -51 -43h-524q-45 0 -45 44z" />
<glyph unicode="&#x5bf;" d="M-171 1142v42q0 10 7.5 18t18.5 8h290q11 0 18.5 -8t7.5 -18v-42q0 -10 -7.5 -18t-18.5 -8h-290q-11 0 -18.5 8t-7.5 18z" />
<glyph unicode="&#x5c0;" horiz-adv-x="264" d="M85 0v1101q0 10 7.5 17.5t18.5 7.5h43q10 0 17.5 -7t7.5 -18v-1101q0 -11 -7.5 -18.5t-17.5 -7.5h-43q-11 0 -18.5 8t-7.5 18z" />
<glyph unicode="&#x5c1;" d="M1034 1140q0 26 19 44.5t46 18.5t46 -18.5t19 -44.5q0 -27 -19 -46t-46 -19t-46 19t-19 46z" />
<glyph unicode="&#x5c2;" d="M230 1140q0 26 19 44.5t45 18.5h-1q27 0 46 -18.5t19 -44.5q0 -27 -19 -46t-46 -19q-26 0 -44.5 19t-18.5 46z" />
<glyph unicode="&#x5c3;" horiz-adv-x="682" d="M171 256.5q0 23.5 22 30.5q85 35 116 117q9 22 32 22t31 -22q36 -86 118 -117q22 -7 22 -30.5t-22 -32.5q-40 -15 -71.5 -46t-46.5 -70q-8 -22 -31 -22t-30 22q-15 39 -46.5 70t-71.5 46q-22 9 -22 32.5zM171 887.5q0 23.5 22 30.5q40 17 70.5 47.5t45.5 70.5 q9 22 32.5 22t30.5 -22q17 -40 48 -71.5t70 -46.5q22 -8 22 -31t-22 -32q-40 -15 -71.5 -46t-46.5 -70q-8 -22 -30.5 -22t-30.5 22q-15 39 -46.5 70t-71.5 46q-22 9 -22 32.5z" />
<glyph unicode="&#x5c4;" d="M-65 1164q0 27 19 46t46 19t46 -19t19 -46q0 -26 -19 -44.5t-46 -18.5t-46 18.5t-19 44.5z" />
<glyph unicode="&#x5d0;" horiz-adv-x="1012" d="M72 300q9 104 35.5 163t104.5 148q8 17 -4 32q-8 9 -31 35.5t-30.5 36t-21.5 28.5t-20 34t-9 32q-20 108 23 196q9 20 31.5 44.5t42.5 37.5q24 15 39.5 11.5t14.5 -26.5q-4 -43 7 -75q27 -78 69 -132t116 -114l170 -145q19 -12 29 7q41 77 51 97q15 28 -10 46 q-41 36 -59 62t-26 71q-5 28 1.5 65.5t15.5 55.5q24 49 65 75q16 10 26 13.5t17.5 -1.5t10.5 -8.5t11 -22t12 -27.5q11 -23 44 -44q2 -1 22.5 -13.5t28 -18t25.5 -19.5t27 -25t19.5 -28t15.5 -34q9 -32 10.5 -60t-6.5 -56.5t-14.5 -44t-21.5 -47.5q-10 -22 -25.5 -33 t-25.5 2q-25 40 -70 66q-11 7 -24.5 3.5t-20.5 -15.5l-51 -95q-8 -21 7 -33q62 -51 96 -81.5t68.5 -72t50.5 -84t20 -94.5q4 -55 -16.5 -109t-59.5 -86q-21 -16 -34.5 -17.5t-20 13t-9 27.5t-4.5 37q-1 5 -1 8q-2 18 -12.5 40t-34.5 49t-43.5 48t-59 55.5t-60 52t-68 57 t-63.5 52.5q-24 21 -84.5 73.5t-79.5 67.5q-17 11 -29 -3q-47 -53 -44 -96q4 -37 35 -72t78.5 -77.5t72.5 -78.5q27 -37 27 -104t-46 -108q-45 -41 -113 -41h-151h-6.5t-7.5 1.5t-6.5 4t0 7.5t8.5 13q4 5 10.5 16.5t9.5 15.5q18 30 -3 60q-14 22 -23 40.5t-15.5 57 t-2.5 84.5z" />
<glyph unicode="&#x5d1;" horiz-adv-x="849" d="M39 38l82 199q15 36 53 36h514q14 0 20.5 4.5t6.5 22.5q3 106 -17.5 221.5t-67.5 154.5q-60 50 -139 64t-163 12.5t-120 8.5q-28 8 -49 20.5t-32 23t-19.5 28t-11 26t-6.5 25.5q-21 97 24 188q28 56 53 5q7 -15 17.5 -25t20 -15t26.5 -8t27 -3.5t31.5 -1t31.5 -0.5 q2 0 47.5 -2t62 -3.5t58.5 -8.5t66 -17.5t55 -29.5t52 -45q69 -83 88 -238.5t11 -382.5q0 -1 0.5 -2.5t2 -5.5t4 -7.5t7.5 -6t12 -2.5h27q20 0 27.5 -10.5t-0.5 -26.5l-82 -200q-13 -36 -52 -36h-639q-20 0 -28 10.5t-1 27.5z" />
<glyph unicode="&#x5d2;" horiz-adv-x="578" d="M19 38l82 199q15 36 53 36h181q54 0 54 58q0 197 14 352q0 4 -0.5 10.5t-9.5 18t-26 13.5q-44 7 -67 11.5t-54 17.5t-53 33q-33 33 -46 75q-10 31 -10 90q5 65 29 103q27 42 45 44t42 -34q5 -8 12.5 -15t14.5 -11.5t17.5 -9t16.5 -6.5t16.5 -5t12.5 -4q52 -13 84.5 -43.5 t40.5 -72.5q5 -29 -8.5 -96.5t-12.5 -105.5q4 -86 45.5 -241.5t43.5 -176.5q8 -65 2.5 -116.5t-31.5 -117.5q-11 -30 -22.5 -40t-20.5 -3t-15 19.5t-9 27.5q-24 137 -30 157q-6 16 -13 13t-15 -20l-63 -162q-15 -36 -53 -36h-218q-20 0 -28 10.5t-1 27.5z" />
<glyph unicode="&#x5d3;" horiz-adv-x="892" d="M58 877q-9 42 0.5 98t30.5 97q12 28 26.5 28.5t24.5 -23.5q6 -11 13.5 -19.5t14 -14t18.5 -9.5l18 -6t22 -3t21 -1h24h24h417q69 0 91.5 -34t24.5 -97q6 -126 -84 -140q-11 -1 -16.5 -7.5t-5.5 -12.5v-6q62 -435 65 -462q15 -117 -41 -231q-14 -30 -36 -39t-38 5t-15 43 l12 684q-1 16 -7.5 20t-19.5 4h-458q-51 0 -85 43t-41 83z" />
<glyph unicode="&#x5d4;" horiz-adv-x="957" d="M73 877q-9 42 0.5 98t29.5 97q28 56 53 5q5 -11 12.5 -19.5t14 -14t18.5 -9.5l18 -6t22 -3t21.5 -1h24.5h24h461q69 0 91.5 -34t24.5 -97q2 -57 -15.5 -94.5t-69.5 -45.5q-10 -1 -15 -7.5t-5 -12.5v-6q5 -33 42 -221.5t43 -240.5q15 -117 -41 -231q-14 -30 -36 -39t-38 5 t-15 43l-10 684q0 16 -6 20t-20 4h-501q-52 0 -86.5 43t-41.5 83zM81 46q7 71 9 188t10 174q13 85 68 147q33 33 51.5 17.5t10.5 -45.5q-8 -33 -2 -136q3 -103 -9 -181t-56 -166q-18 -36 -38.5 -48.5t-33 2t-10.5 48.5z" />
<glyph unicode="&#x5d5;" horiz-adv-x="453" d="M55 952q3 66 27 103q26 42 44 44t41 -34q4 -6 9.5 -11.5t10.5 -9.5t12.5 -8t12.5 -6.5t13.5 -5.5t12 -4t12 -3.5t9.5 -2.5q50 -12 80 -45t38 -76q19 -104 -42 -180q-19 -27 -16 -47q38 -232 56 -401q6 -43 -1 -105t-39 -126q-14 -30 -36 -39t-38 5t-15 43q16 414 19 626 q1 18 -9 33t-27 20q-72 19 -101 39q-47 33 -63 86q-15 46 -10 105z" />
<glyph unicode="&#x5d6;" horiz-adv-x="496" d="M53 952q3 62 29 103q26 42 43 44.5t52 -36.5q12 -15 42.5 -25.5t56.5 -13.5q95 -12 140 -77q16 -24 22 -67.5t-1 -85.5q-13 -89 -48 -72q-35 16 -75 12q-36 0 -44 -51q-7 -29 -3 -65.5t7.5 -51.5t14 -48.5t15.5 -56.5q17 -69 20 -114t-8 -146q-12 -80 -38 -157 q-11 -33 -26.5 -49t-27.5 -1t-12 64q0 83 -16 174q-4 21 -11.5 55.5t-10.5 53.5t-6.5 46.5t-3 54t4.5 56.5q5 39 12.5 70t17.5 66.5t16 58.5q7 22 0.5 37t-22.5 19q-54 15 -84 41q-32 24 -48 72q-12 41 -8 90z" />
<glyph unicode="&#x5d7;" horiz-adv-x="954" d="M70 877q-9 42 1 97.5t30 97.5q28 56 53 5q5 -11 12.5 -19.5t14 -14t18 -9.5t18 -6t22 -3t21 -1h24h23.5h463q69 0 91.5 -34t24.5 -97q4 -126 -86 -140q-10 -1 -15 -7.5t-5 -12.5v-6q5 -33 42 -221.5t43 -240.5q15 -117 -41 -231q-14 -30 -35.5 -39t-37.5 5t-15 43 l-11 684q0 16 -6 20t-19 4h-430q-40 -34 -50 -97q-5 -31 -5.5 -77t2.5 -81t6.5 -74.5t3.5 -46.5q2 -60 3.5 -107.5t-11.5 -105t-43 -118.5q-18 -36 -38.5 -48.5t-33 2t-10.5 48.5q8 70 5 210.5t0 185.5q4 57 8.5 92.5t26 99t59.5 117.5q-17 3 -31 7.5t-24.5 9t-19.5 12 t-15 13t-11.5 15t-8 14t-5.5 15t-3.5 14t-2.5 14.5t-2 12z" />
<glyph unicode="&#x5d8;" horiz-adv-x="983" d="M56 952q3 62 29 103q26 42 44 44t42 -34q4 -7 9.5 -13t13.5 -11t14 -8t15.5 -6.5t14 -5t14.5 -4.5t11 -3q73 -19 104 -69q18 -23 23.5 -66.5t-1.5 -84.5q-5 -33 -15 -56t-20.5 -31.5t-20.5 -3.5q-6 2 -15.5 6.5t-17.5 6.5t-20 3q-23 3 -34 -23q-38 -82 -38 -167 q3 -105 22 -222q1 -4 3 -9.5t13 -15t27 -9.5h577q4 0 9.5 1.5t16.5 10.5t13 24q12 111 -5 194t-72 149q-46 54 -107.5 81.5t-108.5 0.5q-73 -42 -108 -249q-2 -18 -10 -26.5t-21 -6.5q-25 4 -20 38q29 288 114 527q0 1 1 3.5t5 8t9 10t13.5 7.5t19.5 2q242 -22 329 -394 q60 -256 -30 -613q-1 -5 -3.5 -11.5t-15 -18t-32.5 -11.5h-666q-4 0 -10.5 1.5t-17 10t-11.5 22.5q-4 73 -7 133t-5 131.5t-5 128.5q-2 59 18.5 137t49.5 139q9 11 5 26.5t-24 21.5q-36 11 -61 36q-33 31 -48 75q-13 43 -9 90z" />
<glyph unicode="&#x5d9;" horiz-adv-x="453" d="M51 988q7 58 33 89q16 19 29 22t22 -4.5t20 -26.5q16 -25 36.5 -37.5t55.5 -20.5q85 -18 122 -87q48 -85 22 -208q-15 -73 -80 -162q-36 -49 -55 -34q-10 8 -11 22t3 25t10 21q17 30 23.5 44t7 35.5t-12.5 41.5q-11 16 -25.5 23.5t-39.5 14t-40 13.5q-74 34 -106 108 q-21 53 -14 121z" />
<glyph unicode="&#x5da;" horiz-adv-x="846" d="M58 877q-9 42 0.5 98t30.5 97q12 28 26.5 28.5t24.5 -23.5q6 -11 13.5 -19.5t14 -14t18.5 -9.5l18 -6t22 -3t21 -1h24h24h371q69 0 91.5 -34t24.5 -97q4 -126 -86 -140q-10 -1 -15 -7.5t-5 -12.5v-6q6 -43 30.5 -468.5t30.5 -471.5q10 -128 -41 -231q-15 -30 -36.5 -39 t-37 5t-14.5 43l13 1162q0 16 -6 20t-19 4h-412q-51 0 -85 43t-41 83z" />
<glyph unicode="&#x5db;" horiz-adv-x="855" d="M34.5 11q-7.5 11 0.5 27l81 199q14 36 52 36h575q14 0 20.5 4.5t6.5 22.5q4 159 -41 268q-20 49 -57 89t-81 62q-49 24 -122.5 29.5t-144.5 4.5t-103 8q-28 8 -49 20.5t-32 23t-19.5 28t-11 26t-6.5 25.5q-21 97 24 188q28 56 53 5q7 -15 17.5 -25t20 -15t26.5 -8 t27 -3.5t32 -1t32 -0.5q10 -1 61 -2.5t85 -6t83 -15t88.5 -34t66.5 -58.5q66 -84 85 -230.5t13 -361.5h1q-1 -17 -4.5 -34.5t-7.5 -26.5l-3 -9l-99 -210q-20 -36 -53 -36h-589q-20 0 -27.5 11z" />
<glyph unicode="&#x5dc;" horiz-adv-x="870" d="M55.5 978.5q-0.5 64.5 0 89.5t1.5 63t4 59t9 37q13 37 38.5 68t24.5 43q-1 15 -29.5 40t-31.5 32q-9 16 -2 82q1 12 3 19t6.5 13.5t13 9t20.5 0.5q58 -9 93.5 -60.5t35.5 -87.5q0 -26 -46 -75t-48 -53q-4 -6 -6.5 -12.5t-4.5 -12t-3 -15t-2 -15t-1 -18.5v-20v-24.5v-27.5 v-17v-16.5t0.5 -13.5t2.5 -13t5 -9.5t8 -8.5t12 -5.5t17 -4.5t22 -1h461q127 0 143 -96q9 -49 11 -88.5t0 -99.5t-2 -81q0 -24 -5.5 -46.5t-20.5 -46.5t-26.5 -41t-37.5 -43.5t-39.5 -39.5t-47 -43.5t-45.5 -41.5q-31 -27 -62 -75.5t-42 -109.5q-4 -17 7 -44.5t11 -45.5 q0 -39 -18.5 -65t-54.5 -26q-35 0 -59 24.5t-28 61.5q-6 52 31.5 121.5t72.5 100.5q181 161 220 204q53 59 58 112v23q-2 62 -23 87.5t-89 25.5h-415q-71 0 -106.5 35.5t-35.5 94.5q0 33 -0.5 97.5z" />
<glyph unicode="&#x5dd;" horiz-adv-x="925" d="M76 877q-7 43 2 98.5t29 96.5q28 56 53 5q5 -11 12.5 -19.5t14 -14t18.5 -9.5l18 -6t21.5 -3t21 -1h24.5h24h332q71 0 119 -40t67 -99t19 -134v-708q0 -43 -51 -43h-666q-44 0 -44 44l1 366q0 190 111 341q-32 0 -56.5 13.5t-38 35.5t-21 40.5t-10.5 36.5zM199 316 q0 -43 44 -43h505q46 0 46 50v264q0 66 -45.5 115t-117.5 49h-369q-63 -119 -63 -244v-191z" />
<glyph unicode="&#x5de;" horiz-adv-x="991" d="M68.5 902.5q4.5 43.5 26.5 91.5q22 45 65 82q22 16 39.5 9.5t25.5 -33.5q10 -31 65 -56q68 -28 102 -174q3 -11 11 -16.5t20 0.5q60 43 78 221q5 42 41 39q178 -12 284 -149q138 -171 143 -600q0 -12 -3.5 -29.5t-7.5 -29.5l-4 -11l-87 -210q-20 -36 -53 -36h-540 q-20 0 -27.5 10.5t0.5 26.5l82 200q13 36 53 36h505q11 0 19 8t8 19q-6 239 -131 362q-47 46 -100.5 70.5t-87.5 29t-80 4.5q-77 0 -159 -48t-111 -114q-29 -67 -33.5 -138t1.5 -153.5t2 -130.5q-4 -62 -29 -126q-14 -33 -30 -48.5t-31.5 -1t-22.5 66.5q-17 137 -2 248 q19 137 84 266q16 31 -12 57v1q-39 38 -68 86t-33 85q-7 42 -2.5 85.5z" />
<glyph unicode="&#x5df;" horiz-adv-x="465" d="M55 942q1 28 11 63t19 50q26 42 44 44t42 -34q6 -10 14.5 -17.5t20.5 -12.5t19.5 -7.5t21 -6t16.5 -4.5q76 -16 106 -46q42 -44 34 -113t-50 -111q-10 -10 -18.5 -21t-12.5 -17l-3 -6q-2 -5 -10.5 -24t-11 -24t-8.5 -20t-8.5 -22t-6 -19t-6 -22.5t-3.5 -22.5 q-10 -86 22 -276q18 -108 33 -275t9 -223q-14 -107 -93 -226q-23 -32 -46 -26t-21 40q17 192 20 396q1 82 -6 215t-4 222q2 86 19.5 154.5t59.5 155.5q12 24 -12 28q-65 9 -106 29q-23 11 -43.5 34.5t-29.5 48.5q-16 47 -12 96z" />
<glyph unicode="&#x5e0;" horiz-adv-x="592" d="M14 10.5q-7 10.5 0 27.5l82 199q15 36 52 36h214q40 0 37 41q-3 48 -5 87.5t-2.5 63.5t1.5 58.5t2.5 46t5 55t5.5 58.5q0 4 -0.5 10.5t-9.5 18t-26 13.5q-42 6 -65 11t-51 18t-49 33q-33 31 -48 75q-13 43 -9 90q3 62 29 103t47.5 44t45.5 -34q7 -12 22 -21.5t26 -13.5 t32 -10l20 -6q52 -13 85.5 -43.5t42.5 -72.5q9 -60 1 -90t-23 -62.5t-15 -49.5q-1 -63 34 -188.5t39 -207.5q6 -62 1.5 -120.5t-28.5 -107.5q-36 -72 -137 -72h-329q-20 0 -27 10.5z" />
<glyph unicode="&#x5e1;" horiz-adv-x="873" d="M79 415q-1 70 50 185t87 151q-31 6 -56.5 22t-40.5 37t-23.5 39t-12.5 35q-21 97 24 188q28 56 53 5q7 -15 17.5 -25t20 -15t26 -8t27 -3.5t32 -1t31.5 -0.5h1q12 -1 85 -2t124.5 -5.5t116 -28t97.5 -66.5q65 -84 82 -229.5t12 -375.5q-4 -51 -20 -88l-79 -191 q-17 -38 -60 -38h-522q-43 0 -43 43q-1 13 -2.5 64.5t-3.5 76.5q-5 56 -9.5 90.5t-7 44t-4 31.5t-2.5 65zM168 459q3 -67 14 -143q3 -27 15 -35t33 -8h505q42 0 42 43v42.5v48.5t-0.5 46.5t-2.5 50t-5 44.5t-7.5 44.5t-11 36t-15.5 31.5q-20 31 -65 55.5t-92 28.5 q-131 11 -299 7q-58 -83 -85.5 -146t-25.5 -146z" />
<glyph unicode="&#x5e2;" horiz-adv-x="942" d="M51 935q-3 64 21 104q17 34 27 46t28 7.5t45 -36.5q21 -25 96 -30q93 -3 145 -63q41 -51 36 -152q-2 -33 -9 -51.5t-15.5 -23t-18.5 -0.5q-34 12 -75 5q-35 -4 -39 -55q-2 -35 5.5 -69t16.5 -54t25 -49.5t21 -40.5q61 -133 51 -302l154 112q5 5 13.5 13t12 12.5t8.5 15 t9 26.5q33 115 61 177q13 32 25 58t16.5 36t10 25t13.5 40q5 20 -0.5 29.5t-25.5 13.5q-68 19 -109 58q-33 31 -48 75q-10 31 -10 90q5 68 31 103q26 42 44.5 44t42.5 -34q6 -10 15 -17.5t22 -13.5t20 -8.5t21.5 -7t15.5 -4.5q108 -25 129 -116q23 -111 -53 -162 q-13 -8 -25 -22.5t-16 -27.5q-54 -166 -78 -290q-23 -126 -38 -331q-2 -24 -9.5 -38.5t-27.5 -29.5l-497 -371q-9 -8 -20.5 -4.5t-11.5 21.5l17 270q2 25 8.5 39.5t27.5 28.5l169 123q34 26 30 67q-5 50 -21 90t-39.5 80t-32.5 62q-55 136 -29 286q5 24 -3 39.5t-23 17.5 q-50 4 -89 32q-34 23 -53 69q-13 33 -17 88z" />
<glyph unicode="&#x5e3;" horiz-adv-x="841" d="M66 176.5q3 13.5 14 23.5q33 27 46 41q-45 66 -55 129t-3 132q7 78 38 147t71 102q-63 45 -78 126q-9 42 0.5 98t30.5 97q12 28 26.5 28.5t24.5 -23.5q6 -11 13.5 -19.5t14 -14t18.5 -9.5l18 -6t22 -3t21 -1h24h24h237q70 0 116 -47.5t50 -116.5l60 -1133 q7 -114 -77 -188q-23 -20 -40 -17.5t-16 36.5l32 1033q4 68 -28 114t-93 46h-331q-35 -25 -58 -88.5t-12 -123.5q5 -29 22 -47t46.5 -24.5t52.5 -8t63 -0.5q40 2 70 -23.5t39 -68.5q23 -103 -51 -149q-65 -41 -234 -10q-8 -5 -27.5 -23.5t-33.5 -29.5q-29 -24 -50 -3 q-10 11 -7 24.5z" />
<glyph unicode="&#x5e4;" horiz-adv-x="837" d="M31 9.5q-7 10.5 0 27.5l82 200q15 36 53 36h551q26 0 29 27q5 262 -60 351q-34 47 -94 71t-112.5 26t-120 2.5t-96.5 5.5q-51 -25 -48 -74q1 -20 17 -31.5t40.5 -14.5t55 -4t61.5 1q40 2 70 -24t39 -69q22 -102 -51 -148q-65 -41 -234 -10q-8 -5 -27.5 -23.5t-33.5 -29.5 q-30 -24 -50 -4q-10 11 -7 24.5t14 23.5q33 27 46 41q-41 37 -54.5 76t-8.5 93q10 98 121 188q-25 10 -42.5 24t-26.5 32t-12 28t-7 29q-21 98 23 187q28 56 53 5q7 -15 17.5 -25t20 -15t26.5 -8t27 -3.5t31.5 -1t31.5 -0.5q3 0 41.5 -1.5t54.5 -3.5t54 -6.5t61.5 -13 t54 -20.5t53.5 -31.5t41 -44.5q55 -78 71.5 -226t10.5 -361q-2 -43 -12 -70l-87 -210q-16 -36 -53 -36h-587q-20 0 -27 10.5z" />
<glyph unicode="&#x5e5;" horiz-adv-x="916" d="M54 934q0 28 8 64t16 51q13 23 22.5 35t19.5 16.5t20.5 -3.5t23.5 -28q5 -7 10.5 -13t13 -10t13 -7t15 -5.5t13.5 -3.5t14 -3t11 -2q68 -13 108 -46q42 -43 37 -111.5t-44 -112.5q-10 -11 -18 -22.5t-11 -17.5l-4 -6q-35 -83 -42 -157q-4 -82 13 -162q4 -21 13.5 -25.5 t22.5 11.5l289 362q9 10 9 18t-14 20q-59 47 -62 131q-3 93 63 166q24 29 46 29t33 -29q22 -44 65 -69q45 -25 72.5 -62.5t29.5 -82.5q4 -84 -53 -155q-45 -61 -68 -34q-21 25 -34 34q-20 16 -38 -7l-322 -396q-26 -49 -21 -72v1q21 -113 39 -255.5t16 -192.5 q-7 -101 -84 -230q-22 -34 -45 -29t-21 39q8 168 3 398q-2 81 -15.5 213.5t-15.5 221.5q-2 90 10.5 159.5t49.5 152.5q11 25 -14 28q-68 9 -100 25q-24 11 -46 34t-31 47q-19 50 -16 93z" />
<glyph unicode="&#x5e6;" horiz-adv-x="957" d="M65 10.5q-7 10.5 0 27.5l82 199q15 36 53 36h493q18 0 20 6.5t-8 14.5l-316 238q-19 16 -22 41q-12 94 -19 113q-9 28 -19 35.5t-29 8.5q-62 5 -106 16.5t-75 40.5q-30 30 -44 75q-14 42 -10 90q3 62 29 103q26 42 43.5 44t41.5 -34q5 -8 13 -15t15 -11.5t18 -9 t16.5 -6.5t16 -5t12.5 -4q102 -25 126 -116q5 -19 5.5 -40.5t-0.5 -33t-6 -39t-6 -31.5q-4 -22 10 -47q4 -7 43.5 -39t76.5 -60l37 -29q20 -19 35 6l61 145q7 8 6.5 18.5t-15.5 21.5q-70 55 -70 136q-3 94 62 166q25 29 47 29t33 -29q5 -13 22.5 -33.5t40.5 -34.5 q45 -25 73 -63t30 -83q4 -83 -52 -155q-47 -61 -68 -34q-7 7 -13 15.5t-12 13.5q-23 23 -33 -2l-65 -148q-7 -15 -4.5 -23.5t15.5 -19.5l180 -143q45 -35 59 -105.5t-14 -138.5q-55 -118 -196 -118h-586q-20 0 -27 10.5z" />
<glyph unicode="&#x5e7;" horiz-adv-x="928" d="M75.5 272.5q0.5 65.5 7.5 114.5q21 140 95 224q34 40 52 26q15 -14 -2 -46q-30 -56 -39 -93t-9 -85q-3 -91 20.5 -290.5t22.5 -265.5q-1 -78 -5 -123.5t-23.5 -109.5t-57.5 -116q-23 -32 -37.5 -41.5t-19.5 2.5t-2 46q8 118 7.5 164.5t-4 133t-2.5 153.5q1 59 -1.5 150 t-2 156.5zM86 884q-21 97 24 188q28 56 53 5q8 -17 20 -27.5t29 -15t31 -6t37 -2t37 -2.5q8 -1 79.5 -2t136.5 -6t143 -30t120 -68q55 -57 79.5 -192.5t19 -262.5t-28.5 -193q-16 -45 -60.5 -93t-103.5 -73q-43 -18 -124 -31t-139 -30t-78 -52q-15 -27 -36.5 -17t-23.5 43 q0 31 14 65q22 52 74 89.5t153 69.5q39 13 95.5 21.5t92.5 21t63 42.5q48 54 46.5 173.5t-50.5 174.5q-32 36 -116.5 53.5t-170 18.5t-176 3.5t-122.5 11.5q-28 8 -49 20.5t-32 23t-19.5 28t-11 26t-6.5 25.5z" />
<glyph unicode="&#x5e8;" horiz-adv-x="856" d="M58 877q-9 42 1 97.5t30 97.5q28 56 53 5q5 -11 12.5 -19.5t14 -14t18 -9.5t18 -6t22 -3t21 -1h24h23.5h227q110 0 172 -71t77 -202q8 -65 17.5 -258.5t13.5 -229.5q11 -138 -22 -229q-18 -49 -46.5 -42t-26.5 52q8 323 22 543q0 66 -46 115t-118 49h-381q-51 0 -85 43 t-41 83z" />
<glyph unicode="&#x5e9;" horiz-adv-x="1221" d="M60 942q9 68 34 108q28 46 47 50t43 -33q26 -44 82 -58q83 -23 118 -103q29 -62 9 -155q-7 -32 -16 -49.5t-17 -19.5t-17 2q-32 19 -67 19q-27 0 -42 -48q-21 -68 -23.5 -87t4.5 -70q7 -34 31 -94t32 -105q3 -26 29 -26h10q24 0 35 24l191 440q9 25 -7 38q-59 44 -62 131 q-3 92 64 166q24 29 46.5 29t33.5 -29q3 -12 21 -33t42 -35q45 -25 72 -63t29 -83q4 -47 -8.5 -81.5t-43.5 -73.5q-45 -61 -68 -34q-21 25 -34 34q-27 19 -37 -7l-169 -399q-5 -14 -1.5 -19t18.5 -5h204q67 0 120.5 28.5t76.5 85.5q29 70 68 143.5t64 111.5l25 39 q14 23 -4 36q-4 3 -23 16.5t-31 23.5t-29.5 27t-29 37.5t-16.5 42.5q-14 65 -0.5 112t56.5 96q24 29 46.5 29t33.5 -29q4 -13 23 -33.5t42 -34.5q44 -25 71.5 -63.5t29.5 -82.5q2 -48 -10 -82.5t-42 -72.5q-26 -34 -39 -31q-1 0 -5 2t-6 2.5t-5.5 -2t-7.5 -8.5 q-90 -124 -164 -412q-2 -7 -5 -21q-8 -30 -12.5 -46t-15 -44.5t-21 -45t-29 -37.5t-40 -32.5t-53 -19.5t-68.5 -8h-448q-26 0 -26 26q0 89 -7 158q-6 68 -13 114.5t-10 75.5t-4 83q0 16 3 35.5t5.5 33.5t9 38.5t9 34t11.5 37.5t10 33q16 50 -12 58q-42 16 -74 50 q-29 32 -36 75q-7 34 -1 90z" />
<glyph unicode="&#x5ea;" horiz-adv-x="974" d="M18 10.5q-8 10.5 0 27.5l82 199q13 36 53 36q16 0 27 12q6 8 -7 37.5t-28.5 84t-10.5 112.5q6 72 34 143.5t56 102.5h-1q-34 16 -53 49t-24 63q-7 43 2 98.5t29 96.5q28 56 53 5q5 -11 12.5 -19.5t14 -14t18.5 -9.5l18 -6t22 -3t21 -1h24.5h24.5h254q110 0 172.5 -71.5 t77.5 -201.5q8 -65 17 -258.5t13 -229.5q11 -138 -22 -229q-18 -49 -46.5 -42t-26.5 52q8 323 22 543q0 66 -46 115t-118 49h-396q-29 -51 -37 -73q-50 -132 30 -268q92 -156 62 -280q-5 -19 -12.5 -37t-21.5 -41.5t-38 -37.5t-53 -14h-170q-20 0 -28 10.5z" />
<glyph unicode="&#x5f0;" horiz-adv-x="907" d="M55 952q3 66 27 103q26 42 44 44t41 -34q4 -6 9.5 -11.5t10.5 -9.5t12.5 -8t12.5 -6.5t13.5 -5.5t12 -4t12 -3.5t9.5 -2.5q50 -12 80 -45t38 -76q19 -104 -42 -180q-19 -27 -16 -47q38 -232 56 -401q6 -43 -1 -105t-39 -126q-14 -30 -36 -39t-38 5t-15 43q16 414 19 626 q1 18 -9 33t-27 20q-72 19 -101 39q-47 33 -63 86q-15 46 -10 105zM509 952q3 66 27 103q26 42 44 44t41 -34q4 -6 9.5 -11.5t10.5 -9.5t12.5 -8t12.5 -6.5t13.5 -5.5t12 -4t12 -3.5t9.5 -2.5q50 -12 80 -45t38 -76q19 -103 -43 -180q-18 -26 -15 -47q38 -232 56 -401 q15 -117 -41 -231q-14 -30 -35.5 -39t-37.5 5t-15 43q16 414 19 626q1 18 -9 33t-27 20q-72 19 -101 39q-47 33 -63 86q-15 46 -10 105z" />
<glyph unicode="&#x5f1;" horiz-adv-x="907" d="M51 988q7 58 33 89q16 19 29 22t22 -4.5t20 -26.5q16 -25 36.5 -37.5t55.5 -20.5q85 -18 122 -87q48 -85 22 -208q-15 -73 -80 -162q-36 -49 -55 -34q-10 8 -11 22t3 25t10 21q17 30 23.5 44t7 35.5t-12.5 41.5q-11 16 -25.5 23.5t-39.5 14t-40 13.5q-74 34 -106 108 q-21 53 -14 121zM509 952q3 66 27 103q26 42 44 44t41 -34q4 -6 9.5 -11.5t10.5 -9.5t12.5 -8t12.5 -6.5t13.5 -5.5t12 -4t12 -3.5t9.5 -2.5q50 -12 80 -45t38 -76q19 -103 -43 -180q-18 -26 -15 -47q38 -232 56 -401q15 -117 -41 -231q-14 -30 -35.5 -39t-37.5 5t-15 43 q16 414 19 626q1 18 -9 33t-27 20q-72 19 -101 39q-47 33 -63 86q-15 46 -10 105z" />
<glyph unicode="&#x5f2;" horiz-adv-x="907" d="M2 988q7 59 32 89q16 19 29.5 22t22.5 -4.5t20 -26.5q16 -25 36.5 -37.5t55.5 -20.5q84 -18 121 -87q48 -85 22 -208q-15 -73 -80 -162q-27 -36 -40 -38q-8 -1 -14 4q-10 8 -11 22t2.5 25.5t9.5 20.5q17 31 23.5 44t7.5 35t-12 42q-11 16 -26 23.5t-40 14t-40 13.5 q-74 34 -106 108q-20 51 -13 121zM456 988q7 59 32 89q16 19 29.5 22t22.5 -4.5t20 -26.5q16 -25 36.5 -37.5t55.5 -20.5q84 -18 121 -87q48 -85 22 -208q-15 -73 -80 -162q-36 -49 -55 -34q-10 8 -11 22t3 25t10 21q17 31 23.5 44t7.5 35t-12 42q-11 16 -26 23.5t-40 14 t-40 13.5q-74 34 -106 108q-20 51 -13 121z" />
<glyph unicode="&#x200c;" />
<glyph unicode="&#x200d;" />
<glyph unicode="&#x200e;" />
<glyph unicode="&#x200f;" />
<glyph unicode="&#xe000;" horiz-adv-x="785" d="M0 0v785h785v-785h-785z" />
<glyph unicode="&#xfb1d;" horiz-adv-x="453" d="M51 988q7 58 33 89q16 19 29 22t22 -4.5t20 -26.5q16 -25 36.5 -37.5t55.5 -20.5q85 -18 122 -87q48 -85 22 -208q-15 -73 -80 -162q-36 -49 -55 -34q-10 8 -11 22t3 25t10 21q17 30 23.5 44t7 35.5t-12.5 41.5q-11 16 -25.5 23.5t-39.5 14t-40 13.5q-74 34 -106 108 q-21 53 -14 121zM140 336q0 26 19 44.5t46 18.5t46 -18.5t19 -44.5q0 -27 -19 -46t-46 -19t-46 19t-19 46z" />
<glyph unicode="&#xfb1e;" d="M-179 1188l22 36q11 19 34 10q121 -55 246 0q23 9 34 -10l22 -36q10 -21 -10 -36q-62 -41 -170 -39.5t-168 39.5q-20 15 -10 36z" />
<glyph unicode="&#xfb1f;" horiz-adv-x="907" d="M51 988q7 58 33 89q16 19 29 22t22 -4.5t20 -26.5q16 -25 36.5 -37.5t55.5 -20.5q85 -18 122 -87q48 -85 22 -208q-15 -73 -80 -162q-36 -49 -55 -34q-10 8 -11 22t3 25t10 21q17 30 23.5 44t7 35.5t-12.5 41.5q-11 16 -25.5 23.5t-39.5 14t-40 13.5q-74 34 -106 108 q-21 53 -14 121zM244 299v42q0 11 8 18.5t18 7.5h341q11 0 18.5 -7.5t7.5 -18.5v-42q0 -11 -7.5 -18.5t-18.5 -7.5h-341q-10 0 -18 7.5t-8 18.5zM505 988q7 58 33 89q16 19 29 22t22 -4.5t20 -26.5q16 -25 36.5 -37.5t55.5 -20.5q85 -18 122 -87q48 -85 22 -208 q-15 -73 -80 -162q-36 -49 -55 -34q-10 8 -11 22t3 25t10 21q17 30 23.5 44t7 35.5t-12.5 41.5q-11 16 -25.5 23.5t-39.5 14t-40 13.5q-74 34 -106 108q-21 53 -14 121z" />
<glyph unicode="&#xfb20;" horiz-adv-x="942" d="M51 935q-3 64 21 104q17 34 27 46t28 7.5t45 -36.5q21 -25 96 -30q93 -3 145 -63q41 -51 36 -152q-2 -33 -9 -51.5t-15.5 -23t-18.5 -0.5q-34 12 -75 5q-39 -5 -39 -55q-3 -99 78 -171q41 -37 61.5 -97.5t8.5 -113.5q-4 -13 1.5 -22t19.5 -9h106q14 0 24.5 5t16 10 t10.5 19.5t6.5 20t5.5 24.5q19 93 48 175q39 108 56 159q5 20 -0.5 29.5t-25.5 13.5q-68 19 -109 58q-33 31 -48 75q-10 31 -10 90q5 68 31 103q26 42 44.5 44t42.5 -34q6 -10 15 -17.5t22 -13.5t20 -8.5t21.5 -7t15.5 -4.5q108 -25 129 -116q23 -111 -53 -162 q-13 -8 -25 -22.5t-16 -27.5q-47 -148 -61 -283q-5 -42 -9.5 -150t-5.5 -128q-4 -66 -31 -95.5t-85 -29.5h-495q-20 0 -28 10.5t0 27.5l82 199q13 36 53 36h127q40 0 50 24t-16 55q-16 20 -56 54t-60 74q-42 73 -17 209q5 24 -3 39.5t-23 17.5q-50 4 -89 32q-34 23 -53 69 q-13 33 -17 88z" />
<glyph unicode="&#xfb29;" horiz-adv-x="972" d="M56 357v150h355v357h150v-357h355v-150h-860z" />
<glyph unicode="&#xfb2a;" horiz-adv-x="1221" d="M60 942q9 68 34 108q28 46 47 50t43 -33q26 -44 82 -58q83 -23 118 -103q29 -62 9 -155q-7 -32 -16 -49.5t-17 -19.5t-17 2q-32 19 -67 19q-27 0 -42 -48q-21 -68 -23.5 -87t4.5 -70q7 -34 31 -94t32 -105q3 -26 29 -26h10q24 0 35 24l191 440q9 25 -7 38q-59 44 -62 131 q-3 92 64 166q24 29 46.5 29t33.5 -29q3 -12 21 -33t42 -35q45 -25 72 -63t29 -83q4 -47 -8.5 -81.5t-43.5 -73.5q-45 -61 -68 -34q-21 25 -34 34q-27 19 -37 -7l-169 -399q-5 -14 -1.5 -19t18.5 -5h204q67 0 120.5 28.5t76.5 85.5q29 70 68 143.5t64 111.5l25 39 q14 23 -4 36q-4 3 -23 16.5t-31 23.5t-29.5 27t-29 37.5t-16.5 42.5q-14 65 -0.5 112t56.5 96q24 29 46.5 29t33.5 -29q4 -13 23 -33.5t42 -34.5q44 -25 71.5 -63.5t29.5 -82.5q2 -48 -10 -82.5t-42 -72.5q-26 -34 -39 -31q-1 0 -5 2t-6 2.5t-5.5 -2t-7.5 -8.5 q-90 -124 -164 -412q-2 -7 -5 -21q-8 -30 -12.5 -46t-15 -44.5t-21 -45t-29 -37.5t-40 -32.5t-53 -19.5t-68.5 -8h-448q-26 0 -26 26q0 89 -7 158q-6 68 -13 114.5t-10 75.5t-4 83q0 16 3 35.5t5.5 33.5t9 38.5t9 34t11.5 37.5t10 33q16 50 -12 58q-42 16 -74 50 q-29 32 -36 75q-7 34 -1 90zM1034 1140q0 26 19 44.5t46 18.5t46 -18.5t19 -44.5q0 -27 -19 -46t-46 -19t-46 19t-19 46z" />
<glyph unicode="&#xfb2b;" horiz-adv-x="1221" d="M59 942q9 68 34 108q28 46 47 50t43 -33q26 -44 82 -58q83 -23 118 -103q29 -62 9 -155q-7 -32 -16 -49.5t-17 -19.5t-17 2q-32 19 -66 19q-28 0 -43 -48q-21 -68 -23.5 -87t4.5 -70q7 -34 31 -94t32 -105q3 -26 29 -26h11q23 0 34 24l191 440q9 25 -7 38q-58 43 -61 131 q-3 93 63 166q24 29 46.5 29t33.5 -29q3 -12 21 -33t42 -35q45 -25 72 -63t29 -83q4 -47 -8.5 -82t-42.5 -73q-11 -15 -22 -25.5t-24.5 -15.5t-22.5 7q-21 25 -34 34q-27 19 -37 -7l-169 -399q-5 -14 -1.5 -19t18.5 -5h205q67 0 120 28.5t76 85.5q29 70 68 143.5t64 111.5 l25 39q14 23 -4 36q-4 3 -23 16.5t-31 23.5t-29.5 27t-29 37.5t-16.5 42.5q-14 65 -0.5 112t56.5 96q24 29 46.5 29t33.5 -29q4 -13 23 -33.5t42 -34.5q44 -25 71.5 -63.5t29.5 -82.5q2 -48 -9.5 -83t-41.5 -72q-26 -34 -40 -31q-1 0 -5 2t-6 2.5t-5.5 -2t-7.5 -8.5 q-88 -121 -163 -412q-2 -7 -5 -21q-8 -30 -12.5 -46t-15 -44.5t-21 -45t-29 -37.5t-40 -32.5t-53 -19.5t-68.5 -8h-449q-26 0 -26 26q0 89 -7 158q-6 68 -13 114.5t-10 75.5t-4 83q0 16 3 35.5t5.5 33.5t9 38.5t9 34t11.5 37.5t10 33q16 50 -12 58q-42 16 -74 50 q-27 31 -35 75q-8 37 -2 90zM230 1140q0 26 19 44.5t45 18.5h-1q27 0 46 -18.5t19 -44.5q0 -27 -19 -46t-46 -19q-26 0 -44.5 19t-18.5 46z" />
<glyph unicode="&#xfb2c;" horiz-adv-x="1221" d="M60 942q9 68 34 108q28 46 47 50t43 -33q26 -44 82 -58q83 -23 118 -103q29 -62 9 -155q-7 -32 -16 -49.5t-17 -19.5t-17 2q-32 19 -67 19q-27 0 -42 -48q-21 -68 -23.5 -87t4.5 -70q7 -34 31 -94t32 -105q3 -26 29 -26h10q24 0 35 24l191 440q9 25 -7 38q-59 44 -62 131 q-3 92 64 166q24 29 46.5 29t33.5 -29q3 -12 21 -33t42 -35q45 -25 72 -63t29 -83q4 -47 -8.5 -81.5t-43.5 -73.5q-45 -61 -68 -34q-21 25 -34 34q-27 19 -37 -7l-169 -399q-5 -14 -1.5 -19t18.5 -5h204q67 0 120.5 28.5t76.5 85.5q29 70 68 143.5t64 111.5l25 39 q14 23 -4 36q-4 3 -23 16.5t-31 23.5t-29.5 27t-29 37.5t-16.5 42.5q-14 65 -0.5 112t56.5 96q24 29 46.5 29t33.5 -29q4 -13 23 -33.5t42 -34.5q44 -25 71.5 -63.5t29.5 -82.5q2 -48 -10 -82.5t-42 -72.5q-26 -34 -39 -31q-1 0 -5 2t-6 2.5t-5.5 -2t-7.5 -8.5 q-90 -124 -164 -412q-2 -7 -5 -21q-8 -30 -12.5 -46t-15 -44.5t-21 -45t-29 -37.5t-40 -32.5t-53 -19.5t-68.5 -8h-448q-26 0 -26 26q0 89 -7 158q-6 68 -13 114.5t-10 75.5t-4 83q0 16 3 35.5t5.5 33.5t9 38.5t9 34t11.5 37.5t10 33q16 50 -12 58q-42 16 -74 50 q-29 32 -36 75q-7 34 -1 90zM621 486q0 27 19 45.5t46 18.5t46 -18.5t19 -45.5t-19 -45t-46 -18t-46 18t-19 45zM1034 1140q0 26 19 44.5t46 18.5t46 -18.5t19 -44.5q0 -27 -19 -46t-46 -19t-46 19t-19 46z" />
<glyph unicode="&#xfb2d;" horiz-adv-x="1221" d="M60 942q9 68 34 108q28 46 47 50t43 -33q26 -44 82 -58q83 -23 118 -103q29 -62 9 -155q-7 -32 -16 -49.5t-17 -19.5t-17 2q-32 19 -67 19q-27 0 -42 -48q-21 -68 -23.5 -87t4.5 -70q7 -34 31 -94t32 -105q3 -26 29 -26h10q24 0 35 24l191 440q9 25 -7 38q-59 44 -62 131 q-3 92 64 166q24 29 46.5 29t33.5 -29q3 -12 21 -33t42 -35q45 -25 72 -63t29 -83q4 -47 -8.5 -81.5t-43.5 -73.5q-45 -61 -68 -34q-21 25 -34 34q-27 19 -37 -7l-169 -399q-5 -14 -1.5 -19t18.5 -5h204q67 0 120.5 28.5t76.5 85.5q29 70 68 143.5t64 111.5l25 39 q14 23 -4 36q-4 3 -23 16.5t-31 23.5t-29.5 27t-29 37.5t-16.5 42.5q-14 65 -0.5 112t56.5 96q24 29 46.5 29t33.5 -29q4 -13 23 -33.5t42 -34.5q44 -25 71.5 -63.5t29.5 -82.5q2 -48 -10 -82.5t-42 -72.5q-26 -34 -39 -31q-1 0 -5 2t-6 2.5t-5.5 -2t-7.5 -8.5 q-90 -124 -164 -412q-2 -7 -5 -21q-8 -30 -12.5 -46t-15 -44.5t-21 -45t-29 -37.5t-40 -32.5t-53 -19.5t-68.5 -8h-448q-26 0 -26 26q0 89 -7 158q-6 68 -13 114.5t-10 75.5t-4 83q0 16 3 35.5t5.5 33.5t9 38.5t9 34t11.5 37.5t10 33q16 50 -12 58q-42 16 -74 50 q-29 32 -36 75q-7 34 -1 90zM230 1140q0 25 19 44t45 19q27 0 45.5 -18.5t18.5 -44.5q0 -27 -18.5 -46t-45.5 -19q-26 0 -45 19t-19 46zM621 486q0 27 19 45.5t46 18.5t46 -18.5t19 -45.5t-19 -45t-46 -18t-46 18t-19 45z" />
<glyph unicode="&#xfb2e;" horiz-adv-x="1012" d="M72 300q9 104 35.5 163t104.5 148q8 17 -4 32q-8 9 -31 35.5t-30.5 36t-21.5 28.5t-20 34t-9 32q-20 108 23 196q9 20 31.5 44.5t42.5 37.5q24 15 39.5 11.5t14.5 -26.5q-4 -43 7 -75q27 -78 69 -132t116 -114l170 -145q19 -12 29 7q41 77 51 97q15 28 -10 46 q-41 36 -59 62t-26 71q-5 28 1.5 65.5t15.5 55.5q24 49 65 75q16 10 26 13.5t17.5 -1.5t10.5 -8.5t11 -22t12 -27.5q11 -23 44 -44q2 -1 22.5 -13.5t28 -18t25.5 -19.5t27 -25t19.5 -28t15.5 -34q9 -32 10.5 -60t-6.5 -56.5t-14.5 -44t-21.5 -47.5q-10 -22 -25.5 -33 t-25.5 2q-25 40 -70 66q-11 7 -24.5 3.5t-20.5 -15.5l-51 -95q-8 -21 7 -33q62 -51 96 -81.5t68.5 -72t50.5 -84t20 -94.5q4 -55 -16.5 -109t-59.5 -86q-21 -16 -34.5 -17.5t-20 13t-9 27.5t-4.5 37q-1 5 -1 8q-2 18 -12.5 40t-34.5 49t-43.5 48t-59 55.5t-60 52t-68 57 t-63.5 52.5q-24 21 -84.5 73.5t-79.5 67.5q-17 11 -29 -3q-47 -53 -44 -96q4 -37 35 -72t78.5 -77.5t72.5 -78.5q27 -37 27 -104t-46 -108q-45 -41 -113 -41h-151h-6.5t-7.5 1.5t-6.5 4t0 7.5t8.5 13q4 5 10.5 16.5t9.5 15.5q18 30 -3 60q-14 22 -23 40.5t-15.5 57 t-2.5 84.5zM295 -119q0 10 7.5 17.5t18.5 7.5h341q11 0 18.5 -7.5t7.5 -17.5v-43q0 -10 -8 -18t-18 -8h-341q-11 0 -18.5 8t-7.5 18v43z" />
<glyph unicode="&#xfb2f;" horiz-adv-x="1012" d="M71 300q9 103 35.5 162t104.5 148q9 18 -3 33q-10 12 -31.5 35.5t-30.5 35t-22 29t-19.5 33t-9.5 32.5q-20 107 24 197q9 20 31.5 44.5t42.5 37.5q24 15 39.5 11t14.5 -27q-4 -43 7 -75q27 -78 69 -132t115 -114l171 -145q19 -12 29 7q41 77 51 97q15 29 -10 47 q-41 36 -59 62t-26 71q-5 28 1.5 65.5t15.5 55.5q24 49 65 75q16 10 26 13.5t17.5 -1.5t10 -9t10 -21.5t12.5 -27.5q11 -24 45 -45q2 -1 22.5 -13.5t28 -18t25.5 -19.5t27 -25t19.5 -28t15.5 -34q9 -32 10.5 -60t-6.5 -56.5t-14.5 -44t-21.5 -47.5q-10 -22 -26 -33t-26 2 q-26 41 -70 67q-11 7 -24 3.5t-20 -15.5l-51 -96q-8 -20 7 -32q62 -50 96 -81.5t68.5 -73t50.5 -84t20 -94.5q4 -55 -17 -108.5t-60 -85.5q-20 -16 -33.5 -17.5t-20 12.5t-9 26.5t-4.5 36.5q-1 7 -1 10q-2 18 -13 40t-34 48.5t-43.5 48t-58.5 55t-60.5 52.5t-68 56.5 t-63.5 52.5q-26 22 -86 75t-78 67q-17 10 -29 -4q-47 -53 -44 -95q4 -37 34.5 -72.5t78.5 -78t73 -78.5q27 -37 27 -104t-46 -108q-45 -41 -113 -41h-152h-6.5t-7.5 1.5t-6.5 4t0 7.5t8.5 13q4 5 11 16.5t10 15.5q17 29 -4 60q-51 78 -41 183zM298 -120q0 10 8 18t18 8h341 q11 0 18.5 -8t7.5 -18v-43q0 -10 -7.5 -17.5t-18.5 -7.5h-75q-36 0 -50.5 -10.5t-14.5 -37.5q0 -38 18 -59v-1q17 -17 17 -42q0 -26 -19 -45t-46 -19t-46 19t-19 45q0 24 17 44q17 18 17 58q0 26 -15.5 37t-49.5 11h-75q-11 0 -18.5 7.5t-7.5 17.5v43z" />
<glyph unicode="&#xfb30;" horiz-adv-x="1012" d="M72 301q9 104 35.5 163t104.5 148q8 17 -4 32q-8 9 -31 35.5t-30.5 36t-21.5 28.5t-20 34t-9 32q-20 108 23 196q9 20 31.5 44.5t42.5 37.5q24 15 39.5 11.5t14.5 -26.5q-4 -43 7 -75q27 -78 69 -132t116 -114l170 -145q19 -12 29 7q41 77 51 97q15 28 -10 46 q-41 36 -59 62t-26 71q-5 28 1.5 65.5t15.5 55.5q24 49 65 75q16 10 26 13.5t17.5 -1.5t10.5 -8.5t11 -22t12 -27.5q11 -23 44 -44q2 -1 22.5 -13.5t28 -18t25.5 -19.5t27 -25t19.5 -28t15.5 -34q9 -32 10.5 -60t-6.5 -57t-14.5 -44.5t-21.5 -47.5q-10 -22 -25.5 -32.5 t-25.5 2.5q-25 40 -70 66q-11 7 -24.5 3.5t-20.5 -15.5l-51 -95q-8 -21 7 -33q62 -50 96 -81.5t68.5 -73t50.5 -84t20 -94.5q4 -55 -16.5 -108.5t-59.5 -85.5q-21 -16 -34.5 -17.5t-20 13t-9 27.5t-4.5 37q-1 5 -1 8q-2 18 -13 40t-34 48.5t-43.5 48t-58.5 55t-60.5 52.5 t-68 56.5t-63.5 52.5q-26 22 -86 75t-78 67q-17 11 -29 -3q-47 -53 -44 -96q4 -37 34.5 -72.5t78.5 -78t73 -78.5q27 -37 27 -103.5t-46 -107.5q-45 -41 -113 -41h-151h-1q-6 0 -9.5 0.5t-8 2.5t-3 7.5t9.5 14.5q4 5 10.5 16.5t9.5 16.5q18 30 -3 60q-14 22 -23 40.5 t-15.5 57t-2.5 84.5zM457 233q0 27 19 46t46 18v1q27 0 46 -19t19 -46t-19 -46t-46 -19t-46 19t-19 46z" />
<glyph unicode="&#xfb31;" horiz-adv-x="849" d="M39 38l82 200q15 36 53 36h514q14 0 20.5 4.5t6.5 22.5q3 106 -17.5 221.5t-67.5 154.5q-60 50 -139 64t-163 12.5t-120 8.5q-28 8 -49 20.5t-32 23t-19.5 28t-11 26t-6.5 25.5q-21 97 24 188q28 56 53 5q7 -15 17.5 -25t20 -15t26.5 -8t27 -3.5t31.5 -1t31.5 -0.5 q2 0 47.5 -2t62 -3.5t58.5 -8.5t66 -17.5t55 -29.5t52 -45q69 -83 88 -238.5t11 -382.5q0 -1 0.5 -2.5t2 -5.5t4 -7.5t7.5 -6t12 -2.5h27q20 0 27.5 -11t-0.5 -27l-82 -199q-13 -36 -52 -36h-639q-20 0 -28 10t-1 27zM345 513q0 27 19 46t46 18v1q27 0 45.5 -19t18.5 -46 t-18.5 -46t-45.5 -19t-46 19t-19 46z" />
<glyph unicode="&#xfb32;" horiz-adv-x="578" d="M19 38l82 200q15 36 53 36h181q54 0 54 58q0 197 14 352q0 4 -0.5 10.5t-9.5 18t-26 13.5q-44 7 -67 11.5t-54 17.5t-53 33q-33 33 -46 75q-10 31 -10 90q5 65 29 103q27 42 45 44t42 -34q5 -8 12.5 -15t14.5 -11.5t17.5 -9t16.5 -6.5t16.5 -5t12.5 -4q52 -13 84.5 -43.5 t40.5 -72.5q5 -29 -8.5 -96.5t-12.5 -105.5q4 -86 45.5 -241.5t43.5 -176.5q8 -65 2.5 -116.5t-31.5 -117.5q-11 -30 -22.5 -40t-20.5 -3t-15 19.5t-9 27.5q-24 138 -30 157q-6 16 -13 13t-15 -20l-63 -162q-15 -36 -53 -36h-218q-20 0 -28 10t-1 27zM191 513q0 27 19 46 t46 18v1q27 0 46 -19t19 -46t-19 -46t-46 -19t-46 19t-19 46z" />
<glyph unicode="&#xfb33;" horiz-adv-x="892" d="M58 878q-9 42 0.5 98t30.5 97q12 28 26.5 28.5t24.5 -23.5q6 -11 13.5 -19.5t14 -14t18.5 -9.5l18 -6t22 -3t21 -1h24h24h417q69 0 91.5 -34.5t24.5 -97.5q6 -126 -84 -140q-11 -1 -16.5 -7.5t-5.5 -11.5v-6q62 -432 65 -463q15 -116 -41 -230q-14 -30 -36 -39t-38 5 t-15 43l12 684q-1 16 -7.5 20t-19.5 4h-458q-51 0 -85 43t-41 83zM427 513q0 27 19 46t46 18v1q27 0 45.5 -19t18.5 -46t-18.5 -46t-45.5 -19t-46 19t-19 46z" />
<glyph unicode="&#xfb34;" horiz-adv-x="957" d="M73 878q-9 42 0.5 98t29.5 97q28 56 53 5q5 -11 12.5 -19.5t14 -14t18.5 -9.5l18 -6t22 -3t21.5 -1h24.5h24h461q69 0 91.5 -34.5t24.5 -97.5q2 -57 -15.5 -94.5t-69.5 -45.5q-10 -1 -15 -7.5t-5 -11.5v-6q5 -33 42 -222t43 -241q15 -116 -41 -230q-14 -30 -36 -39t-38 5 t-15 43l-10 684q0 16 -6 20t-20 4h-501q-52 0 -86.5 43t-41.5 83zM81 47q7 71 9 188t10 174q13 85 68 147q33 33 51.5 17.5t10.5 -45.5q-8 -33 -2 -136q3 -103 -9 -181t-56 -166q-18 -36 -38.5 -48.5t-33 2t-10.5 48.5zM403 513q0 27 19 46t46 18v1q27 0 45.5 -19t18.5 -46 t-18.5 -46t-45.5 -19t-46 19t-19 46z" />
<glyph unicode="&#xfb35;" horiz-adv-x="453" d="M55 953q3 66 27 103q26 42 44 44t41 -34q4 -6 9.5 -11.5t10.5 -9.5t12.5 -8t12.5 -6.5t13.5 -5.5t12 -4t12 -3.5t9.5 -2.5q50 -12 80 -45.5t38 -76.5q19 -103 -42 -179q-19 -27 -16 -48q38 -232 56 -401q16 -118 -40 -230q-14 -30 -36 -39t-38 5t-15 43q16 414 19 626 q1 18 -9 33t-27 20q-72 19 -101 39q-48 33 -63 85q-15 47 -10 106zM68 513q0 27 19 46t46 18v1q27 0 46 -19t19 -46t-19 -46t-46 -19t-46 19t-19 46z" />
<glyph unicode="&#xfb36;" horiz-adv-x="496" d="M24 513q0 27 19 46t46 18v1q27 0 46 -19t19 -46t-19 -46t-46 -19t-46 19t-19 46zM53 953q3 62 29 103q26 42 43 44.5t52 -36.5q12 -15 42.5 -25.5t56.5 -13.5q95 -12 140 -77q16 -24 22 -68t-1 -86q-5 -33 -13 -51.5t-16.5 -21t-18.5 1.5q-35 16 -75 12q-36 0 -44 -51 q-7 -29 -3 -65.5t7.5 -51.5t14 -48.5t15.5 -56.5q17 -69 20 -114t-8 -146q-12 -80 -38 -157q-11 -33 -26.5 -49t-27.5 -1t-12 64q0 83 -16 174q-4 21 -11.5 55.5t-10.5 53.5t-6.5 46.5t-3 54t4.5 56.5q5 39 12.5 70t17.5 66.5t16 58.5q7 22 0.5 37t-22.5 19q-54 15 -84 41 q-32 24 -48 72q-12 41 -8 90z" />
<glyph unicode="&#xfb37;" horiz-adv-x="954" d="M70 878q-9 42 1 97.5t30 97.5q28 56 53 5q5 -11 12.5 -19.5t14 -14t18 -9.5t18 -6t22 -3t21 -1h24h23.5h463q69 0 91.5 -34.5t24.5 -97.5q4 -126 -86 -140q-10 -1 -15 -7.5t-5 -11.5v-6q5 -33 42 -222t43 -241q15 -116 -41 -230q-14 -30 -35.5 -39t-37.5 5t-15 43 l-11 684q0 16 -6 20t-19 4h-430q-40 -34 -50 -97q-5 -31 -5.5 -77t2.5 -81t6.5 -74.5t3.5 -46.5q2 -60 3.5 -107.5t-11.5 -105t-43 -118.5q-18 -36 -38.5 -48.5t-33 2t-10.5 48.5q8 70 5 210.5t0 185.5q4 57 8.5 92.5t26 99t59.5 117.5q-17 3 -31 7.5t-24.5 9t-19.5 12 t-15 13t-11.5 15t-8 14t-5.5 15t-3.5 14t-2.5 14.5t-2 12zM406 513q0 27 19 46t46 18v1q27 0 46 -19t19 -46t-19 -46t-46 -19t-46 19t-19 46z" />
<glyph unicode="&#xfb38;" horiz-adv-x="983" d="M56 952q3 62 29 103q26 42 44 44t42 -34q4 -7 9.5 -13t13.5 -11t14 -8t15.5 -6.5t14 -5t14.5 -4.5t11 -3q73 -19 104 -69q18 -23 23.5 -66.5t-1.5 -84.5q-5 -33 -15 -56t-20.5 -31.5t-20.5 -3.5q-6 2 -15.5 6.5t-17.5 6.5t-20 3q-23 3 -34 -23q-38 -82 -38 -167 q3 -105 22 -222q1 -4 3 -9.5t13 -15t27 -9.5h577q4 0 9.5 1.5t16.5 10.5t13 24q12 111 -5 194t-72 149q-46 54 -107.5 81.5t-108.5 0.5q-73 -42 -108 -249q-2 -18 -10 -26.5t-21 -6.5q-25 4 -20 38q29 288 114 527q0 1 1 3.5t5 8t9 10t13.5 7.5t19.5 2q242 -22 329 -394 q60 -256 -30 -613q-1 -5 -3.5 -11.5t-15 -18t-32.5 -11.5h-666q-4 0 -10.5 1.5t-17 10t-11.5 22.5q-4 73 -7 133t-5 131.5t-5 128.5q-2 59 18.5 137t49.5 139q9 11 5 26.5t-24 21.5q-36 11 -61 36q-33 31 -48 75q-13 43 -9 90zM546 471q0 27 19 46t46 19t46 -19t19 -46 t-19 -46t-46 -19t-46 19t-19 46z" />
<glyph unicode="&#xfb39;" horiz-adv-x="453" d="M51 989q7 58 33 89q16 19 29 22t22 -4.5t20 -26.5q16 -25 36.5 -37.5t55.5 -20.5q85 -18 122 -87q48 -85 22 -208q-15 -73 -80 -162q-36 -49 -55 -34q-10 8 -11 22t3 25t10 21q17 30 23.5 44t7 35.5t-12.5 41.5q-11 16 -25.5 23.5t-39.5 14t-40 13.5q-74 34 -106 108 q-21 53 -14 121zM75 632q0 27 19 46t46 18v1q27 0 46 -19t19 -46t-19 -46t-46 -19t-46 19t-19 46z" />
<glyph unicode="&#xfb3a;" horiz-adv-x="846" d="M58 878q-9 42 0.5 98t30.5 97q12 28 26.5 28.5t24.5 -23.5q6 -11 13.5 -19.5t14 -14t18.5 -9.5l18 -6t22 -3t21 -1h24h24h371q69 0 91.5 -34.5t24.5 -97.5q4 -126 -86 -140q-10 -1 -15 -7.5t-5 -11.5v-6q6 -43 30.5 -468.5t30.5 -471.5q10 -128 -41 -231 q-15 -30 -36.5 -39t-37 5t-14.5 43l13 1162q0 16 -6 20t-19 4h-412q-51 0 -85 43t-41 83zM416 513q0 27 19 46t46 18v1q27 0 46 -19t19 -46t-19 -46t-46 -19t-46 19t-19 46z" />
<glyph unicode="&#xfb3b;" horiz-adv-x="855" d="M34.5 11.5q-7.5 10.5 0.5 26.5l81 200q14 36 52 36h575q14 0 20.5 4.5t6.5 22.5q4 159 -41 268q-41 101 -138 150q-50 24 -123 29.5t-144 5t-103 8.5q-28 8 -49 20.5t-32 23t-19.5 28t-11 26t-6.5 25.5q-21 97 24 188q28 56 53 5q7 -15 17.5 -25t20 -15t26.5 -8t27 -3.5 t32 -1t32 -0.5q10 -1 61 -2.5t85 -6t83 -15t88.5 -34t66.5 -58.5q66 -84 85 -230.5t13 -361.5h1q-1 -17 -4.5 -34.5t-7.5 -26.5l-3 -9l-99 -210q-20 -36 -53 -36h-589q-20 0 -27.5 10.5zM375 513q0 27 19 46t46 18v1q27 0 46 -19t19 -46t-19 -46t-46 -19t-46 19t-19 46z" />
<glyph unicode="&#xfb3c;" horiz-adv-x="870" d="M55.5 978.5q-0.5 64.5 0 89.5t1.5 63.5t4 59.5t9 37q13 37 38.5 68t24.5 43q-1 15 -29.5 40t-31.5 32q-9 16 -2 81q2 16 5 25t12.5 14.5t25.5 3.5q58 -9 93.5 -60.5t35.5 -87.5q0 -26 -46 -75t-48 -53q-4 -6 -6.5 -12.5t-4.5 -12t-3 -15t-2 -15t-1 -18.5v-20v-24.5v-27.5 v-17v-16.5t0.5 -13.5t2.5 -13t5 -9.5t8 -8.5t12 -5.5t17 -4.5t22 -1h461q127 0 143 -96q9 -49 11 -88.5t0 -99.5t-2 -81q0 -24 -5.5 -46.5t-20.5 -46.5t-26.5 -41t-37.5 -43.5t-39.5 -39.5t-47 -43.5t-45.5 -41.5q-31 -27 -62 -75.5t-42 -109.5q-4 -17 7 -44.5t11 -45.5 q0 -39 -18.5 -65t-54.5 -26q-35 0 -59 24.5t-28 61.5q-6 52 31.5 121.5t72.5 100.5q181 161 220 204q53 59 58 112v23q-2 62 -23 87.5t-89 25.5h-415q-71 0 -106.5 35t-35.5 94q0 33 -0.5 97.5zM348 557q0 27 19 46t46 18v1q27 0 46 -19t19 -46t-19 -46t-46 -19t-46 19 t-19 46z" />
<glyph unicode="&#xfb3d;" horiz-adv-x="925" d="M76 878q-7 43 2 98.5t29 96.5q28 56 53 5q5 -11 12.5 -19.5t14 -14t18.5 -9.5l18 -6t21.5 -3t21 -1h24.5h24h332q71 0 119 -40t67 -99t19 -134v-708q0 -43 -51 -43h-666q-44 0 -44 44l1 365q0 191 111 342q-32 0 -56.5 13.5t-38 35.5t-21 40.5t-10.5 36.5zM199 317 q0 -43 44 -43h505q46 0 46 49v265q0 66 -45.5 115t-117.5 49h-369q-63 -119 -63 -244v-191zM420 513q0 27 19 46t46 18v1q27 0 46 -19t19 -46t-19 -46t-46 -19t-46 19t-19 46z" />
<glyph unicode="&#xfb3e;" horiz-adv-x="991" d="M68.5 903q4.5 44 26.5 92q22 45 65 82q22 16 39.5 9.5t25.5 -33.5q10 -31 65 -56q68 -28 102 -174q3 -11 11 -16.5t20 0.5q27 19 44.5 62t23 76.5t10.5 81.5q5 43 41 40q178 -12 284 -149q138 -171 143 -601q0 -12 -3.5 -29.5t-7.5 -29.5l-4 -11l-87 -209 q-20 -36 -53 -36h-540q-20 0 -27.5 10t0.5 27l82 200q13 36 53 36h505q11 0 19 8t8 19q-6 239 -131 362q-47 46 -100.5 70.5t-87.5 29t-80 4.5q-77 0 -159 -48t-111 -114q-29 -67 -33.5 -138t1.5 -153.5t2 -130.5q-4 -62 -29 -126q-14 -33 -30 -48.5t-31.5 -1t-22.5 66.5 q-17 137 -2 248q19 137 84 266q16 31 -12 57v1q-39 38 -68 85.5t-33 84.5q-7 42 -2.5 86zM485 513q0 27 19 46t46 18v1q27 0 45.5 -19t18.5 -46t-18.5 -46t-45.5 -19t-46 19t-19 46z" />
<glyph unicode="&#xfb3f;" horiz-adv-x="465" d="M41 513q0 27 19 46t46 18v1q27 0 46 -19t19 -46t-19 -46t-46 -19t-46 19t-19 46zM55 943q1 28 11 62.5t19 49.5q26 42 44 44.5t42 -33.5q6 -10 14.5 -17.5t20.5 -12.5t19.5 -7.5t21 -6t16.5 -4.5q76 -16 106 -46q42 -44 34 -113t-50 -111q-10 -10 -18.5 -21t-12.5 -17 l-3 -6q-2 -5 -10.5 -24t-11 -24t-8.5 -20t-8.5 -22t-6 -19t-6 -22.5t-3.5 -22.5q-10 -86 22 -276q18 -108 33 -275.5t9 -223.5q-14 -106 -93 -225q-23 -32 -46 -26t-21 40q17 192 20 396q1 82 -6 215t-4 222q2 86 19.5 154.5t59.5 155.5q12 24 -12 28q-65 9 -106 29 q-23 11 -43.5 34.5t-29.5 48.5q-16 47 -12 96z" />
<glyph unicode="&#xfb40;" horiz-adv-x="592" d="M14 11q-7 10 0 27l82 200q15 36 52 36h214q40 0 37 41q-3 48 -5 87.5t-2.5 63.5t1.5 58.5t2.5 46t5 55t5.5 58.5q0 4 -0.5 10.5t-9.5 18t-26 13.5q-42 6 -65 11t-51 18t-49 33q-33 31 -48 75q-13 43 -9 90q3 62 29 103t47.5 44t45.5 -34q7 -12 22 -21.5t26 -13.5t32 -10 l20 -6q52 -13 85.5 -43.5t42.5 -72.5q9 -60 1 -90t-23 -62.5t-15 -49.5q-1 -63 34 -188.5t39 -207.5q6 -62 1.5 -120.5t-28.5 -107.5q-36 -72 -137 -72h-329q-20 0 -27 10zM188 513q0 27 19 46t46 18v1q27 0 45.5 -19t18.5 -46t-18.5 -46t-45.5 -19t-46 19t-19 46z" />
<glyph unicode="&#xfb41;" horiz-adv-x="873" d="M79 416q-1 70 50 185t87 151q-31 6 -56.5 22t-40.5 37t-23.5 39t-12.5 35q-21 97 24 188q28 56 53 5q7 -15 17.5 -25t20 -15t26 -8t27 -3.5t32 -1t31.5 -0.5h1q11 -1 85 -2t125 -5.5t115.5 -28.5t97.5 -67q65 -84 82 -229t12 -375q-4 -51 -20 -88l-79 -192 q-17 -37 -60 -37h-522q-43 0 -43 43q-1 13 -2.5 64.5t-3.5 76.5q-5 56 -9.5 90.5t-7 44t-4 31.5t-2.5 65zM168 460q3 -67 14 -143q3 -27 15 -35t33 -8h505q42 0 42 43v42.5v48.5t-0.5 46.5t-2.5 50t-5 44.5t-7.5 44.5t-11 36t-15.5 31.5q-20 31 -65 55.5t-92 28.5 q-131 11 -299 7q-58 -83 -85.5 -146t-25.5 -146zM403 513q0 27 19 46t46 18v1q27 0 45.5 -19t18.5 -46t-18.5 -46t-45.5 -19t-46 19t-19 46z" />
<glyph unicode="&#xfb42;" horiz-adv-x="942" d="M51 935q-3 64 21 104q17 34 27 46t28 7.5t45 -36.5q21 -25 96 -30q93 -3 145 -63q41 -51 36 -152q-2 -33 -9 -51.5t-15.5 -23t-18.5 -0.5q-34 12 -75 5q-39 -5 -39 -55q-3 -99 78 -171q41 -37 61.5 -97.5t8.5 -113.5q-4 -13 1.5 -22t19.5 -9h106q14 0 24.5 5t16 10 t10.5 19.5t6.5 20t5.5 24.5q19 93 48 175q39 108 56 159q5 20 -0.5 29.5t-25.5 13.5q-68 19 -109 58q-33 31 -48 75q-10 31 -10 90q5 68 31 103q26 42 44.5 44t42.5 -34q6 -10 15 -17.5t22 -13.5t20 -8.5t21.5 -7t15.5 -4.5q108 -25 129 -116q23 -111 -53 -162 q-13 -8 -25 -22.5t-16 -27.5q-47 -148 -61 -283q-5 -42 -9.5 -150t-5.5 -128q-4 -66 -31 -95.5t-85 -29.5h-495q-20 0 -28 10.5t0 27.5l82 199q13 36 53 36h127q40 0 50 24t-16 55q-16 20 -56 54t-60 74q-42 73 -17 209q5 24 -3 39.5t-23 17.5q-50 4 -89 32q-34 23 -53 69 q-13 33 -17 88zM468 554q0 27 18.5 46t45.5 18v1q27 0 46 -19t19 -46t-19 -46t-46 -19t-45.5 19t-18.5 46z" />
<glyph unicode="&#xfb43;" horiz-adv-x="841" d="M66 177.5q3 13.5 14 23.5q39 33 46 40q-45 66 -55 129.5t-3 132.5q7 78 38 147t71 102q-63 45 -78 126q-9 42 0.5 98t30.5 97q12 28 26.5 28.5t24.5 -23.5q6 -11 13.5 -19.5t14 -14t18.5 -9.5l18 -6t22 -3t21 -1h24h24h237q70 0 116 -47.5t50 -116.5l60 -1133 q7 -114 -77 -188q-23 -20 -40 -17.5t-16 36.5l32 1032q4 69 -28 115t-93 46h-331q-35 -25 -58 -88.5t-12 -123.5q5 -29 22 -47t46.5 -24.5t52.5 -8t63 -0.5q40 2 70 -23.5t39 -68.5q23 -103 -51 -149q-65 -41 -234 -10q-8 -5 -27.5 -23.5t-33.5 -29.5q-29 -24 -50 -3 q-10 11 -7 24.5zM423 581q0 27 19 46t46 18v1q27 0 46 -19t19 -46t-19 -46t-46 -19t-46 19t-19 46z" />
<glyph unicode="&#xfb44;" horiz-adv-x="837" d="M31 10.5q-7 10.5 0 27.5l82 200q15 35 53 35h551q11 0 19.5 7.5t9.5 20.5q5 262 -60 351q-34 47 -94 71t-112.5 26t-120 2.5t-96.5 5.5v-1q-51 -25 -48 -73q1 -20 17 -31.5t40.5 -15t55 -4.5t61.5 1q40 2 70 -23.5t39 -68.5q22 -102 -51 -148q-65 -41 -234 -10 q-8 -5 -27.5 -23.5t-33.5 -29.5q-30 -24 -50 -4q-10 11 -7 24.5t14 23.5q33 27 46 41q-41 37 -54.5 76t-8.5 93q10 98 121 188q-25 10 -42.5 23.5t-26.5 31.5t-12 28t-7 29q-21 98 23 188q28 56 53 5q7 -15 17.5 -25t20 -15t26.5 -8t27 -3.5t31.5 -1t31.5 -0.5 q3 0 41.5 -1.5t54.5 -3.5t54 -6.5t61.5 -13t54 -20.5t53.5 -31.5t41 -44.5q55 -78 71.5 -226t10.5 -361q-2 -43 -12 -70l-87 -210q-16 -36 -53 -36h-587q-20 0 -27 10.5zM550 472q0 27 18.5 46t45.5 18v1q27 0 46 -19t19 -46t-19 -46t-46 -19t-45.5 19t-18.5 46z" />
<glyph unicode="&#xfb45;" horiz-adv-x="916" d="M54 935q0 28 8 64t16 51q13 23 22.5 35t19.5 16.5t20.5 -3.5t23.5 -28q5 -7 10.5 -13t13 -10t13 -7t15 -5.5t13.5 -3.5t14 -3t11 -2q68 -13 108 -46q42 -43 37 -111.5t-44 -112.5q-10 -11 -18 -22.5t-11 -17.5l-4 -6q-35 -83 -42 -157q-4 -82 13 -162q4 -21 13.5 -25.5 t22.5 11.5l289 362q9 11 9 18.5t-14 19.5q-59 47 -62 131q-3 92 63 165q24 29 46 29t33 -29q21 -42 65 -68q45 -25 72.5 -62.5t29.5 -82.5q4 -84 -53 -155q-45 -61 -68 -34q-21 25 -34 34q-20 16 -38 -7l-322 -396q-26 -49 -21 -72q21 -113 39 -255t16 -192 q-7 -101 -84 -230q-22 -34 -45 -29t-21 39q8 168 3 398q-2 81 -15.5 213.5t-15.5 221.5q-2 90 10.5 159.5t49.5 152.5q11 25 -14 28q-68 9 -100 25q-24 11 -46 33.5t-31 46.5q-19 50 -16 94zM338 625q0 27 19 46t46 18v1q27 0 46 -19t19 -46t-19 -45.5t-46 -18.5t-46 18.5 t-19 45.5z" />
<glyph unicode="&#xfb46;" horiz-adv-x="957" d="M65 11q-7 10 0 27l82 200q15 36 53 36h493q36 0 12 20l-316 239q-19 16 -22 41q-12 94 -19 113q-9 28 -19 35.5t-29 8.5q-62 5 -106 16.5t-75 40.5q-30 30 -44 75q-14 42 -10 90q3 62 29 103q26 42 43.5 44t41.5 -34q5 -8 13 -15t15 -11.5t18 -9t16.5 -6.5t16 -5t12.5 -4 q102 -25 126 -116q5 -19 5.5 -40.5t-0.5 -33t-6 -39t-6 -31.5q-5 -23 10 -48q4 -7 43.5 -39t76.5 -60l37 -29q20 -19 35 7l61 145q7 8 6.5 18.5t-15.5 21.5q-70 55 -70 136q-3 94 62 166q25 29 47 29t33 -29q5 -13 22.5 -34.5t40.5 -34.5q45 -25 73 -63t30 -82 q4 -83 -52 -155q-47 -61 -68 -34q-7 7 -13 15.5t-12 13.5q-23 23 -33 -2l-65 -148q-7 -15 -4.5 -23.5t15.5 -19.5l180 -143q45 -35 59 -105.5t-14 -138.5q-55 -118 -196 -118h-586q-20 0 -27 10zM280 397q0 27 19 46t46 18v1q27 0 46 -19t19 -46t-19 -46t-46 -19t-46 19 t-19 46z" />
<glyph unicode="&#xfb47;" horiz-adv-x="928" d="M75.5 273.5q0.5 65.5 7.5 114.5q21 140 95 224q34 40 52 25q16 -13 -2 -46q-30 -56 -39 -92.5t-9 -84.5q-3 -91 20.5 -291.5t22.5 -265.5q-1 -78 -5 -123.5t-23.5 -109t-57.5 -115.5q-23 -32 -37.5 -41.5t-19.5 2.5t-2 46q8 118 7.5 164.5t-4 133t-2.5 153.5 q1 59 -1.5 150t-2 156.5zM86 885q-21 97 24 188q28 56 53 5q8 -17 20 -27.5t29 -15t31 -6t37 -2t37 -2.5q8 -1 79.5 -2t136.5 -6t143 -30t120 -68q55 -57 79.5 -192.5t19 -262.5t-28.5 -193q-16 -45 -60.5 -93t-103.5 -73q-43 -18 -124 -31t-139 -30t-78 -52 q-15 -27 -36.5 -17t-23.5 43q0 31 14 65q22 52 74 89t153 69q38 13 95 22t93 21.5t63 42.5q48 54 46.5 173.5t-50.5 174.5q-32 36 -116.5 53.5t-170 18.5t-176 3.5t-122.5 11.5q-28 8 -49 20.5t-32 23t-19.5 28t-11 26t-6.5 25.5zM440 513q0 27 19 46t46 18v1q27 0 46 -19 t19 -46t-19 -46t-46 -19t-46 19t-19 46z" />
<glyph unicode="&#xfb48;" horiz-adv-x="856" d="M58 878q-9 42 1 97.5t30 97.5q28 56 53 5q5 -11 12.5 -19.5t14 -14t18 -9.5t18 -6t22 -3t21 -1h24h23.5h227q110 0 172 -71t77 -202q8 -65 17.5 -258.5t13.5 -229.5q11 -138 -22 -229q-18 -49 -46.5 -42t-26.5 52q8 323 22 543q0 66 -46 115t-118 49h-381q-51 0 -85 43 t-41 83zM464 513q0 27 19 46t46 18v1q27 0 46 -19t19 -46t-19 -46t-46 -19t-46 19t-19 46z" />
<glyph unicode="&#xfb49;" horiz-adv-x="1221" d="M3 941q4 28 14.5 60.5t20.5 47.5q28 46 47 50t43 -33q26 -44 82 -58q83 -23 118 -103q13 -27 15 -70.5t-7 -84.5q-7 -32 -15.5 -49.5t-16.5 -19t-17 2.5q-31 18 -67 18q-28 0 -43 -47q-20 -66 -23 -87.5t5 -70.5q7 -34 31 -94t32 -105q3 -26 29 -26h10q23 0 34 24 l191 440q9 26 -6 38q-59 44 -62 131q-3 93 63 166q24 29 46.5 29t33.5 -29q3 -12 21.5 -33t42.5 -35q95 -53 100 -145q4 -47 -8.5 -82.5t-42.5 -73.5q-45 -61 -68 -34q-21 25 -34 34q-28 19 -38 -7l-169 -399q-5 -14 -1.5 -19t18.5 -5h205q67 0 120 29t76 86q29 70 68 143 t64 112l25 38q14 24 -3 36q-4 3 -23 16t-31.5 24t-29.5 27.5t-29 37t-17 42.5q-27 112 57 208q24 29 46.5 29t33.5 -29q4 -13 23 -33.5t42 -34.5q44 -25 71 -63t29 -82q4 -87 -51 -156q-25 -33 -39 -30q-1 0 -5 2t-6 2t-5.5 -2.5t-7.5 -8.5q-90 -124 -164 -412q-2 -7 -5 -21 q-8 -30 -12.5 -46t-15 -44.5t-21 -45t-29 -37.5t-40 -32.5t-53 -19.5t-68.5 -8h-449q-25 0 -25 26q0 89 -7 158q-6 68 -13 115t-10 76t-4 83q0 14 1.5 28.5t5.5 32.5t6 28.5t8 32.5t8 28.5t9.5 32.5t8.5 28q16 50 -12 58q-40 16 -73 50q-29 32 -36 75q-8 37 -2 90zM565 486 q0 27 19 46t46 18q27 0 46 -18.5t19 -45.5t-19 -46t-46 -19t-46 19t-19 46z" />
<glyph unicode="&#xfb4a;" horiz-adv-x="974" d="M18 11q-8 10 0 27l82 200q13 36 53 36q16 0 27 12q6 8 -7 37.5t-28.5 84t-10.5 112.5q6 72 34 143t56 102h-1q-34 16 -53 49t-24 64q-7 43 2 98.5t29 96.5q28 56 53 5q5 -11 12.5 -19.5t14 -14t18.5 -9.5l18 -6t22 -3t21 -1h24.5h24.5h254q110 0 172.5 -71.5t77.5 -201.5 q8 -65 17 -258.5t13 -229.5q11 -138 -22 -229q-18 -49 -46.5 -42t-26.5 52q8 323 22 543q0 66 -46 115t-118 49h-396q-29 -49 -37 -74q-50 -132 30 -268q91 -155 62 -279q-5 -19 -12.5 -37t-21.5 -41.5t-38 -37.5t-53 -14h-170q-20 0 -28 10zM478 513q0 27 19 46t46 18v1 q27 0 46 -19t19 -46t-19 -46t-46 -19t-46 19t-19 46z" />
<glyph unicode="&#xfb4b;" horiz-adv-x="453" d="M55 952q3 66 27 103q26 42 44 44t41 -34q4 -6 9.5 -11.5t10.5 -9.5t12.5 -8t12.5 -6.5t13.5 -5.5t12 -4t12 -3.5t9.5 -2.5q50 -12 80 -45t38 -76q19 -104 -42 -180q-19 -27 -16 -47q38 -232 56 -401q6 -43 -1 -105t-39 -126q-14 -30 -36 -39t-38 5t-15 43q16 414 19 626 q1 18 -9 33t-27 20q-72 19 -101 39q-47 33 -63 86q-15 46 -10 105zM198 1164q0 27 19 46t46 19t46 -19t19 -46q0 -26 -19 -44.5t-46 -18.5t-46 18.5t-19 44.5z" />
<glyph unicode="&#xfb4c;" horiz-adv-x="849" d="M39 38l82 199q15 36 53 36h514q14 0 20.5 4.5t6.5 22.5q3 106 -17.5 221.5t-67.5 154.5q-60 50 -139 64t-163 12.5t-120 8.5q-28 8 -49 20.5t-32 23t-19.5 28t-11 26t-6.5 25.5q-21 97 24 188q28 56 53 5q7 -15 17.5 -25t20 -15t26.5 -8t27 -3.5t31.5 -1t31.5 -0.5 q2 0 47.5 -2t62 -3.5t58.5 -8.5t66 -17.5t55 -29.5t52 -45q69 -83 88 -238.5t11 -382.5q0 -1 0.5 -2.5t2 -5.5t4 -7.5t7.5 -6t12 -2.5h27q20 0 27.5 -10.5t-0.5 -26.5l-82 -200q-13 -36 -52 -36h-639q-20 0 -28 10.5t-1 27.5zM259 1142v42q0 10 7.5 18t18.5 8h290 q11 0 18.5 -8t7.5 -18v-42q0 -10 -7.5 -18t-18.5 -8h-290q-11 0 -18.5 8t-7.5 18z" />
<glyph unicode="&#xfb4d;" horiz-adv-x="855" d="M34.5 11q-7.5 11 0.5 27l81 199q14 36 52 36h575q14 0 20.5 4.5t6.5 22.5q4 159 -41 268q-20 49 -57 89t-81 62q-49 24 -122.5 29.5t-144.5 4.5t-103 8q-28 8 -49 20.5t-32 23t-19.5 28t-11 26t-6.5 25.5q-21 97 24 188q28 56 53 5q7 -15 17.5 -25t20 -15t26.5 -8 t27 -3.5t32 -1t32 -0.5q10 -1 61 -2.5t85 -6t83 -15t88.5 -34t66.5 -58.5q66 -84 85 -230.5t13 -361.5h1q-1 -17 -4.5 -34.5t-7.5 -26.5l-3 -9l-99 -210q-20 -36 -53 -36h-589q-20 0 -27.5 11zM265 1142v42q0 11 7.5 18.5t17.5 7.5h290q10 0 18 -8t8 -18v-42q0 -10 -8 -18 t-18 -8h-290q-10 0 -17.5 7.5t-7.5 18.5z" />
<glyph unicode="&#xfb4e;" horiz-adv-x="837" d="M31 9.5q-7 10.5 0 27.5l82 200q15 36 53 36h551q26 0 29 27q5 262 -60 351q-34 47 -94 71t-112.5 26t-120 2.5t-96.5 5.5q-51 -25 -48 -74q1 -20 17 -31.5t40.5 -14.5t55 -4t61.5 1q40 2 70 -24t39 -69q22 -102 -51 -148q-65 -41 -234 -10q-8 -5 -27.5 -23.5t-33.5 -29.5 q-30 -24 -50 -4q-10 11 -7 24.5t14 23.5q33 27 46 41q-41 37 -54.5 76t-8.5 93q10 98 121 188q-25 10 -42.5 24t-26.5 32t-12 28t-7 29q-21 98 23 187q28 56 53 5q7 -15 17.5 -25t20 -15t26.5 -8t27 -3.5t31.5 -1t31.5 -0.5q3 0 41.5 -1.5t54.5 -3.5t54 -6.5t61.5 -13 t54 -20.5t53.5 -31.5t41 -44.5q55 -78 71.5 -226t10.5 -361q-2 -43 -12 -70l-87 -210q-16 -36 -53 -36h-587q-20 0 -27 10.5zM270 1142v42q0 11 7.5 18.5t17.5 7.5h290q11 0 18.5 -8t7.5 -18v-42q0 -10 -7.5 -18t-18.5 -8h-290q-10 0 -17.5 7.5t-7.5 18.5z" />
<glyph unicode="&#xfb4f;" horiz-adv-x="1012" d="M88 1067q0 28 1 64.5t4 58t9 37.5q13 38 39 68.5t25 42.5q-1 15 -30 40t-32 32q-9 18 -2 82q1 12 3 19t6.5 13.5t13 9t20.5 0.5q58 -9 94 -60.5t36 -87.5q0 -26 -46 -75t-48 -53q-4 -6 -6.5 -12.5t-4.5 -12t-3 -15t-2 -15t-1 -18.5v-20v-24.5v-27.5q0 -96 68 -168 q108 -112 207 -194l170 -145q19 -12 29 7q41 77 51 97q15 28 -10 46q-41 36 -59 62t-26 71q-5 28 1.5 65.5t15.5 55.5q24 49 65 75q16 10 26 13.5t17.5 -1.5t10.5 -8.5t11 -22t12 -27.5q11 -23 44 -44q2 -1 22.5 -13.5t28 -18t25.5 -19.5t27 -25t19.5 -28t15.5 -34 q9 -32 10.5 -60t-6.5 -56.5t-14.5 -44t-21.5 -47.5q-10 -22 -25.5 -33t-25.5 2q-25 40 -70 66q-11 7 -24.5 3.5t-20.5 -15.5l-51 -95q-8 -21 7 -33q62 -51 96 -81.5t68.5 -72t50.5 -84t20 -94.5q4 -55 -16.5 -109t-59.5 -86q-21 -16 -34.5 -17.5t-20 13t-9 27.5t-4.5 37 q-1 5 -1 8q-2 18 -12.5 40t-34.5 49t-43.5 48t-59 55.5t-60 52t-68 57t-63.5 52.5q-133 112 -230 203q-104 100 -116 167q-7 36 -7 72q0 38 -0.5 98t-0.5 88z" />
</font>
</defs>
</svg>
